<svg xmlns="http://www.w3.org/2000/svg" viewBox="0 0 208 249.085" fill="none">
  <path d="M193.104 28.5015C174.872 15.2884 154.923 8.0547 133.213 6.50371C61.917 1.41426 12.0065 65.8016 16.7802 129.892C21.343 191.173 79.2707 234.567 130.926 214.574C166.465 200.814 187.32 158.547 176.968 121.26C167.304 86.4645 132.249 66.6364 103.178 79.5232C81.3551 89.1978 69.4776 115.929 77.1201 138.177C83.2364 155.992 101.156 166.273 116.332 160.565C118.721 159.666 121.301 158.416 123.752 156.768C118.01 158.425 112.721 159.2 107.76 158.577C88.7673 156.183 77.9319 134.185 85.5003 114.306C93.1116 94.3042 114.134 85.0915 133.276 93.3677C158.506 104.28 168.202 137.567 153.912 164.23C139.181 191.72 106.937 200.945 80.1529 185.334C44.6179 164.62 35.6952 114.06 61.1364 77.6035C89.0951 37.5405 142.839 33.6884 178.69 69.179C214.537 104.665 218.038 164.747 186.235 207.31C159.47 243.127 124.509 256.158 83.537 245.454C40.3712 234.173 12.1119 204.344 2.71688 156.746C-13.501 74.5269 44.9809 -1.41651 122.358 0.0200599C147.815 0.49468 177.671 12.3475 193.104 28.5015Z" fill="#007566" />
</svg>
