<?xml version="1.0" encoding="UTF-8"?>
<svg id="Layer_1" xmlns="http://www.w3.org/2000/svg" xmlns:xlink="http://www.w3.org/1999/xlink" version="1.1" viewBox="0 0 400 400">
  <!-- Generator: Adobe Illustrator 29.3.0, SVG Export Plug-In . SVG Version: 2.1.0 Build 146)  -->
  <defs>
    <style>
      .st0 {
        fill: none;
      }

      .st1 {
        fill: #000001;
      }

      .st2 {
        clip-path: url(#clippath);
      }
    </style>
    <clipPath id="clippath">
      <rect class="st0" x="74.93" y="98.89" width="250.14" height="202.22"/>
    </clipPath>
  </defs>
  <g class="st2">
    <path class="st1" d="M301.9,122.21c-1.84,4.14-6.69,6.01-10.84,4.17-3.32-1.47-4.81-5.36-3.33-8.67,1.18-2.65,4.28-3.85,6.94-2.67l2.02-6.38c5.18,2.3,7.51,8.37,5.21,13.55M323.78,125.34c-3.59-13.75-17.49-26.36-31.26-26.05-3.79.09-5.19,1.09-18.76,7.29-8.63,3.94-17.44,7.48-26.05,11.46-34.54,15.95-47.68,10.23-68.77,25.01-5.11,3.58-12.44,12.46-27.09,30.22-28.1,34.06-22.59,35.56-39.6,52.1-12.58,12.24-26.67,22.2-23.97,30.22,1.3,3.85,5.16,3.4,6.25,7.29,2.87,10.23-21.59,21.13-18.76,32.3.43,1.7,1.78,4.52,4.17,5.21,7.87,2.26,15.27-22.09,37.51-41.68,16.83-14.82,38.66-23.85,45.85-17.72,4.13,3.53,1.76,10.66,8.34,15.63,5.08,3.84,11.34,3.24,11.46,5.21.13,2.12-7.17,2.36-9.38,7.29-1.53,3.43-.06,7.91,2.08,10.42,6.64,7.78,25.98,3.98,28.13-3.12,1.89-6.22-9.19-15.64-10.42-16.67-6.02-5.03-10.15-5.25-10.42-8.34-.39-4.51,7.99-8.89,13.55-10.42.55-.15,7.29-1.97,8.34,0,1,1.88-4.58,4.65-5.21,10.42-.51,4.7,2.46,9.56,4.17,9.38,2.8-.29,1.94-14.03,5.21-14.59,3.96-.67,7.89,19.04,13.55,18.76,3.52-.17,6.73-8.03,6.25-14.59-.46-6.27-4.33-11.94-9.38-14.59-6.53-3.42-13.19-.81-13.55-2.08-.48-1.7,11.68-5.47,20.84-10.42,3.72-2.01,10.6-6.19,35.43-38.55,11.69-15.24,20.72-28.07,35.43-35.43,1.02-.51,10.05-5.03,11.46-3.13,1.18,1.59-3.97,6.33-3.13,7.29,1.14,1.31,13.93-3.64,17.71-14.59,1.98-5.71.72-10.8,0-13.55"/>
    <path class="st1" d="M323.99,125.28c3.12,10.05-.65,19.56-9.29,25.35-1.08.81-8.16,5.03-9.08,2.75-.07-.63.21-1.05.47-1.54,1.32-2.4,5.97-7.25-.64-5.22-21.1,6.92-32.86,26.94-45.71,43.66-5.81,7.66-11.71,15.26-18.17,22.48-4.06,4.41-8.39,9.28-13.89,12.27-6.33,3.64-13.62,5.8-19.84,9.45.13-.15.41-.8.23-1.32-.09-.51-.62-1.05-.99-1.17,1.81-.15,5.47-.39,8.16.11,8.12,1.23,14.46,8.48,15.71,16.43.88,5.88-.75,15.4-6.55,18.26-7.93,2.83-11.26-13.12-14.75-17.74-.26-.37-.57-.7-.65-.74.01.03,0-.01.06.03.08.05.14.02.28.06.26-.02.53-.1.61-.2.12-.12-.14.17-.27.57-.16.4-.3.9-.43,1.42-1.16,3.65-.58,15.03-7.05,12.36-4.32-2.88-5.59-9.56-3.91-14.19,1.07-3.05,3.22-5,4.64-7.02.03-.05.09-.14.06-.11,0,.02.02-.01-.02.15,0,.06,0,.12.02.18-.01.21.14.48.25.61.16.16.23.15.13.13-1.8-.37-4.03.21-5.88.62-3.16.86-6.43,2.28-9.08,4.14-1.41,1.04-3.74,2.86-3.12,4.56.83,1.02,2.32,1.64,3.64,2.47,2.13,1.24,4.26,2.7,6.17,4.34,4.88,4.45,14.13,13.07,9.87,20.28-3.22,4.54-8.89,6.09-14.07,6.77-6.35.7-14.25-.57-17.69-6.71-2.05-3.62-2.68-8.58.06-12.06,2.3-2.89,5.36-3.61,8.06-5.01.18-.1.32-.22.31-.21-.02,0-.16.3-.1.54.03.1.08.19.13.27.1.07,0,.02,0,.01.01-.02-.14-.07-.19-.1-2.93-1.03-6.1-1.51-8.96-3.27-2.28-1.28-4.28-3.25-5.55-5.6-1.82-3.13-1.81-7.07-3.46-10.13-3.26-4.68-10.45-2.8-15.22-1.54-9.01,2.79-17.37,7.71-24.93,13.34-7.64,5.71-14.32,12.6-20.16,20.13-4.44,5.64-8.36,11.68-12.51,17.55-2.73,3.41-6.48,10.07-11.64,7.98-2.41-1.26-3.65-3.79-4.06-6.36-.31-2.63.68-5.15,1.99-7.22,1.31-2.11,2.93-3.94,4.57-5.71,3.83-4.56,15.33-13,11.68-19.51-1.24-1.95-4.09-2.57-5.26-4.88-4.14-7.9,7.01-16.76,11.86-21.73,7-6.58,14.22-12.92,20.03-20.34,5.74-7.53,10.22-16.24,15.93-23.89,8.44-11.79,17.73-22.77,26.98-33.87,4.81-5.5,9.34-11.36,15.35-15.77,6.04-4.17,12.86-7.45,19.89-9.46,9.3-2.69,18.73-4.13,27.94-6.93,9.22-2.64,17.94-6.39,26.73-10.24,8.86-3.75,17.74-7.3,26.47-11.29,3.32-1.43,6.55-3.08,10.03-4.16,3.58-.93,7.36-.31,10.86.65,11.51,3.71,20.73,13.68,23.95,25.28M323.58,125.39c-3.8-14.04-18.92-28.21-34.18-25.24-3.39,1.1-6.56,2.85-9.8,4.34-8.62,4.22-17.47,8.03-26.18,11.99-8.67,4.08-17.51,8.16-26.7,11.06-9.09,3.03-18.65,4.83-27.75,7.6-5.62,1.75-10.93,4.19-15.87,7.32-2.91,1.79-5.68,3.92-8.05,6.48-6.51,6.87-12.53,14.42-18.65,21.71-9.19,11.06-18.16,22.15-25.96,34.2-2.62,3.98-5.19,8.13-8.32,11.92-6.21,7.59-13.64,13.83-20.73,20.22-4.38,4.3-15.09,12.6-11.87,19.15,1.13,2.07,3.81,2.68,5.11,4.9,4.25,8-7.59,16.02-12.1,21.3-3.72,3.91-8.51,9.53-5.17,14.97,2.11,3.69,5.27,3,7.84.17,3.25-3.42,5.77-7.58,8.47-11.47,10.53-16.11,23.66-31.01,40.65-40.51,6.37-3.55,13.19-6.76,20.56-7.59,3.69-.44,8.68.26,10.87,3.92,1.95,3.22,1.89,6.98,3.71,10.15,2.57,4.7,7.91,5.85,12.81,7.17,1.99.54,3.25,2.67,1.81,4.39-.87.99-1.9,1.32-2.89,1.8-2.2.95-4.19,1.91-5.31,3.41-2.26,2.83-.74,8.19,2.22,10.58,5.74,4.59,19.16,3.11,23.63-2.63,2.5-4.65-5.93-12.29-9.23-15.22-1.74-1.47-3.59-2.73-5.62-3.89-1.68-1.05-3.76-1.84-5.05-3.77-2.37-3.96,1.16-8.06,4.16-10.1,3.24-2.28,6.67-3.79,10.43-4.85,2.78-.62,5.39-1.37,8.32-.58,1.79.47,3.08,2.63,2.24,4.48-1.23,2.66-3.78,4.39-4.62,7.09-1.02,2.71-.21,6.79,1.9,8.79-.23-.09-.47-.12-.78-.03-.46.13-.57.4-.53.31,1.89-3.78.57-14.79,6.5-14.96,3.17.23,4.53,3.71,5.76,5.97,1.09,2.24,2.02,4.44,3.03,6.55,1.11,2.14,2.19,4.83,4.12,6.15.21.08.19.11.29.05.19.04.92-.54,1.43-1.29,2.27-3.43,3.12-8.13,2.55-12.16-.96-6.2-5.77-11.94-12.12-12.95-2.63-.52-5.14-.08-7.9-.15-.33-.04-.58-.06-.97-.2-2.08-.74-2.17-3.31-.56-4.57,3.44-2.47,7.4-3.57,11.13-5.29,4.27-1.87,8.65-3.58,12.5-6.19,3.67-2.62,7.02-6.06,10.27-9.49,13.13-13.95,24.22-29.63,36.73-44.21,7.91-9.07,17.76-16.99,29.47-20.49,2.85-.89,6.45-.71,3.6,3.58-.76,1.34-2.03,2.49-2.42,3.93,0,.01-.03,0,.06.03,2.76.11,5.57-1.7,7.92-3.12,3.93-2.62,7.27-6.31,8.98-10.75,1.78-4.45,1.53-9.43.26-13.99"/>
    <path class="st1" d="M301.71,122.13c1.91-4.61-2.07-9.4-5.92-11.43l3.01-1.36c-1.01,2.75-2.16,5.59-3.3,8.29l-1.56-.96c-3.09-2.03-6.9.78-6,4.42.9,3.4,4.69,4.11,7.74,4.31,2.32.19,5.08-.91,6.03-3.27M302.09,122.3c-1.2,2.54-2.97,5.09-5.81,6.16-3.01,1.16-6.84-.03-8.53-2.83-3.5-5.42.47-14.53,7.63-12.2l-2.42,1.09c.64-2.93,1.46-5.96,2.23-8.86,8.39,2.81,10.56,8.86,6.89,16.65"/>
    <path d="M296.56,108.56c6.35,1.75,9.15,10.55,4.91,15.76-4.08,5.24-14.03,3.7-15.02-3.29-1.06-5.95,5.99-10.04,10.35-5.59,3.36,3.67-.31,10.01-5.15,7.66-2.36-1.11-2.65-4.97-.12-6.04,1.86-.9,4.31.91,3.33,2.9-.38.88-1.5,1.2-2.2.75-.11-.06-.03-.23.09-.19,1.53.4,2.06-1.6.91-2.27-.99-.56-2.22.18-2.24,1.31-.13,2.51,3.64,2.59,4.24.4,1.33-4.23-4.48-5.88-6.87-2.76-2.82,3.51-.42,8.96,4.09,9.4,6.12.85,9.94-5.77,8.55-11.16-.64-2.7-2.42-5.14-4.97-6.71-.11-.05-.03-.23.08-.19"/>
  </g>
</svg>