<?xml version="1.0" encoding="UTF-8"?>
<svg id="Layer_1" xmlns="http://www.w3.org/2000/svg" xmlns:xlink="http://www.w3.org/1999/xlink" version="1.1" viewBox="0 0 400 400">
  <!-- Generator: Adobe Illustrator 29.3.0, SVG Export Plug-In . SVG Version: 2.1.0 Build 146)  -->
  <defs>
    <style>
      .st0 {
        fill: none;
      }

      .st1 {
        fill: #000001;
      }

      .st2 {
        clip-path: url(#clippath);
      }
    </style>
    <clipPath id="clippath">
      <rect class="st0" x="62.34" y="98.09" width="275.32" height="222.57"/>
    </clipPath>
  </defs>
  <g class="st2">
    <path class="st1" d="M336.46,127.14c3.44,11.07-.72,21.53-10.22,27.91-1.18.9-8.99,5.54-9.99,3.02-.08-.69.23-1.16.52-1.69,1.45-2.65,6.57-7.98-.71-5.74-23.23,7.62-36.17,29.66-50.32,48.06-6.39,8.43-12.89,16.8-20,24.75-4.47,4.85-9.23,10.22-15.28,13.5-6.97,4-14.99,6.38-21.84,10.41.15-.16.45-.88.25-1.45-.1-.56-.68-1.16-1.09-1.28,1.99-.16,6.02-.43,8.98.12,8.94,1.35,15.91,9.33,17.29,18.09.97,6.47-.82,16.95-7.21,20.1-8.72,3.12-12.39-14.44-16.23-19.53-.28-.41-.63-.77-.71-.82.02.03-.01-.02.06.03.09.05.15.02.31.06.28-.02.58-.11.67-.22.13-.13-.15.19-.3.63-.17.44-.33.99-.47,1.56-1.27,4.01-.64,16.55-7.76,13.6-4.76-3.17-6.15-10.52-4.3-15.61,1.17-3.36,3.54-5.51,5.11-7.73.03-.05.1-.16.07-.12-.01.02.02-.02-.03.16,0,.07,0,.13.02.2-.01.23.15.54.28.68.17.18.25.16.14.14-1.98-.4-4.44.23-6.47.68-3.48.95-7.08,2.51-10,4.56-1.55,1.14-4.12,3.15-3.44,5.02.91,1.12,2.56,1.8,4,2.71,2.35,1.36,4.68,2.97,6.79,4.78,5.37,4.9,15.55,14.38,10.87,22.32-3.54,5-9.78,6.7-15.49,7.45-6.99.77-15.69-.63-19.47-7.39-2.26-3.99-2.95-9.45.07-13.27,2.53-3.18,5.9-3.97,8.88-5.51.2-.11.35-.24.34-.23-.02-.01-.18.33-.11.6.03.11.09.2.14.3.11.07,0,.02,0,.01.02-.02-.15-.07-.21-.11-3.22-1.13-6.71-1.66-9.86-3.59-2.5-1.41-4.71-3.58-6.11-6.17-2-3.45-1.99-7.78-3.81-11.15-3.59-5.15-11.5-3.09-16.75-1.7-9.92,3.07-19.12,8.48-27.44,14.69-8.41,6.28-15.76,13.87-22.19,22.16-4.89,6.2-9.2,12.86-13.76,19.32-3.01,3.75-7.13,11.09-12.81,8.78-2.65-1.39-4.02-4.17-4.47-7-.35-2.89.75-5.67,2.19-7.94,1.44-2.32,3.22-4.34,5.03-6.29,4.21-5.02,16.87-14.31,12.86-21.47-1.37-2.15-4.5-2.83-5.79-5.37-4.55-8.69,7.72-18.44,13.05-23.92,7.71-7.25,15.65-14.22,22.04-22.38,6.32-8.29,11.25-17.87,17.54-26.29,9.29-12.97,19.51-25.06,29.69-37.28,5.3-6.05,10.28-12.5,16.9-17.36,6.65-4.58,14.15-8.2,21.9-10.41,10.24-2.97,20.61-4.55,30.75-7.63,10.14-2.9,19.74-7.03,29.42-11.28,9.75-4.13,19.52-8.04,29.13-12.43,3.65-1.57,7.21-3.39,11.04-4.58,3.94-1.02,8.1-.34,11.95.72,12.67,4.08,22.81,15.06,26.36,27.82M336.02,127.25c-4.18-15.45-20.83-31.05-37.62-27.78-3.73,1.21-7.22,3.14-10.79,4.78-9.49,4.64-19.22,8.83-28.81,13.19-9.55,4.49-19.27,8.98-29.39,12.17-10,3.33-20.53,5.32-30.54,8.36-6.19,1.92-12.03,4.62-17.47,8.06-3.2,1.97-6.25,4.32-8.86,7.14-7.17,7.57-13.8,15.87-20.52,23.9-10.11,12.17-19.99,24.38-28.58,37.64-2.88,4.38-5.72,8.95-9.15,13.12-6.84,8.36-15.01,15.22-22.82,22.26-4.82,4.74-16.61,13.87-13.07,21.07,1.25,2.28,4.19,2.95,5.62,5.39,4.67,8.8-8.35,17.64-13.32,23.45-4.1,4.3-9.36,10.48-5.69,16.48,2.32,4.06,5.8,3.3,8.63.19,3.58-3.76,6.35-8.34,9.32-12.62,11.59-17.73,26.04-34.13,44.75-44.59,7.01-3.9,14.52-7.43,22.63-8.35,4.06-.49,9.55.28,11.96,4.31,2.14,3.54,2.08,7.69,4.09,11.17,2.83,5.17,8.7,6.44,14.1,7.89,2.19.59,3.57,2.93,1.99,4.83-.95,1.08-2.09,1.45-3.18,1.98-2.43,1.05-4.61,2.1-5.85,3.75-2.48,3.12-.81,9.02,2.45,11.65,6.32,5.06,21.09,3.43,26.01-2.9,2.75-5.12-6.52-13.52-10.15-16.75-1.91-1.62-3.96-3.01-6.18-4.28-1.85-1.15-4.14-2.03-5.56-4.15-2.61-4.35,1.28-8.88,4.58-11.11,3.56-2.51,7.34-4.17,11.48-5.34,3.06-.69,5.93-1.5,9.15-.64,1.97.51,3.39,2.89,2.47,4.93-1.35,2.93-4.16,4.84-5.08,7.81-1.13,2.99-.23,7.47,2.09,9.67-.24-.15-.52-.09-.85-.04-.5.14-.63.44-.59.34,2.08-4.16.63-16.28,7.15-16.46,3.49.25,4.99,4.08,6.34,6.57,1.2,2.47,2.22,4.89,3.33,7.21,1.22,2.35,2.41,5.32,4.53,6.76.23.09.21.12.31.06.21.04,1.01-.59,1.57-1.42,2.49-3.77,3.43-8.95,2.8-13.38-1.06-6.82-6.35-13.15-13.34-14.25-2.9-.57-5.65-.09-8.7-.17-.36-.05-.64-.07-1.07-.23-2.29-.81-2.39-3.65-.61-5.03,3.79-2.72,8.14-3.93,12.25-5.82,4.7-2.06,9.52-3.94,13.76-6.82,4.04-2.89,7.73-6.67,11.3-10.45,14.46-15.36,26.66-32.61,40.42-48.66,8.71-9.98,19.55-18.7,32.44-22.55,3.14-.98,7.09-.78,3.97,3.94-.83,1.47-2.23,2.74-2.66,4.33.01.01-.04,0,.07.03,3.04.12,6.13-1.87,8.72-3.43,4.33-2.89,8.01-6.94,9.88-11.83,1.96-4.9,1.69-10.38.28-15.4"/>
    <path class="st1" d="M304.18,108.74c7,1.93,10.07,11.61,5.41,17.35-4.49,5.77-15.44,4.08-16.53-3.62-1.17-6.55,6.59-11.05,11.39-6.15,3.7,4.04-.34,11.02-5.66,8.44-2.6-1.22-2.91-5.47-.12-6.65,2.05-.99,4.74,1,3.67,3.19-.41.97-1.66,1.32-2.43.83-.12-.07-.03-.25.09-.21,1.68.44,2.27-1.76,1-2.49-1.09-.62-2.45.2-2.47,1.44-.14,2.76,4.01,2.85,4.67.45,1.46-4.65-4.93-6.47-7.56-3.03-3.11,3.86-.47,9.86,4.5,10.35,6.74.93,10.94-6.35,9.41-12.29-.71-2.97-2.66-5.65-5.47-7.38-.12-.06-.03-.25.09-.21"/>
  </g>
</svg>