<?xml version="1.0" encoding="UTF-8"?> <!-- Generator: Adobe Illustrator 25.4.1, SVG Export Plug-In . SVG Version: 6.00 Build 0) --> <svg xmlns="http://www.w3.org/2000/svg" xmlns:xlink="http://www.w3.org/1999/xlink" version="1.1" id="Layer_1" x="0px" y="0px" viewBox="0 0 193 66" style="enable-background:new 0 0 193 66;" xml:space="preserve"> <style type="text/css"> .st0{fill:#E10E77;} .st1{fill:url(#SVGID_1_);} .st2{fill:url(#SVGID_00000170266319236252548410000003227416759886570422_);} .st3{fill:url(#SVGID_00000138538720038936990840000000617232602338682024_);} .st4{fill:url(#SVGID_00000159443209481649649930000010647156927116336006_);} .st5{fill:url(#SVGID_00000075863725159422469320000002325051319207314607_);} .st6{fill:url(#SVGID_00000021807414797195694700000007599525688267243182_);} .st7{fill:url(#SVGID_00000096053271934889917180000008642836220034362043_);} .st8{fill:url(#SVGID_00000170988822743479603100000010269219974846751637_);} .st9{fill:url(#SVGID_00000114047358149942071170000006796633706427182227_);} .st10{fill:url(#SVGID_00000070802188480021450320000008973029500196342144_);} .st11{fill:#3D3F3F;} </style> <g> <path class="st0" d="M25.3,52.6c-4.9,0-8.9-3-9.9-8c-1.2,0.2-2.4,0.3-3.7,0.3c-5.6,0-11.3-2.9-11.3-9c0-7.1,6.8-12.4,15.2-12.4 c2.3,0,5.1,0.6,7.3,2c5-4.9,12.3-9.1,20-8.9c1.9,0,3.8,0.5,5.2,1.3c0.7-0.4,1.8-0.8,2.7-1.1c0.3-0.1,0.5-0.1,0.5,0 c0,0-0.3,0.1-0.5,0.1C50,17,49.2,17.5,48.4,18c1.3,0.9,2.1,2.1,2.2,3.7c0.1,2.7-2.2,4.8-4.5,6.2c-1.6,0.9-3.5,1.5-4.7,1.8 c2.8,0.2,4.6,2,4.6,4.1c0,0.5-0.1,0.9-0.2,1.4c0.7-0.1,1.4-0.1,2,0c0.5,0.1,0.6,0.2,0.6,0.3c0,0.1-0.2,0-0.7,0c-0.6,0-1.3,0-2,0 c-1.3,4-7.1,8.1-11.2,8.1c-1.2,0-2.5-0.4-2.5-1.7c0-1.9,3.3-3.8,7-5.2c1.4-0.5,3-0.9,4.5-1.2c0.3-0.8,0.4-1.5,0.4-2.2 c0-1.9-1-3.3-3.1-3.3c-0.8,0-1.5,0.4-2.3,0.5c-0.4,0.1-0.8,0-0.8-0.4c0-0.4,0.3-0.5,1-0.6c1.7-0.2,3.3-0.2,5.2-1.2 c2.7-1.4,4.8-3.8,4.8-7c0-1.2-0.5-2.2-1.3-2.9c-3.7,2.6-7,6.5-10.8,11.4c-5.5,7-12,12.8-20.2,14.5c0.9,4.8,4.3,7.8,8.8,7.8 c1.9,0,3.2-0.2,4.8-1.1c0.5-0.3,0.6-0.4,0.6-0.3c0,0.1,0,0.2-0.5,0.5C29,52.2,27.3,52.6,25.3,52.6L25.3,52.6L25.3,52.6z M11.7,44.5 c1.2,0,2.4-0.1,3.6-0.3c-0.1-0.6-0.2-1.5-0.2-2.3c0-6.6,3.2-11.8,7.3-16c-2-1-4.5-1.5-6.8-1.5C7.7,24.4,1,29.2,1,35.8 C1,41.6,6.2,44.5,11.7,44.5C11.7,44.5,11.7,44.5,11.7,44.5z M34.9,29.4c4.2-4.8,8.1-8.8,12.4-11.2c-1.1-0.9-2.6-1.3-4.3-1.4 c-7.5-0.2-14.9,3.9-19.6,8.9c1.9,1.3,3.3,3.1,3.3,5.7c0,1.9-0.6,3.5-1.5,4.5c-0.1,0.2-0.4,0.3-0.5,0.3c0,0,0.2-0.3,0.3-0.4 c0.9-1.3,1.3-2.5,1.3-4.3c0-2.4-1.3-4.1-3.3-5.3c-4,4.4-6.5,9.3-6.5,15.6c0,0.8,0,1.5,0.1,2.2C24,42.2,28.8,36.3,34.9,29.4z M35.2,43.1c3,0,6.9-3.8,8.3-7.3c-1.5,0.3-3.1,0.8-4.3,1.2c-3.3,1.3-5.5,3.2-5.5,4.7C33.7,42.6,34.3,43.1,35.2,43.1L35.2,43.1z"></path> <path class="st0" d="M44.4,43.5c-0.5,0-0.8-0.1-0.5-0.6c0.4-0.7,1-1.8,1.8-2.7c0.6-0.8,1.3-1.7,2.1-2.5c0.5-0.6,1-1,1.8-1 c0.8,0,0.9,0.1,0.4,0.6c-0.7,0.7-1.1,1.3-1.5,1.8c-0.3,0.5-0.8,1.1-1.2,1.5l0.1,0.1c0.4-0.4,1.5-1.5,2.3-2.2c0.8-0.7,2.5-1.9,3.7-2 c0.8,0,1.3,0.3,1.2,1c-0.2,0.8-1.6,2.2-2.3,1.5c-0.3-0.3,0.2-0.8,0.5-1.3c0.1-0.2,0.1-0.4-0.1-0.5c-0.2-0.1-0.7,0.1-0.9,0.2 c-0.7,0.3-1.4,0.9-2.4,1.8c-1.1,1-2.5,2.3-4,3.7C45.1,43.5,44.8,43.5,44.4,43.5L44.4,43.5L44.4,43.5z"></path> <path class="st0" d="M60,41.6c0.7-0.5,1.6-1.2,2.3-1.8c0.2-0.2,0.3-0.2,0.4-0.2c0.1,0.1-0.1,0.3-0.3,0.5C62,40.6,60.7,41.6,60,42 c-1.6,1.1-3,1.6-4.3,1.6c-1.4,0-2.1-0.5-2-1.5c0-0.8,0.4-1.5,1.2-2.4l0,0c-0.1,0.1-0.5,0.5-0.8,0.7c-0.2,0.2-0.3,0.2-0.4,0.1 c-0.1-0.1,0.1-0.3,0.2-0.4c0.5-0.5,0.8-0.7,1.4-1.2c0.4-0.3,1.2-0.8,1.9-1.2c1.1-0.6,2.3-1.1,3.3-1.1h0c0.8,0,1.2,0.5,1.1,1 c-0.1,1-1.3,1.8-2.5,2.3c-1.1,0.5-2.4,1-3.3,1.2c-0.2,0.3-0.2,0.7-0.2,0.9c0,0.6,0.3,0.9,0.9,0.9C57,43,58.3,42.8,60,41.6z M58.7,39.7c1-0.7,1.5-1.5,1.6-2c0-0.3-0.1-0.5-0.5-0.5c-0.3,0-0.9,0.4-1.7,1.1c-0.6,0.6-1.6,1.8-2,2.6 C56.9,40.6,57.9,40.2,58.7,39.7z"></path> <path class="st0" d="M72.1,36.7c0.8,0,0.9,0.2,0.5,0.6c-0.5,0.6-1.3,1.5-2.2,2.5c-0.5,0.6-1,1.3-1.3,1.9c-0.3,0.5-0.3,0.8-0.1,0.9 c0.2,0.2,0.6,0,0.9-0.2c0.4-0.2,1.1-0.7,1.7-1.2c0.8-0.7,1.4-1.2,1.8-1.6c0.2-0.2,0.4-0.4,0.5-0.3c0.1,0.1-0.1,0.3-0.5,0.7 c-0.5,0.5-1.4,1.3-2.2,1.8c-0.8,0.6-2,1.5-3.3,1.5c-0.7,0-1.1-0.3-1.1-0.8c0-0.4,0.2-1,0.5-1.4l0,0c-1,0.9-2.8,2.2-4.2,2.2 c-0.8,0-1.7-0.3-1.6-1.5c0.1-0.6,0.4-1.2,1.1-2l0,0c-0.1,0.1-0.3,0.3-0.5,0.5c-0.2,0.1-0.3,0.2-0.3,0.1c-0.1-0.1,0.1-0.3,0.5-0.7 c0.1-0.1,0.8-0.7,1.2-0.9c0.4-0.3,1-0.7,1.8-1.1c1.5-0.8,2.8-1.2,3.8-1.1c0.8,0.1,1,0.8,0.8,1.5C70.8,37.2,71.5,36.7,72.1,36.7z M65.4,39.5c-1.6,1.5-2.2,2.5-2.2,3c0,0.3,0.2,0.4,0.5,0.4c0.7,0,2.2-0.8,3.2-1.8c1.2-1.1,2.6-2.7,2.7-3.3c0-0.5-0.3-0.7-0.7-0.7 C68.2,37.1,66.8,38.1,65.4,39.5z"></path> <path class="st0" d="M75.6,39.6c-0.2,0.1-0.3,0.2-0.4,0c0-0.1,0-0.2,0.2-0.3c0.4-0.2,1-0.6,1.6-1.1c0.7-0.5,1.4-1.1,2.3-1.8 c0.1-0.2,0.3-0.5,0.6-0.7c0.4-0.3,0.8-0.4,1.1-0.4c0.9,0,0.3,0.5-0.2,0.8c-0.3,0.2-0.7,0.4-0.9,0.6c-0.3,0.3-0.3,0.6-0.3,1 c0,1.1,0.1,2.1-0.3,3.2C79,41.4,78.6,42,78,42.5c-1,0.9-2.2,1.2-3.3,1.2h0c-2,0-2.4-1.2-2.3-2.3c0.2-1.1,1-2,2-2 c0.5,0,0.8,0.4,0.7,0.8c-0.1,0.4-0.3,0.7-0.8,1c-0.3,0.2-0.8,0.6-0.9,1.2c0,0.6,0.4,1,1.1,1c0.8,0,1.7-0.6,2.6-2.1 c0.7-1.1,1.4-3.4,1.8-3.9v0c-0.4,0.4-1.2,1-1.8,1.5C76.5,39,75.9,39.4,75.6,39.6z"></path> <path class="st0" d="M82.4,43.5L82.4,43.5c-0.9,0-1.2-0.5-1.2-1.1c0.1-1,1-2.5,2-3.8c0.3-0.5,0.9-1.2,1.1-1.4c-0.5,0-1.3,0-1.4,0 c-0.2,0-0.5,0-0.4-0.2c0-0.2,0.5-0.2,1-0.2c0,0,0.8,0,1.1,0c1.2-1.5,2.8-3.2,3.6-4c0.7-0.7,1.6-1.6,2.4-1.6c0.4,0,0.6,0.1,0.6,0.2 C90.9,31.9,89.9,33,89,34s-1.6,1.8-2.3,2.8c0.8,0,1.6,0,2.2,0c0.5,0,0.6,0.1,0.5,0.2c-0.1,0.2-0.4,0.2-0.7,0.2c-0.8,0-1.5,0-2.3,0 c-0.8,0.9-2.1,2.9-2.8,4.2c-0.2,0.4-0.3,1,0,1.1c0.2,0.1,0.7,0,1-0.2c0.5-0.2,1.1-0.7,1.7-1.2c0.7-0.5,1.4-1.2,1.8-1.5 c0.2-0.2,0.4-0.4,0.5-0.3c0.1,0.1,0,0.2-0.3,0.5c-0.4,0.4-1.5,1.4-2.3,2C85.2,42.5,83.9,43.5,82.4,43.5z"></path> <path class="st0" d="M102.3,48c-0.2-1-0.1-2.1,0-3.2c-2.1,0-5-1.2-5-4.5c0-4.2,2.5-8.3,5.4-11.7c-0.3,0-0.7,0-1,0 c-9.9,0-21.8-4.4-21.8-14.4c0-9.1,10-13.6,18.4-13.6c6.3,0,13.2,2.7,13.2,8.5c0,5.9-6.3,9-11.4,9c-1.2,0-2.4-0.2-3.2-0.8 c0.8,0.3,1.9,0.4,3.2,0.4c5,0,11-3.1,11-8.7c0-5.5-6.8-8.1-12.7-8.1c-8.1,0-17,4.7-17,13.4c0,10.2,10.6,13.9,20.6,13.9 c0.4,0,0.8,0,1.2,0c3.5-3.9,13.5-11.4,19.9-11.4c1.6,0,2.5,0.9,2.5,2.1c0,2.3-3.9,5-7.3,6.6c-3.7,1.6-8.4,2.6-12.6,2.9 c-3,3.5-6.3,7.6-6.3,12.4c0,2.4,1.4,3.5,3.2,3.7c0.4-2.2,1.7-5,3.3-7.1c2.3-2.9,5.4-5,7.7-5c1.2,0,2.5,0.5,2.5,2.1 c0,2.5-2.2,4.8-4.7,6.9c-2.5,2-5.7,3.3-8.4,3.3c-0.2,1.1-0.3,2.2-0.2,3.2c0,0.5,0.1,0.5,0,0.5C102.4,48.5,102.3,48.4,102.3,48z M110.8,41c2.6-2.3,4.4-5,4.4-6.8c0-1.1-0.7-1.6-1.8-1.6c-2.1,0-5,2-7.3,4.9c-1.5,1.9-2.8,4.9-3.2,6.8 C105.1,44.4,108.5,43,110.8,41z M117.4,25.3c4.4-2,6.8-4.4,6.8-6.7c0-0.8-0.5-1.5-1.6-1.5c-5,0-13.8,7.5-16.9,10.9 C109.7,27.6,114,26.8,117.4,25.3z"></path> <path class="st0" d="M114.6,41.9c0.1-0.9,0.9-2.3,2.8-3.7c1.3-0.9,3.5-1.8,4.7-1.6c0.8,0.1,1,0.8,0.8,1.5c0.9-1,1.6-1.5,2.2-1.5 c0.8,0,0.9,0.2,0.5,0.6c-0.5,0.6-1.3,1.5-2.2,2.5c-0.5,0.6-1,1.3-1.3,1.9c-0.3,0.5-0.3,0.8-0.1,0.9c0.2,0.2,0.6,0,0.9-0.2 c0.4-0.2,1.1-0.7,1.7-1.2c0.8-0.7,1.4-1.2,1.8-1.6c0.2-0.2,0.4-0.4,0.5-0.3c0.1,0.1-0.1,0.3-0.5,0.7c-0.5,0.5-1.4,1.3-2.2,1.8 c-0.8,0.6-2,1.5-3.3,1.5c-0.7,0-1.1-0.3-1.1-0.8c0-0.4,0.2-1,0.5-1.4l0,0c-1,0.9-2.8,2.2-4.2,2.2C115.3,43.5,114.5,43.2,114.6,41.9 z M118.4,39.5c-1.6,1.5-2.2,2.5-2.2,3c0,0.3,0.2,0.4,0.5,0.4c0.7,0,2.2-0.8,3.2-1.8c1.2-1.1,2.6-2.7,2.7-3.3c0-0.5-0.3-0.7-0.7-0.7 C121.2,37.1,119.8,38.1,118.4,39.5z"></path> <path class="st0" d="M133.2,42.5c0-0.8,0.9-1.8,1.6-2.7c0.6-0.7,1.1-1.3,1.6-1.9c0.1-0.2,0.2-0.4,0-0.5c-0.2-0.1-0.6,0-1,0.2 c-0.7,0.3-1.8,1-3,2c-1.7,1.3-2.6,2.2-4.3,3.5c-0.3,0.3-0.6,0.3-1,0.3c-0.5,0-0.8-0.1-0.5-0.6c0.3-0.5,1.1-1.8,1.7-2.6 c0.4-0.6,1.1-1.5,1.5-2c0.3-0.3,0.4-0.5,0.3-0.7c-0.1-0.2-0.4-0.1-0.6,0c-0.5,0.2-1,0.7-1.5,1c-0.5,0.4-1.1,1-1.7,1.5 c-0.4,0.3-0.5,0.5-0.7,0.3c-0.1-0.1,0.1-0.3,0.6-0.7s1.3-1.2,2-1.8c1-0.8,1.8-1.3,2.6-1.3c0.7,0,1,0.4,1,0.8c0,0.5-0.3,1-0.8,1.7 c-0.6,0.8-1.4,1.8-1.8,2.4l0,0c0.9-0.8,2.2-1.9,3.5-2.9s3-2.1,4.2-2.1c0.8,0,1.3,0.4,1.2,1c-0.1,0.7-0.9,1.6-1.5,2.3 c-0.6,0.7-1.1,1.4-1.3,1.7c-0.3,0.5-0.3,0.7-0.1,0.8c0.2,0.2,0.6,0,0.9-0.2c0.5-0.2,1-0.5,1.8-1.2c0.6-0.5,1.4-1.2,1.8-1.6 c0.3-0.3,0.4-0.3,0.5-0.2s0,0.2-0.3,0.5c-0.4,0.3-1.5,1.4-2.3,2c-0.8,0.6-2.3,1.5-3.5,1.5C133.7,43.5,133.2,43.1,133.2,42.5z"></path> <path class="st0" d="M141.5,43.6c-1.4,0-2.1-0.6-2-1.6c0.1-0.8,0.5-1.6,1.1-2.3l0,0c-0.1,0.1-0.4,0.4-0.6,0.6 c-0.2,0.2-0.4,0.3-0.5,0.2c-0.1-0.1,0.1-0.3,0.2-0.4c0.5-0.5,0.8-0.7,1.4-1.2c0.4-0.3,1.2-0.8,1.8-1.2c1.3-0.7,2.5-1.2,3.5-1 c0.9,0.2,1.2,0.7,1,1.5c-0.1,0.7-0.8,1.3-1.3,1.3c-0.6,0-0.6-0.5-0.3-1.1c0.4-0.7,0.6-1.2,0.1-1.3c-0.4-0.1-1.3,0.5-2.4,1.6 c-1,1-2,2.5-2.1,3.4c-0.1,0.6,0.3,0.9,0.9,0.9c0.5,0,1.8-0.2,3.5-1.4c0.7-0.5,1.7-1.3,2.3-1.8c0.2-0.2,0.4-0.2,0.4-0.2 c0.1,0.1-0.1,0.3-0.3,0.5c-0.5,0.5-1.6,1.4-2.3,1.8C144.6,42.9,142.8,43.6,141.5,43.6L141.5,43.6L141.5,43.6z"></path> <path class="st0" d="M153.9,41.6c0.7-0.5,1.6-1.2,2.3-1.8c0.2-0.2,0.4-0.2,0.4-0.2c0.1,0.1-0.1,0.3-0.3,0.5 c-0.5,0.5-1.7,1.5-2.4,1.9c-1.6,1.1-3,1.6-4.3,1.6c-1.4,0-2.1-0.5-2-1.5c0-0.8,0.4-1.5,1.1-2.4l0,0c-0.1,0.1-0.5,0.5-0.8,0.7 c-0.2,0.2-0.3,0.2-0.4,0.1c-0.1-0.1,0.1-0.3,0.2-0.4c0.5-0.5,0.9-0.7,1.4-1.2c0.4-0.3,1.1-0.8,1.9-1.2c1.1-0.6,2.3-1.1,3.3-1.1h0 c0.9,0,1.1,0.5,1.1,1c-0.1,1-1.3,1.8-2.5,2.3c-1.1,0.5-2.4,1-3.3,1.2c-0.1,0.3-0.2,0.7-0.2,0.9c0,0.6,0.3,0.9,0.9,0.9 C150.9,43,152.3,42.8,153.9,41.6z M152.6,39.7c1-0.7,1.5-1.5,1.6-2c0-0.3-0.1-0.5-0.5-0.5s-0.9,0.4-1.7,1.1c-0.6,0.6-1.6,1.8-2,2.6 C150.8,40.6,151.8,40.2,152.6,39.7z"></path> <path class="st0" d="M159.6,42.1c-0.1,0.3-0.2,0.7-0.1,1c0.1,0.3,0.4,0.5,0.9,0.5c0.9,0.1,2.4-0.1,3.6-0.4c1.5-0.4,2.8-1.1,3.8-1.9 c0.7-0.6,1.5-1.6,1.6-2.6c0.1-1.3-0.7-1.8-1.6-1.8c-1.4,0.1-2.2,0.8-2.5,1.1c-0.1,0.1-0.2,0.2-0.3,0.2c-0.1-0.1,0-0.2,0.1-0.3 c0.3-0.3,1.2-1.2,2.6-1.3c1.2-0.1,2.6,0.5,2.5,2.1c-0.1,1.2-1.1,2.2-2,2.9c-1.1,0.9-2.5,1.5-4.1,1.9c-1.4,0.4-3.1,0.6-4.6,0.5 c-1-0.1-1.8-0.4-1.8-1.3c0-1,0.5-1.8,1.4-2.7c0.6-0.7,2.6-2.1,2.7-2.4c0.1-0.4-0.6-0.3-1.5-0.3c-0.4,0-0.7,0-0.9-0.1 c-0.3,0.3-0.9,0.9-1.5,1.5c-0.6,0.6-1.1,1-1.5,1.4c-0.4,0.3-0.5,0.4-0.6,0.3c-0.1-0.1,0-0.3,0.4-0.6c0.5-0.4,0.8-0.7,1.5-1.4 c0.5-0.5,1-1,1.3-1.3c-0.3-0.2-0.4-0.8,0-1.2c0.3-0.4,0.9-0.7,1.5-0.7c0.3,0,0.6,0.2,0.7,0.4c-0.3,0.2-0.4,0.3-0.6,0.5 c-0.5,0.5-0.4,0.8,0.1,0.8c1.1,0,2.2,0.1,2.2,0.8c0,0.5-1,1.5-1.8,2.3C160.5,40.8,159.9,41.5,159.6,42.1z"></path> </g> <g> <linearGradient id="SVGID_1_" gradientUnits="userSpaceOnUse" x1="61.607" y1="48.6213" x2="70.8744" y2="48.6213" gradientTransform="matrix(1 1.800000e-03 1.800000e-03 -1 116.7272 86.1612)"> <stop offset="0" style="stop-color:#D11A6C"></stop> <stop offset="3.900000e-02" style="stop-color:#D4347D"></stop> <stop offset="0.1193" style="stop-color:#D9629C"></stop> <stop offset="0.1995" style="stop-color:#DD89B6"></stop> <stop offset="0.2785" style="stop-color:#E1A7CA"></stop> <stop offset="0.3557" style="stop-color:#E3BDD8"></stop> <stop offset="0.4305" style="stop-color:#E5CAE1"></stop> <stop offset="0.5" style="stop-color:#E5CEE4"></stop> <stop offset="0.5873" style="stop-color:#E5CBE2"></stop> <stop offset="0.6627" style="stop-color:#E4C0DB"></stop> <stop offset="0.7337" style="stop-color:#E3AECF"></stop> <stop offset="0.802" style="stop-color:#E195BF"></stop> <stop offset="0.8685" style="stop-color:#DF75AA"></stop> <stop offset="0.9334" style="stop-color:#DD4D90"></stop> <stop offset="0.9962" style="stop-color:#DA1F72"></stop> <stop offset="1" style="stop-color:#DA1C70"></stop> </linearGradient> <path class="st1" d="M187.2,36.6c0,0-0.3-0.5-0.8-0.8c-0.6-0.4-1.7-0.8-3.4-0.8c-1.7,0-2.7,0.4-3.4,0.8c-0.5,0.3-0.8,0.8-0.8,0.8 s-1.1,2.2-0.5,3.8c0,0,0.1-2.3,4.6-2.3c4.5,0,4.6,2.3,4.6,2.3C188.4,38.8,187.2,36.6,187.2,36.6z"></path> <linearGradient id="SVGID_00000041264266496137624530000008370227967607836579_" gradientUnits="userSpaceOnUse" x1="66.0742" y1="39.2621" x2="73.9078" y2="46.966" gradientTransform="matrix(1 1.800000e-03 1.800000e-03 -1 116.7272 86.1612)"> <stop offset="0" style="stop-color:#EB77AA"></stop> <stop offset="6.560000e-02" style="stop-color:#E98EB9"></stop> <stop offset="0.166" style="stop-color:#E8AACC"></stop> <stop offset="0.2668" style="stop-color:#E6BED9"></stop> <stop offset="0.3673" style="stop-color:#E5CAE1"></stop> <stop offset="0.467" style="stop-color:#E5CEE4"></stop> <stop offset="0.5762" style="stop-color:#E5CBE2"></stop> <stop offset="0.6579" style="stop-color:#E6C1DC"></stop> <stop offset="0.7307" style="stop-color:#E6B1D2"></stop> <stop offset="0.7983" style="stop-color:#E79BC4"></stop> <stop offset="0.8623" style="stop-color:#E87DB2"></stop> <stop offset="0.9236" style="stop-color:#EA599C"></stop> <stop offset="0.9818" style="stop-color:#EB2F82"></stop> <stop offset="1" style="stop-color:#EC2079"></stop> </linearGradient> <path style="fill:url(#SVGID_00000041264266496137624530000008370227967607836579_);" d="M189.4,43.8c0.7-2.8-0.6-4.5-2.2-7.2 c1.5,2.4-3.9,9.1-3.9,9.1L183,46l2.9,4.2C187,48.7,188.9,45.9,189.4,43.8z"></path> <linearGradient id="SVGID_00000101815155227373841160000006967064888949692830_" gradientUnits="userSpaceOnUse" x1="63.3896" y1="30.6211" x2="67.5541" y2="33.8748" gradientTransform="matrix(1 1.800000e-03 1.800000e-03 -1 116.7272 86.1612)"> <stop offset="0" style="stop-color:#E5CEE4"></stop> <stop offset="0.1219" style="stop-color:#E5C8E1"></stop> <stop offset="0.2788" style="stop-color:#E6B8D7"></stop> <stop offset="0.4548" style="stop-color:#E79EC6"></stop> <stop offset="0.6447" style="stop-color:#E879B0"></stop> <stop offset="0.8436" style="stop-color:#EA4A93"></stop> <stop offset="1" style="stop-color:#EC2079"></stop> </linearGradient> <path style="fill:url(#SVGID_00000101815155227373841160000006967064888949692830_);" d="M180.1,50.2l-6.6,9.3l2,5.4l7.6-10.6 l-2.3-3.2C180.8,51.1,180.5,50.8,180.1,50.2z"></path> <linearGradient id="SVGID_00000043420922803487185730000012706252831045031564_" gradientUnits="userSpaceOnUse" x1="72.3028" y1="29.2413" x2="58.8009" y2="48.4207" gradientTransform="matrix(1 1.800000e-03 1.800000e-03 -1 116.7272 86.1612)"> <stop offset="0.2418" style="stop-color:#E5CEE4"></stop> <stop offset="0.5469" style="stop-color:#E5CCE3"></stop> <stop offset="0.6567" style="stop-color:#E5C5DF"></stop> <stop offset="0.7351" style="stop-color:#E6BAD7"></stop> <stop offset="0.7985" style="stop-color:#E7A9CD"></stop> <stop offset="0.8527" style="stop-color:#E793BF"></stop> <stop offset="0.9008" style="stop-color:#E877AF"></stop> <stop offset="0.9442" style="stop-color:#EA579B"></stop> <stop offset="0.9829" style="stop-color:#EB3385"></stop> <stop offset="1" style="stop-color:#EC2079"></stop> </linearGradient> <path style="fill:url(#SVGID_00000043420922803487185730000012706252831045031564_);" d="M182.8,45.7c0,0-5.4-6.7-3.9-9.2 c-1.7,2.7-2.9,4.4-2.2,7.2c0.7,3,4.1,7.3,4.1,7.3l9.8,13.8l2.1-5.4L182.8,45.7z"></path> <linearGradient id="SVGID_00000108294003264394884370000005411869545962564010_" gradientUnits="userSpaceOnUse" x1="58.4614" y1="28.7328" x2="66.3131" y2="39.1912" gradientTransform="matrix(1 1.800000e-03 1.800000e-03 -1 116.7272 86.1612)"> <stop offset="0" style="stop-color:#E5CEE4"></stop> <stop offset="1" style="stop-color:#EC2079"></stop> </linearGradient> <path style="fill:url(#SVGID_00000108294003264394884370000005411869545962564010_);" d="M173.6,59.8l0.1,0.3l6.7-9.5 c-0.1-0.1-0.1-0.2-0.2-0.2L173.6,59.8z"></path> <linearGradient id="SVGID_00000172431473640687455260000002802349984506914489_" gradientUnits="userSpaceOnUse" x1="66.188" y1="40.7917" x2="72.8424" y2="49.3977" gradientTransform="matrix(1 1.800000e-03 1.800000e-03 -1 116.7272 86.1612)"> <stop offset="0" style="stop-color:#EA5A99"></stop> <stop offset="3.210000e-02" style="stop-color:#E969A3"></stop> <stop offset="0.119" style="stop-color:#E88DBA"></stop> <stop offset="0.2065" style="stop-color:#E7AACD"></stop> <stop offset="0.2938" style="stop-color:#E6BEDA"></stop> <stop offset="0.3807" style="stop-color:#E5CAE1"></stop> <stop offset="0.467" style="stop-color:#E5CEE4"></stop> <stop offset="0.6815" style="stop-color:#E5CCE3"></stop> <stop offset="0.7587" style="stop-color:#E5C5DF"></stop> <stop offset="0.8138" style="stop-color:#E6BAD7"></stop> <stop offset="0.8583" style="stop-color:#E7A9CD"></stop> <stop offset="0.8965" style="stop-color:#E793BF"></stop> <stop offset="0.9302" style="stop-color:#E877AF"></stop> <stop offset="0.9608" style="stop-color:#EA579B"></stop> <stop offset="0.9879" style="stop-color:#EB3385"></stop> <stop offset="1" style="stop-color:#EC2079"></stop> </linearGradient> <path style="fill:url(#SVGID_00000172431473640687455260000002802349984506914489_);" d="M183.4,46.5c0,0,4.6-5.6,4.2-8.4 c-0.1,2.9-4.2,8-4.2,8l-0.2,0.2L183.4,46.5L183.4,46.5z"></path> <linearGradient id="SVGID_00000072962531515431353010000003370621428025851305_" gradientUnits="userSpaceOnUse" x1="67.6788" y1="38.5655" x2="74.9346" y2="49.9509" gradientTransform="matrix(1 1.800000e-03 1.800000e-03 -1 116.7272 86.1612)"> <stop offset="0" style="stop-color:#EE5798"></stop> <stop offset="3.770000e-02" style="stop-color:#ED69A4"></stop> <stop offset="0.1235" style="stop-color:#EA8DBB"></stop> <stop offset="0.2099" style="stop-color:#E8AACD"></stop> <stop offset="0.296" style="stop-color:#E6BEDA"></stop> <stop offset="0.3818" style="stop-color:#E5CAE1"></stop> <stop offset="0.467" style="stop-color:#E5CEE4"></stop> <stop offset="0.6815" style="stop-color:#E5CCE3"></stop> <stop offset="0.7587" style="stop-color:#E5C5DF"></stop> <stop offset="0.8138" style="stop-color:#E6BAD7"></stop> <stop offset="0.8583" style="stop-color:#E7A9CD"></stop> <stop offset="0.8965" style="stop-color:#E793BF"></stop> <stop offset="0.9302" style="stop-color:#E877AF"></stop> <stop offset="0.9608" style="stop-color:#EA579B"></stop> <stop offset="0.9879" style="stop-color:#EB3385"></stop> <stop offset="1" style="stop-color:#EC2079"></stop> </linearGradient> <path style="fill:url(#SVGID_00000072962531515431353010000003370621428025851305_);" d="M189.2,43.7c0.6-2.3-0.2-3.8-1.3-5.8 c1.1,1.8,1.7,3.3,1.2,5.5c-0.5,2.1-2.3,4.8-3.4,6.2l0.2,0.3C186.9,48.5,188.7,45.8,189.2,43.7z"></path> <linearGradient id="SVGID_00000119801163432579241010000010130464000883452320_" gradientUnits="userSpaceOnUse" x1="61.3258" y1="25.6789" x2="69.4599" y2="37.7072" gradientTransform="matrix(1 1.800000e-03 1.800000e-03 -1 116.7272 86.1612)"> <stop offset="0" style="stop-color:#E5CEE4"></stop> <stop offset="1" style="stop-color:#EC2079"></stop> </linearGradient> <polygon style="fill:url(#SVGID_00000119801163432579241010000010130464000883452320_);" points="175.2,64.3 175.4,64.6 182.9,54.1 182.7,53.8 "></polygon> <linearGradient id="SVGID_00000098940101253613890250000002006740078961166486_" gradientUnits="userSpaceOnUse" x1="76.019" y1="26.7153" x2="59.7521" y2="49.6804" gradientTransform="matrix(1 1.800000e-03 1.800000e-03 -1 116.7272 86.1612)"> <stop offset="0" style="stop-color:#EC2079"></stop> <stop offset="4.060001e-02" style="stop-color:#EB3D8B"></stop> <stop offset="0.1114" style="stop-color:#E969A6"></stop> <stop offset="0.183" style="stop-color:#E88DBC"></stop> <stop offset="0.2544" style="stop-color:#E6AACE"></stop> <stop offset="0.3257" style="stop-color:#E6BEDA"></stop> <stop offset="0.3966" style="stop-color:#E5CAE2"></stop> <stop offset="0.467" style="stop-color:#E5CEE4"></stop> <stop offset="0.6815" style="stop-color:#E5CCE3"></stop> <stop offset="0.7587" style="stop-color:#E5C5DF"></stop> <stop offset="0.8138" style="stop-color:#E6BAD7"></stop> <stop offset="0.8583" style="stop-color:#E7A9CD"></stop> <stop offset="0.8965" style="stop-color:#E793BF"></stop> <stop offset="0.9302" style="stop-color:#E877AF"></stop> <stop offset="0.9608" style="stop-color:#EA579B"></stop> <stop offset="0.9879" style="stop-color:#EB3385"></stop> <stop offset="1" style="stop-color:#EC2079"></stop> </linearGradient> <path style="fill:url(#SVGID_00000098940101253613890250000002006740078961166486_);" d="M182.7,46.5l9.7,13.7l0.1-0.3L182.7,46 c0,0-4.1-5.1-4.2-8C178.1,40.9,182.7,46.5,182.7,46.5z"></path> <linearGradient id="SVGID_00000076606043204877440870000014937886258469591440_" gradientUnits="userSpaceOnUse" x1="77.0271" y1="23.5342" x2="56.572" y2="48.5783" gradientTransform="matrix(1 1.800000e-03 1.800000e-03 -1 116.7272 86.1612)"> <stop offset="0" style="stop-color:#EC2079"></stop> <stop offset="4.060001e-02" style="stop-color:#EB3D8B"></stop> <stop offset="0.1114" style="stop-color:#E969A6"></stop> <stop offset="0.183" style="stop-color:#E88DBC"></stop> <stop offset="0.2544" style="stop-color:#E6AACE"></stop> <stop offset="0.3257" style="stop-color:#E6BEDA"></stop> <stop offset="0.3966" style="stop-color:#E5CAE2"></stop> <stop offset="0.467" style="stop-color:#E5CEE4"></stop> <stop offset="0.6815" style="stop-color:#E5CCE3"></stop> <stop offset="0.7587" style="stop-color:#E5C5DF"></stop> <stop offset="0.8138" style="stop-color:#E6BAD7"></stop> <stop offset="0.8583" style="stop-color:#E7A9CD"></stop> <stop offset="0.8965" style="stop-color:#E793BF"></stop> <stop offset="0.9302" style="stop-color:#E877AF"></stop> <stop offset="0.9608" style="stop-color:#EA579B"></stop> <stop offset="0.9879" style="stop-color:#EB3385"></stop> <stop offset="1" style="stop-color:#EC2079"></stop> </linearGradient> <path style="fill:url(#SVGID_00000076606043204877440870000014937886258469591440_);" d="M181.2,50.8c0,0-3.4-4.3-4.1-7.3 c-0.5-2.2,0.1-3.7,1.2-5.5c-1.2,1.9-1.9,3.5-1.4,5.8c0.7,3,4.1,7.3,4.1,7.3l9.6,13.6l0.1-0.3L181.2,50.8z"></path> </g> <g> <path class="st11" d="M26.5,55.2h-6.5v9.8h-1.2V46.5h7.7v1.1h-6.5v6.5h6.5V55.2z"></path> <path class="st11" d="M47.3,55.8c0,2.7-0.9,4.9-2.8,6.7c-1.9,1.8-4.1,2.8-6.8,2.8c-2.6,0-4.9-0.9-6.8-2.8c-1.9-1.8-2.8-4.1-2.8-6.7 c0-2.7,0.9-5,2.7-6.8s4.1-2.7,6.8-2.7s5,0.9,6.8,2.7C46.4,50.8,47.3,53.1,47.3,55.8z M46.1,55.8c0-2.4-0.8-4.4-2.4-6 c-1.6-1.6-3.6-2.4-6-2.4c-2.3,0-4.3,0.8-5.9,2.4c-1.6,1.6-2.4,3.6-2.4,6s0.8,4.3,2.4,6c1.6,1.6,3.6,2.4,5.9,2.4 c2.3,0,4.3-0.8,6-2.4C45.3,60.1,46.1,58.1,46.1,55.8z"></path> <path class="st11" d="M62.5,58.2c0,2.5-0.5,4.3-1.5,5.5s-2.5,1.7-4.7,1.7s-3.7-0.6-4.7-1.7c-1-1.1-1.5-2.9-1.5-5.5V46.5h1.2v12 c0,2,0.4,3.5,1.2,4.3c0.8,0.9,2,1.4,3.8,1.4c1.7,0,3-0.5,3.8-1.3c0.8-0.9,1.2-2.3,1.2-4.3v-12h1.2C62.5,46.5,62.5,58.2,62.5,58.2z"></path> <path class="st11" d="M83,65.5L67.9,49.1v15.9h-1.2v-19l15.1,16.4V46.5H83C83,46.5,83,65.5,83,65.5z"></path> <path class="st11" d="M100.2,55.8c0,3.1-0.9,5.4-2.6,7c-1.7,1.5-4.4,2.3-8,2.3h-2.3V46.5h2.6c3.3,0,5.9,0.8,7.6,2.4 C99.3,50.5,100.2,52.8,100.2,55.8z M99,55.8c0-2.7-0.8-4.7-2.3-6.1s-3.9-2.1-6.9-2.1h-1.2v16.3h0.9c3.4,0,5.9-0.7,7.4-2 C98.2,60.7,99,58.6,99,55.8z"></path> <path class="st11" d="M116,65.1h-1.2l-2.6-6.5h-7.7l-2.6,6.5h-1.3l7.7-19L116,65.1z M111.8,57.5l-3.4-8.7l-3.4,8.7H111.8z"></path> <path class="st11" d="M125,47.6h-4.5v17.4h-1.2V47.6h-4.5v-1.1h10.1L125,47.6L125,47.6z"></path> <path class="st11" d="M128.1,65.1h-1.2V46.5h1.2V65.1z"></path> <path class="st11" d="M150.1,55.8c0,2.7-0.9,4.9-2.8,6.7c-1.9,1.8-4.1,2.8-6.8,2.8c-2.6,0-4.9-0.9-6.8-2.8 c-1.9-1.8-2.8-4.1-2.8-6.7c0-2.7,0.9-5,2.7-6.8s4.1-2.7,6.8-2.7s5,0.9,6.8,2.7C149.2,50.8,150.1,53.1,150.1,55.8z M149,55.8 c0-2.4-0.8-4.4-2.4-6c-1.6-1.6-3.6-2.4-6-2.4c-2.3,0-4.3,0.8-5.9,2.4c-1.6,1.6-2.4,3.6-2.4,6s0.8,4.3,2.4,6 c1.6,1.6,3.6,2.4,5.9,2.4s4.3-0.8,6-2.4C148.1,60.1,149,58.1,149,55.8z"></path> <path class="st11" d="M169.6,65.5l-15.1-16.4v15.9h-1.2v-19l15.1,16.4V46.5h1.2V65.5z"></path> </g> <g> <path class="st11" d="M9.2,14H7.6v6.2H7.2V14H5.6v-0.4h3.6C9.2,13.6,9.2,14,9.2,14z"></path> <path class="st11" d="M12.9,20.1h-0.4v-2.5c0-0.4-0.1-0.8-0.2-1s-0.4-0.3-0.8-0.3c-0.4,0-0.7,0.1-0.9,0.4c-0.2,0.3-0.3,0.8-0.3,1.4 v1.9H9.9v-7.2h0.4v3.8c0.1-0.3,0.3-0.5,0.5-0.6s0.5-0.2,0.8-0.2c0.4,0,0.7,0.1,0.9,0.4c0.2,0.3,0.3,0.6,0.3,1.1L12.9,20.1 L12.9,20.1z"></path> <path class="st11" d="M17.6,18.1h-3.4c0,0.6,0.1,1,0.4,1.3c0.3,0.3,0.6,0.5,1.1,0.5c0.3,0,0.6-0.1,0.8-0.2c0.2-0.1,0.4-0.4,0.6-0.7 l0.3,0.2c-0.2,0.4-0.4,0.6-0.7,0.8c-0.3,0.2-0.6,0.3-1,0.3c-0.6,0-1-0.2-1.4-0.6c-0.3-0.4-0.5-0.9-0.5-1.6c0-0.6,0.2-1.1,0.5-1.5 c0.4-0.4,0.8-0.6,1.3-0.6c0.6,0,1,0.2,1.4,0.5s0.5,0.8,0.5,1.4L17.6,18.1L17.6,18.1z M17.1,17.7c0-0.4-0.2-0.7-0.4-1 s-0.6-0.4-1-0.4c-0.4,0-0.7,0.1-1,0.4c-0.3,0.2-0.4,0.6-0.5,1H17.1z"></path> </g> </svg> 