<?xml version="1.0" encoding="UTF-8"?>
<svg id="Layer_1" xmlns="http://www.w3.org/2000/svg" xmlns:xlink="http://www.w3.org/1999/xlink" version="1.1" viewBox="0 0 400 400">
  <!-- Generator: Adobe Illustrator 29.3.0, SVG Export Plug-In . SVG Version: 2.1.0 Build 146)  -->
  <defs>
    <style>
      .st0 {
        fill: none;
      }

      .st1 {
        fill: #000001;
      }

      .st2 {
        clip-path: url(#clippath);
      }
    </style>
    <clipPath id="clippath">
      <rect class="st0" x="153.27" y="11.35" width="168.78" height="366.72"/>
    </clipPath>
  </defs>
  <g class="st2">
    <path class="st1" d="M321.95,303.11c.64,3.59-2.3,6.59-4.86,8.66-5.74,4.14-13.35,3.72-19.97,2.43-3.37-.69-6.68-1.66-9.88-2.95l.27-.15c-.47,2.47-.25,5.12.9,7.36,1.1,2.35,3.32,3.8,4.92,5.8,2.51,3.12,1.32,8.52-2.25,10.34-5.24,1.86-12.07-7.61-14.45-11.51-2.68-4.4-4.77-9.12-6.54-13.95l.58.16c-6.57,5.37-14.9,8.54-23.4,8.89l.21-.92c3.1,1.61,4.98,5.33,4.18,8.78-.75,3.47-3.99,6.08-7.5,6.3l.08-1.15c4.38.8,8.43,4.79,7.89,9.48-.43,4.6-4.42,8.23-8.86,8.92l.37-.18c-3.68,3.51-6.63,7.79-8.53,12.5-2.04,4.98-2.88,10.41-2.59,15.76h-.9s-13.17.07-13.17.07h-1.68s.89-1.43.89-1.43c6.06-9.43,5.62-21.99-.45-31.29l1.91-.37c-.8,4.53-2.15,9-3.76,13.27-.64,1.65-1.29,3.46-2.53,4.87-4.19,4.06-11.13,3.04-15.76.15-4.63-2.97-2.23-7.77,1.73-9.92,1.94-1.27,4.54-.3,5.99-1.85.55-.6.89-1.48,1.05-2.46l1.64,1.3c-4.82,2.26-11.79-1.5-10.35-7.28.38-1.7,1.36-3.18,2.63-4.28l.85,2.12c-4.05.24-8.14-1.56-10.71-4.69l2.13-.6c-2.08,14.65-6.67,28.94-13.49,42.07l-.35.66h-.75s-20.52.06-20.52.06h-3.02s2.15-2.13,2.15-2.13c18.4-18.16,20.04-47.16,3.64-67.15l.62.4-5.97-1.71-.89-.25v-.92c0-.17-.2-111.84-.2-111.99,1.14-4.13,5.13-7.2,9.42-7.21l-.94.6c1.19-2.37,1.03-5.63-1.35-7.2l1.17.03c-3,1.99-7.3.36-8.24-3.11-.03-9.25,7.53-16.63,16.91-14.9,2.8.5,5.43,1.8,7.57,3.64l-1.52.52,1.04-5.11.37.92c-6.8-4.89-14.85-8.01-23.17-9.04v-.75s1.86-121.34,1.86-121.34v-.15s.09-.13.09-.13l2.11-3.35c2.31-4.88,5.67-10.52,10.31-14.01,11.35-8.83,16.36,9.47,12.07,17.62-1.78,3.61-4.78,6.24-7.38,9.03-8.24,8.18-12.79,19.36-13.57,30.89l-.14-.31c6.78,5.37,12.06,12.63,14.98,20.77l-.7-.09c6.11-9.11,14.58.52,15.75,7.97l-.57-.31c4.36-1.62,8.4-4.28,11.1-8.07,1.45-1.9,2.35-4.13,4.08-5.88,2.7-2.61,7.76-2.69,10.3.19,2.37,3.04,1.62,7.25.89,10.68-.52,2.84-2.02,5.58-2.67,8.33-.04,1.42,2.74.28,3.65-.09l-.32.69c-2.28-7.46,2.89-17.3,10.93-9.8,2.68,2.45,2.87,6.37,3.51,9.65.59,3.3,1.67,6.36,3.08,9.4,1.06,2.11,1.73,4.59,4.16,5.17,2.31.55,4.59-.47,6.7-1.52,4.6-2.18,8.43-6.26,13.63-7.09,4.66-.24,4.86,5.65,4.41,8.94l-.52-.88c2.94,1.34,5.99,3.67,6.54,7.11.64,5-5.19,10.46-9.36,12.43l.35-1.41c3.29,4.25,4.12,10.86.24,15.04-3.6,4.12-9.42,5.54-14.65,4.58l.85-1.73c6.73,5.84,9.27,16.11,4.85,24.07,0,0-.61-1.47-.61-1.47,5.47,1.66,11.35,2.31,16.93.94,4.07-1.02,9.44-3.46,13.65-.7,1.52.96,2.63,2.36,3.42,3.86.14,2.01-.05,4.19-1.2,6.11-2.1,3.48-6.67,3.65-9.93,5.41-1.62.73-3.21,1.55-4.74,2.45l-.04-1.8c6.27,3.36,6.18,10.25-.11,13.48-1.65.86-3.51,1.2-5.33,1.2l.99-1.07c.28,3.76,1.96,7.43,5.32,9.32,1.77,1.05,4.03,1.79,5.2,3.78,1.7,3.06,1.35,7.52-1.83,9.44-3.24,1.58-6.71-.41-9.43-1.89-3.7-2.2-6.31-5.81-7.86-9.67l1.65-.22c-1.4,11.44-6.57,22.36-14.49,30.71l-.92-1.04c2.81-2.01,5.99-3.56,9.41-4.22,7.01-1.59,16.4,1.5,13.97,10.32-.85,3.41-2.72,6.42-5.04,8.95l.13-.39c.34,3.83,2.12,7.53,5.04,10.06,2.89,2.55,6.8,3.86,10.65,3.91l-.35.21c2.04-3.41,4.4-7.3,8.32-8.84,6.18-1.77,6.09,10.69,4.57,14.23-1.02,3.11-2.75,5.94-4.85,8.42l-.18-.4c7.2.43,14.28-2.32,19.28-7.51,2.93-3.01,5.55-3.92,6.81.99.96,4.13-.84,8.61-4.45,10.86-1.73,1.17-3.73,1.86-5.77,2.2l-.03-.32c6.3-.12,20.19-.22,22.71,6.7M321.72,303.17c-2.53-6.73-16.35-6.58-22.46-6.43l-.03-.32c2-.34,3.95-1.02,5.63-2.17,4.23-2.58,6.13-9.08,3-13.13-.72-.74-1.75-.67-2.56-.09-1.66,1.13-3.03,2.74-4.62,4.01-4.73,4.1-11.09,5.9-17.28,5.63l-.49-.02.32-.38c3.07-3.64,5.37-8.14,5.55-12.95-.22-14.46-7.89-8.76-12.52-.16l-.11.21c-2.12.03-4.21-.33-6.21-1.01-5.89-1.93-10.2-7.5-10.72-13.66,0,0-.02-.22-.02-.22l.15-.17c3.83-4.14,8.25-12.99,1.54-16.45-5.96-2.84-13.22-.56-18.31,3.2l-.92-1.04c7.63-8.2,12.55-18.84,13.8-29.97l.38-3.29,1.27,3.07c1.48,3.59,3.92,6.81,7.2,8.76,2.32,1.22,5.12,2.92,7.62,1.82,2.14-1.3,2.27-4.85,1.09-6.83-.81-1.41-2.69-2.02-4.56-3.11-3.87-2.11-6.01-6.54-6.31-10.8l-.1-1.07h1.09c6.67.13,11.78-6.87,4.45-10.89l-1.58-.89,1.54-.91c3.15-1.89,6.61-3.42,10.07-4.61,1.59-.57,2.98-1.11,3.83-2.58.78-1.3.99-2.97.89-4.65l.13.45c-1.23-2.38-3.48-3.93-6.19-3.83-2.68.04-5.42,1.2-8.38,1.91-6.38,1.57-13.07.63-19.22-1.37,4.64-7.52,2.73-16.95-3.78-22.72l-2.56-2.33,3.42.6c11.13,1.98,19.82-7.65,11.86-17.45,3.89-1.61,7.26-4.65,9.08-8.44,1.63-3.65-1.96-6.92-5.09-8.3l-.59-.27.07-.61c.18-2.54.77-7.09-2.61-7.12-4.73.88-8.65,4.79-13.02,6.82-6.27,3.19-10.38,2.45-12.86-4.44-1.41-3.07-2.54-6.39-3.1-9.73-.64-3.3-.71-6.83-3.08-8.99-4.67-4.38-8.42-2.3-9.33,3.82-.28,1.74-.05,3.55.52,5.22-1.51.52-3.9,1.82-5.3.39-.74-.98-.14-2.17.16-3.07,1.72-4.25,3.37-8.87,2.85-13.48-.34-4.98-6.93-6.24-10.15-3.14-1.61,1.64-2.57,3.9-3.99,5.75-2.93,4.09-7.34,6.88-12,8.51-.83-6.68-8.54-16.88-14.35-8.19l-.44.65-.26-.74c-2.85-8.02-8.02-15.18-14.69-20.48l-.15-.12v-.19c.59-7.73,2.62-15.45,6.58-22.19,1.96-3.37,4.44-6.42,7.1-9.24,2.62-2.83,5.55-5.44,7.2-8.84,3.84-7.02-.36-24.7-10.64-16.41-4.52,3.53-7.57,8.6-9.98,13.75-.02,0-2.1,3.37-2.12,3.39.2-1.58-1.22,121.45-1.18,121.06l-.73-.85c8.53,1.12,16.77,4.41,23.74,9.47l-.11.58c-.27,1.26-1.07,5.53-1.31,6.67-2.2-2.04-4.89-3.74-7.89-4.2-8.05-1.47-14.57,4.92-14.54,12.85l-.05-.29c.15.46.46.97.82,1.34,1.31,1.45,3.46,1.22,4.89.1l.57.4c3.45,2.27,3.68,7.06,1.79,10.43h-.67c-1.63.05-3.27.61-4.57,1.6-1.3.98-2.29,2.41-2.76,3.97l.05-.32.49,111.83-.89-1.18,5.97,1.7.37.11.25.3c12.51,14.98,15.66,37.01,7.21,54.69-2.7,5.87-6.43,11.24-11.03,15.81l-.87-2.13,20.52-.03-1.09.66c6.7-12.89,11.22-26.9,13.28-41.28l.39-2.7c1.52,1.85,3.31,4.17,5.65,5.05,2.39,1.3,5.72.78,8.32.7l-2.65,2.29c-4.67,4.08-.17,9.69,5.23,7.53l1.99-.81c-.29,1.78-.52,4.3-1.99,5.79-.88,1.06-2.53,1.65-3.81,1.69-1.18.09-2.03.19-2.86.63-.82.43-1.61,1.09-2.19,1.85-.59.74-.97,1.67-.87,2.23.1.56.76,1.32,1.56,1.87,3.28,2.1,8.17,3.05,11.73,1.09,1.64-.82,2.4-2.92,3.21-4.99,1.98-5.01,3.37-10.23,4.23-15.53,7.53,10.63,8.89,24.49,1.69,35.68l-.79-1.43,13.17.07-.87.89c-.13-5.31.85-10.64,2.89-15.53,2.06-4.96,5.24-9.44,9.18-13.08,9.61-1.48,11.24-13.55,1.17-15.89l-4.07-.88,4.14-.27c7.1-.49,9.21-9.61,2.93-13.06l-1.58-.86,1.79-.06c8.47-.27,16.81-3.42,23.38-8.82,2.61,7.33,5.83,14.64,10.98,20.56,1.67,1.87,3.57,3.65,5.81,4.8,1.1.55,2.39.89,3.49.38,3.26-1.65,4.41-6.73,2.08-9.61-1.57-1.98-3.84-3.5-4.94-5.89-1.22-2.42-1.41-5.25-.86-7.86,9.1,3.45,21.06,6.62,29.76.75,2.5-1.95,5.39-4.96,4.8-8.38"/>
    <path class="st1" d="M214.38,206.88c-1.21,2.26-1.12,4.99-.73,7.41l-.28-.7c3.23,3.15,7.59.32,9.37-3.01,0,0,.04.73.04.73-1.29-2.96-1.41-6.22-.95-9.37.16-1.05.41-2.11.83-3.12l1.09,1.32c-3.37,1.75-7.48,3.17-9.38,6.73M214.17,206.77c2.82-5.35,5.07-7.95,11.36-8.87-1.48,2.14-3.25,4.47-3.22,7.2-.04,2.07.81,4.07,2.07,5.67-.74,2.63-2.51,4.99-5.07,6.17-2.73,1.4-6.23.25-7.84-2.27.14-2.84,1.43-5.45,2.7-7.89"/>
    <path class="st1" d="M212,233.44c-.25,1.76,1.04,3.47,1.3,5.14l-2.21-.56c1.41-1.83,3.49-4.12,2.85-6.63-.26-.85-.88-1.54-1.3-2.22l1.84.09c-.55,1.53-2.26,2.51-2.48,4.17M211.77,233.4c.3-1.64-.29-3.74.92-5.19l1.23-1.69.61,1.78c.5,1.95.1,3.83.4,5.82.19,2.01-.59,4.07-1.92,5.59l-1.7,1.86-.5-2.42c-.62-1.96.56-3.96.96-5.76"/>
    <path class="st1" d="M204.3,115.71c-1,.91-.98,2.49-.87,3.68l-1.21-1.28c1.58-.46,3.59,0,4.79,1.13.61.53,1.06,1.05,1.43,1.39.33.33.78.58,1.39.49l-.26.72c-.25-.7-.49-1.38-.76-2.05l-.87-2.04c-.6-1.17-1.14-1.81-1.88-2.94l.59.07c-.84-.02-1.75.21-2.36.83M204.13,115.54c.68-.61,1.33-1.36,2.18-1.97l.49.15c1.61.38,2.94,2.1,2.71,3.78-.08.74-.15,1.38.02,2.06.18.82.67,1.53,1.22,2.16l-.56.35c-.7.43-1.78.59-2.66.21-1.41-.64-2.03-1.47-3.39-1.72-.87-.22-2.34-.29-3.29-.4l.39-1.13c.5-1.48,1.84-2.47,2.88-3.48"/>
    <path class="st1" d="M186.95,130.81c-.13,1.6.51,3.18,1.53,4.4l-.39-.14c3.88-1.71,8.88-1.54,12.22,1.4,3.48,2.79,4.97,7.48,4.5,11.8l-2.1-.51c.96-2.22,2.54-4.24,4.37-5.76,2-1.47,2.61-3.23,1.3-5.38-1.41-1.88-3.6-3.84-5.84-4.98-1.71-.86-3.97-2.07-4.84-4.09-.49-.8-.58-2-.79-2.76-.32-.36-.98-.43-1.65-.41-3.53.23-7.83,2.54-8.3,6.43M186.71,130.79c.62-4.11,4.3-7.48,8.34-8.32,1.2-.23,2.94-.02,3.72,1.29.53,1.12.32,1.95.78,2.94.69,1.77,2.04,2.7,3.66,3.9,2.15,1.68,4.1,3.56,5.81,5.64,1.04,1.47,1.51,3.84.25,5.42-1.79,2.2-3.64,4.32-4.55,6.96l-2.49,6.55.38-7.06c.53-7.85-6.62-14.15-14.31-12.36,0,0-.28.06-.28.06-.87-1.51-1.51-3.25-1.31-5.01"/>
    <path class="st1" d="M185.15,184.61c-.59.14-.97.72-1.06,1.28l-.27-1.07c2.09-.21,3.76,1.48,4.53,3.27.25.6.33,1.27.37,1.9l-1.1.18c.42-1.61.2-3.19-.51-4.72l.31.76c.02-1.09-1.26-1.9-2.28-1.6M185.09,184.38c1.29-.28,2.55-.02,3.86.32l.31.76c-.41.79-.56,1.57-.66,2.36-.34,1.51.67,3.91,1.09,5.34l-2.04-2.8c-1.61-2.02-3.39-2.99-5.04-5.11.78-.45,1.75-.71,2.48-.87"/>
    <path class="st1" d="M175.27,144.15c2.66.9,5.52,1.13,8.3.79l-.07,1.02c-6.59-.44-12.13-6.07-11.93-12.78.43-2.84.99-5.67,1.2-8.51.11-3.27.65-6.93-1.03-9.68-1.34-1.41-3.44.24-4.77,1.24-4.19,3.61-6.68,9.18-7.01,14.65-.08,2.89-.46,9.11,3.07,9.84,1.28,0,2.97-.17,4.31.15,2.93.42,5.23,2.33,7.94,3.28M175.2,144.38c-2.65-.9-5.08-2.6-7.97-2.52-1.5-.08-2.62.3-4.17.51-5.51-.11-5.63-7.75-4.86-11.71,1.09-5.72,4.16-10.92,8.19-15.08,1.56-1.56,4.33-3.57,6.41-1.65,3.74,4.24,2.04,14.26,1.31,19.48-.07,4.83,3.97,10.2,9.57,11.54,0,0,4.73,1.27,4.73,1.27-4.29-.21-9.18-.3-13.21-1.85"/>
    <path class="st1" d="M176.72,254.28c2.53-2.22-1.2-10.43-1.94-13.35-1.45-4.45-2.92-8.95-4.74-13.26-.79-1.66-1.47-3.57-2.75-4.84-.05-.03.02-.02.06-.04.02,0,.05-.05,0-.02-.21.14-.5.73-.68,1.23-2.17,6.18-1.87,12.86-1.48,19.3l-.68-.96c1.46.48,2.89,1.16,4.16,2.13,1.27.96,2.35,2.24,2.98,3.72.88,2.11,1.09,4.35,3.13,5.54.62.33,1.32.78,1.95.55M176.82,254.5c-.78.3-1.52-.19-2.19-.5-2.11-.94-3.07-3.45-4.22-5.14-1.61-2.26-4.08-3.54-6.61-4.58l-.7-.28v-.68c.16-4.8,1.09-9.53,1.56-14.3.22-1.8.35-3.61.77-5.39.19-.74.49-2.13,1.61-2.41,4.02-.59,9.26,15.62,9.98,19.09.82,3.52,1.14,7.2,1.01,10.82-.13,1.17-.05,2.68-1.22,3.36"/>
    <path class="st1" d="M180.98,201.77c1.24-.55,1.43-2.21,1.49-3.32l.42,1.24c-.93-.51-1.8-1.63-2.09-2.57-.07-.2-.11-.25-.03-.19.08.04.18.02.13,0-.1-.06-.48.03-.85.15l.38-.41c-1,1.28-2.24,2.23-3.34,3.4-.35.39-.72.8-1.12,1.17l-.37-1.55c1.44-.33,3.19.73,3.35,2.26l-.61-.48c.75.46,1.79.75,2.63.3M181.08,201.99c-.92.39-2.04,1.02-3.07,1.08-.4-.39-1.01-.91-1.43-1.17-.61-.47-2.93-1.29-3.68-1.59,3.39-.74,5.07-.76,5.88-4.58.81-.76,2.3-1.54,3.5-.63.78.66.87,1.31,1.34,1.92.32.48.91,1.08,1.31,1.52-.52,1.83-2.3,2.77-3.85,3.45"/>
    <path class="st1" d="M191.99,284.37c.24-1.55.78-3.21.52-4.75-.08-.24-.15-.3-.29-.28-1.16.44-1.94,1.63-2.71,2.61-1.81,2.54-3.33,5.54-4.36,8.4-2.33,10.37-1.29,21.37-1.63,32.05.07,1.87.03,3.77.39,5.6.02.13.06.24.09.35.03.09.11.2.05.15-.03-.02-.17-.04-.2,0,.15-.16.35-.68.47-1.01,1.25-3.56,2.4-7.25,3.19-10.92,1.2-6.39,1.29-12.78,2.15-19.29.56-4.36,1.5-8.64,2.33-12.91M192.23,284.41c-1.95,8.62-.23,17.37-1.86,26.06-1.1,6.24-3.69,12.08-5.64,18.07-.13.41-.63.99-1.12.64-.27-.21-.29-.37-.38-.53-.63-2-.76-4.11-1.01-6.17-.87-8.75-1.32-17.45-.64-26.25.27-4.46,1.95-9,4.9-12.46,1.54-1.76,3.32-4.33,5.7-4.99,1.82.09.13,4.5.04,5.63"/>
    <path class="st1" d="M189.16,239.69c1.31,3.97,3.27,7.72,5.55,11.16,1.05,1.48,2.47,3.7,3.86,4.43-.04-.02-.12,0-.26.06-.11.06-.1.08-.07.04.13-.19.44-.8.62-1.18,1.44-2.8.69-5.97,1.48-8.96.64-2.11,1.06-3.75,1.06-5.88-.03-1.57-.61-4.38-.81-6.04-.66-4.08-.82-8.38-1.88-12.35-.82-3-3.39-5.13-5.16-7.55-.65-.57-1.34-.3-2.25.26-.9.53-1.93,1.06-2.95,1.41-2.4,1.16-3.71,4.24-3.88,6.83-.2,3.06,2.01,5.59,2.66,8.53.72,3.09.98,6.23,2.03,9.23M188.93,239.76c-1.41-3.94-1.93-8.28-4.23-11.65-.53-.87-1.17-1.73-1.64-2.8-1.67-3.76-.22-8.62,3.1-11,1.35-.99,3.05-1.02,4.52-1.81,3.24-1.61,3.72.74,5.36,2.83,3.11,3,4.17,7.45,5.01,11.52.77,3.69,2.21,8.72,2.57,12.47.12,2.1-.35,4.55-.88,6.47-.57,3.12-.02,6.56-1.7,9.46-4.61,9.52-11-12.3-12.12-15.5"/>
    <path class="st1" d="M221.52,306.8c.18-.23.02-.71-.11-1.06-1.17-2.65-3.32-4.75-5.31-6.8-2.38-2.3-4.69-4.63-7.16-6.75-1.66-1.37-3.51-3.17-5.5-3.62-2.95.25-4.18,6.68-5.02,9.19-.77,3.05-1.66,6.57-.89,9.64.49,1.59,1.77-1.95,2.13-2.47,4.76-9.76,11.01-4.73,17.68-.49l2.12,1.35c.58.29,1.47,1.11,2.06,1M221.68,306.98c-.26.2-.54.07-.72,0-2.74-1.53-5.61-2.77-8.55-3.85-7.33-3.27-8.83-1.63-13.08,4.56-.7,1.04-1.97,1.6-2.53-.03-.46-1.74-.26-3.4-.19-5.14.25-3.39.65-6.7,1.45-10.04,2.27-8.48,7.1-7.34,12.58-2.21,3.82,3.41,6.86,7.52,9.35,11.97.69,1.31,1.54,2.57,1.85,4.03.03.21.05.48-.16.7"/>
    <path class="st1" d="M225.46,284.8c.2-.16.17-.62.1-.96-.23-1.13-.74-2.16-1.26-3.2-.5-.97-2.01-3.31-2.76-4.58-1.25-1.96-2.76-4.67-4.21-6.32-.45-.33-.97-.19-1.52.04-1.34.63-2.77,1.93-3.54,3.43-.48.76-1.4,5.57.05,5.38,1.29-.26,2.85-.72,4.25-.31,3.34.87,5.75,3.36,7.91,5.87.26.23.63.72.97.64M225.58,285c-.33.14-.57-.07-.76-.19-2.43-2.29-5.77-3.33-8.79-4.49-1.58-.8-4.66.55-5.28-1.76-.06-2.96.32-5.82,2-8.29,1.11-1.79,3.54-3.78,5.77-2.44,1,.61,1.5,1.5,2.18,2.29,2.22,2.88,3.98,6.2,4.6,9.81.12.65.24,1.62.42,2.68.04.75.46,1.77-.14,2.38"/>
    <path class="st1" d="M225.88,188.13c.76.09,1.52.25,2.25.48l-.18.07c4.41-8.98,5.81-19.25,5.59-29.16l1.57,1.06c-2.76.88-6.24,1.14-8.67-.87-2.13-1.9-2.99-4.14-6.02-3.82-3.55.26-7.26,4.26-6.18,7.87.22.57.61.84,1.23,1.08,3.7,1.24,4.66,5.99,3.6,9.38-.41,1.42-1.34,2.94-2.6,3.74-.82.65-.91,1.69-.93,2.71.05,2.32,1.03,4.93,2.82,6.67,1.87,2.09,4.87.15,7.51.8M225.85,188.36c-2.07-.46-3.96.66-6.02.47-2.16-.39-3.76-2.17-4.85-3.96-1.33-2.19-2.08-5.22-.73-7.63.34-.68,1.15-1.11,1.62-1.54.57-.59,1.01-1.35,1.32-2.14,1.07-2.65.87-6.61-2.1-7.9-.65-.27-1.37-.9-1.57-1.62-1.13-4.16,2.75-8.66,6.73-9.42,7.53-1.03,5.13,7.5,15.53,3.17l.14,1.57c.46,5.17.04,10.45-1.3,15.47-1.33,5.04-3.83,9.63-6.41,14.01l-.07.11c-.74-.27-1.52-.46-2.3-.58"/>
    <path class="st1" d="M231.6,228.6c.54,1.2,1,2.44,1.33,3.75l-.69-.27c2.28-2.84,4.1-5.93,5.41-9.28,1.29-3.35,1.77-6.98,1.51-10.59l1.04-.11c-.67,4.7-1.73,10.48-6.61,12.58-1.61.68-3.39.74-5.01.44l.41-.99c1.09,1.41,1.91,2.92,2.61,4.46M231.38,228.69c-.83-2.01-2.56-3.4-4.34-4.49l1.57-.22c5.89-.7,11.2-5.65,10.54-11.86l1.04-.1c1.74,5.62.72,12.2-2.96,16.87-1.39,1.81-3.27,3.12-5.15,4.29.1-1.51-.06-3.07-.69-4.48"/>
    <path class="st1" d="M265.31,294.55c.26-.96-.85-1.97-1.39-2.72l-2.18-2.54c-1.47-1.6-2.31-3.83-3.84-5.34-1.19-1.33-3.83-2.41-5.39-3.32-3.74-1.91-7.73-4.44-11.5-6.19-.15-.07-.37-.04-.07-.1.21-.05.53-.39.5-.66,0-.01,0-.07,0-.05.01.16.28.77.49,1.25,2.63,5.35,1.76,12.03-1.87,16.7-1.36,1.83-3.28,3.12-4.85,4.68-1.61,1.5-2.03,3.74-1.38,5.79.92,2.96,3.36,5.61,6.35,6.4,3.21.64,5.31-2.14,7.95-3.8,3.56-2.67,7.48-4.9,11.29-7.18,1.71-.93,3.31-2.21,5.24-2.66.27-.03.52-.1.64-.29M265.51,294.68c-.19.29-.54.37-.81.41-.8.16-1.52.58-2.22,1.01-4.63,3.06-8.7,6.87-13.09,10.26-2.69,2.03-6.02,5.08-9.68,3.73-4.34-1.68-7.49-6.64-6.77-11.27.79-3.4,4.46-5.16,6.04-7.96,1.16-1.77,1.76-3.83,2.14-5.92.56-3.14.09-6.22-1.36-9.03-.24-.55-.77-1.36-.77-2.3-.01-.67.56-1.44,1.2-1.58.85-.2,1.19,0,1.56.07,2.35.86,4.05,2.01,6.15,3.15,3.36,2.06,6.89,3.82,9.97,6.33,2.29,1.96,2.75,4.96,4.38,7.34,1,1.66,2.48,3.06,3.28,4.85.09.27.16.61-.03.92"/>
  </g>
</svg>