<?xml version="1.0" encoding="UTF-8"?>
<svg id="Layer_1" xmlns="http://www.w3.org/2000/svg" xmlns:xlink="http://www.w3.org/1999/xlink" version="1.1" viewBox="0 0 400 400">
  <!-- Generator: Adobe Illustrator 29.3.0, SVG Export Plug-In . SVG Version: 2.1.0 Build 146)  -->
  <defs>
    <style>
      .st0 {
        fill: none;
      }

      .st1 {
        fill: #000001;
      }

      .st2 {
        clip-path: url(#clippath);
      }
    </style>
    <clipPath id="clippath">
      <rect class="st0" x="140.88" y="48.45" width="143.42" height="308.02"/>
    </clipPath>
  </defs>
  <g class="st2">
    <path class="st1" d="M236.16,286.34c-.15.24-.48.27-.58.29-1.12.15-3.03,1.44-6.81,4.01-8.87,6.04-10.63,8.62-13.62,8.16-3.43-.53-6.7-4.83-6.37-8.3.38-3.95,5.19-4.32,7.1-10.45.34-1.09,1.06-3.43.58-6.3-.53-3.15-2.15-4.73-1.59-5.3.5-.51,2.08.41,7.97,3.72,5.74,3.23,6.38,3.57,7.39,4.73,1.7,1.96,1.1,2.41,3.62,5.58,1.25,1.57,2.77,3.18,2.32,3.87M207.34,230.92c-.75-1.66-1.77-2.79-2.46-3.44,1.12.03,2.8-.09,4.49-1,4.91-2.64,4.93-9.18,4.92-9.45.32,1.64.65,4.58-.29,8.02-1.34,4.94-4.48,7.9-5.79,9.02-.09-.81-.32-1.92-.87-3.15M202.56,196.99c-2.58-.35-3.57.5-4.93.29-3.07-.49-5.79-6.06-4.27-8.89.5-.93.99-.71,1.8-1.85,1.52-2.12,1.7-5.55.14-7.59-1.15-1.5-2.31-1.02-2.9-2.29-.97-2.09,1.03-5.86,4.05-7.02.45-.17,1.71-.64,3.19-.29,2.26.54,2.64,2.42,4.63,3.44,1.1.56,2.88.95,5.79,0,.22,3.27.15,7.93-1.16,13.32-1.17,4.81-2.97,8.62-4.49,11.31-.39-.13-1.05-.32-1.88-.43M202.27,278.17c-.56.32-1.61-1.71-4.64-3.29-1.96-1.02-3.3-1.72-5.07-1.57-.85.07-1.67.33-2.17-.14-.22-.2-.42-.58-.29-2,.13-1.43.23-2.42.87-3.58.85-1.53,2.74-3.54,4.34-3.15.63.15,1,.62,1.3,1,3.74,4.78,5.07,9.02,5.07,9.02.53,1.7,1.07,3.44.58,3.72M198.94,296.64c-.35.32-1.26-.58-4.92-2.43-4.43-2.23-6.65-3.35-8.55-3.01-4.2.77-5.45,6.99-6.81,6.59-1.19-.35-.74-5.29,0-8.73.79-3.7,1.73-8.07,4.34-8.73.63-.16,2.1-.3,6.52,3.72,5.64,5.14,10.31,11.79,9.41,12.6M171.28,240.23c-1.72-5.23-1.17-6.41-3.19-10.17-.76-1.41-1.52-2.51-1.59-4.3-.1-2.31.98-5.02,3.04-6.44.96-.66.97-.24,3.33-1.43.57-.29,1.21-.63,1.88-.43.57.17.89.66,1.01.86,1.65,2.54,2.3,2.33,3.48,4.73.9,1.82,1.08,3.05,2.03,8.3,1.37,7.61,1.47,7.67,1.45,8.88-.06,4.08-1.13,3.88-1.16,8.02,0,.58,0,2.69-1.16,4.87-.38.71-.57,1.07-.87,1.15-1.83.48-5.99-7.14-8.25-14.03M173.88,277.74c-2.39,11.64-.83,16.04-3.19,26.49-.32,1.42-1.08,3.71-2.61,8.31-.64,1.93-.89,2.59-1.16,2.58-.28-.02-.87-.78-1.16-11.88-.43-16.49.74-19.79,1.74-21.91,2.08-4.41,5.67-8.49,6.66-8.02.63.3.13,2.41-.29,4.44M164.47,208.44c-1.03.49-2,.39-2.39.32-.09-.21-.24-.49-.51-.75-.65-.65-1.49-.71-1.74-.72.77-.42,1.87-1.17,2.75-2.43.27-.39.49-.78.65-1.13.82-.48,1.27-.43,1.52-.3.49.25.46.88,1.16,1.72.27.33.55.55.72.68-.07.26-.55,1.85-2.17,2.61M160.85,252.54c-.5.21-1.12-.11-1.74-.43-1.92-1-2.28-3.01-3.19-4.58-.76-1.33-2.31-3.04-5.79-4.3-.05-4.89.34-8.89.73-11.74.74-5.44,1.41-6.08,1.88-6.16.29-.05,1.42-.03,4.05,6.16,3.68,8.63,6.39,20.06,4.06,21.05M159.54,160.04c-2.63-.9-3.27-1.8-5.79-2.29-3.37-.66-4.32.52-5.79-.29-2.8-1.54-2.77-7.69-1.45-12.03,1.83-6,7.16-11.88,9.85-10.88,2.48.91,2.71,7.64,1.16,16.18,0,1.09.17,3.17,1.45,5.3,2.45,4.06,6.94,4.89,7.68,5.01-3.14.1-5.5-.45-7.1-1M167.94,193.84c1.41-.35,2.53.73,2.61.81v3.96c-.18-.52-.51-1.29-1.16-2.05-.99-1.17-2.16-1.7-2.75-1.91.19-.21.62-.64,1.3-.81M169.39,148.73c.43-4.33,6.89-7.29,8.98-5.87.89.6.24,1.5,1.3,3.29,1.2,2.02,2.76,2.11,5.51,4.44,1.19,1.01,2.1,2.01,2.79,2.86.76,1.23.79,2.14.69,2.72-.26,1.54-1.63,2.12-3.19,4.15-.9,1.18-1.44,2.29-1.74,3.01.36-4.29-1.7-8.3-5.21-10.17-3.59-1.91-7.23-.81-7.97-.57-.57-.82-1.32-2.22-1.16-3.87M184.17,135.99c.69-.65,1.41-.98,1.88-1.15,1.07.72,1.52,1.46,1.74,2.01.26.66.19,1.07.43,2,.24.96.61,1.69.87,2.15-.16.06-.41.14-.72.14-1.22.02-1.83-1.09-3.04-1.72-.57-.29-1.44-.57-2.75-.43.09-.52.4-1.88,1.59-3.01M190.68,234.93c.3-1.77.96-3.11,1.45-3.93.32.69.81,1.98.72,3.64-.12,2.59-1.54,4.32-2.03,4.86-.23-.96-.48-2.6-.14-4.58M192.71,212.59c2.39-4.51,6.8-6.02,7.82-6.35-.51.94-1.72,3.47-1.16,6.63.24,1.34.73,2.4,1.16,3.15-1.38,3.09-4.12,4.83-6.52,4.44-1.27-.21-2.19-.97-2.75-1.57-.04-1.29.08-3.73,1.45-6.3M284.11,293.49c-.93-3.74-8.37-5.97-19.19-5.51,4.3-.68,7.59-3.29,8.47-6.66.7-2.66.04-6.27-1.74-6.87-2.02-.69-3.87,3.05-8.55,5.73-4.19,2.4-8.55,2.74-11.66,2.64,1.59-1.85,5.52-6.96,4.71-13.24-.16-1.2-.62-4.79-2.61-5.44-2.14-.7-5.57,2.15-8.47,7.37-.89,0-6.67-.05-10.65-4.65-2.49-2.88-2.99-6.06-3.11-7.37,3.9-4.22,5.45-9.44,3.69-12.39-2.25-3.77-10.77-5.21-18.61.5,2.63-2.78,6.25-7.3,8.91-13.68,1.89-4.54,2.73-8.66,3.11-11.81.86,2.09,2.85,5.92,7.02,8.09,1.48.77,4.84,2.52,6.95,1,1.68-1.21,2.09-4.12,1.16-6.16-1.23-2.68-4.12-2.38-6.66-5.16-1.97-2.15-2.51-4.81-2.68-6.66,4.66.06,7.87-3.18,7.75-6.08-.12-2.81-3.35-4.55-3.55-4.65,2.31-1.34,4.3-2.23,5.72-2.79,3.16-1.26,4.71-1.43,5.94-2.86,1.3-1.51,1.47-3.52,1.38-5.08-.52-.94-1.38-2.16-2.82-2.94-3.24-1.75-6.96,0-10.43.86-3.41.84-8.34,1.22-14.99-.79.76-1.43,1.8-3.91,1.81-7.09.02-6.85-4.81-11.29-5.72-12.1,6.38,1.18,12.05-2.1,13.4-6.66,1.23-4.15-1.54-7.96-1.96-8.52,1.34-.63,3.67-1.96,5.58-4.51,1.04-1.39,2.13-2.86,2.03-4.73-.21-3.68-4.91-5.7-5.15-5.8.48-4.33-.48-5.8-1.37-6.37-4.14-2.67-13.94,9.48-19.99,6.44-1.41-.71-2.15-2.38-3.62-5.73-3.3-7.51-1.49-11.59-5.07-14.75-.32-.28-2.88-2.48-5.21-1.72-2.61.86-3.24,4.89-3.33,5.44-.28,1.81.05,3.32.34,4.22-1.27.52-2.89,1.02-3.52.36-.79-.83.64-2.78,1.59-6.01.55-1.85,2.38-8.06-.43-10.74-1.49-1.42-4.06-1.63-5.94-1-3.06,1.02-3.43,3.96-6.37,7.3-1.57,1.78-4.17,4.02-8.62,5.65-1.32-6.3-5.5-9.95-8.76-9.52-.47.06-2.26.39-3.98,2.94-.74-2.04-1.78-4.36-3.26-6.8-3.02-4.97-6.62-8.37-9.34-10.52.73-9.14,3.54-15.21,5.87-18.97,5.57-9.02,12.21-11.09,13.07-18.72.56-4.97-1.47-11-4.92-12.03-3.93-1.17-10.15,3.96-14.52,13.43-.6.94-1.19,1.88-1.79,2.82-.44,33.98-.88,67.95-1.32,101.93,2.91.39,6.73,1.2,10.93,2.94,3.51,1.45,6.34,3.15,8.47,4.65-.29,1.43-.58,2.86-.87,4.3-4.09-3.51-9.88-4.01-14.12-1.36-5.3,3.31-5.29,9.75-5.29,10.09.06.2.59,1.73,2.24,2.36,1.75.66,3.25-.26,3.4-.36.48.34,1.07.86,1.52,1.65,1.39,2.44.1,5.17-.07,5.51-.65.01-2.57.13-4.42,1.5-1.85,1.38-2.49,3.18-2.68,3.79l.29,93.93c1.69.48,3.38.95,5.07,1.43,2.22,2.67,10.2,12.91,9.92,27.99-.32,17.01-10.9,27.7-13.09,29.82,5.81-.01,11.62-.02,17.43-.03,2.83-5.39,5.78-12.1,8.11-20.05,1.59-5.42,2.61-10.47,3.26-14.96.6.71,1.94,2.1,4.13,2.94,1.72.65,3.24.69,4.13.64-1.7,1.44-2.42,3.61-1.81,5.37.84,2.42,4.15,3.95,7.31,2.65-.15.93-.52,2.14-1.52,2.94-1.44,1.15-2.9.43-4.78,1.29-1.85.85-3.61,2.99-3.33,4.58.54,3.06,8.95,5.88,13.18,2.86,1.46-1.04,2.15-2.9,3.48-6.59,1.31-3.63,2-6.73,2.39-8.81,1.32,2.06,5.11,8.58,3.98,17.11-.6,4.57-2.39,8.01-3.68,10.06h11.19c-.09-2.85.14-8.19,2.92-14.07,2.13-4.51,4.95-7.58,6.88-9.38,4.75-.75,7.71-4.95,7.03-8.66-.51-2.76-2.99-5.07-6.2-5.72,3.14-.21,5.67-2.54,6.06-5.45.34-2.54-1.02-5.1-3.4-6.37,2.45-.09,5.83-.49,9.63-1.79,4.61-1.58,7.97-3.84,10.07-5.51,1.88,5.2,5.87,14.66,12.09,19.55,2.81,2.21,4.31,2.09,5.07,1.86,2.02-.62,3.49-3.51,3.19-6.01-.44-3.65-4.41-4.25-5.79-8.73-.62-2-.43-3.82-.22-4.94,1.11.46,18.26,7.37,26.43-.5.63-.61,3.57-3.44,2.9-6.16"/>
    <path class="st1" d="M284.21,293.47c.61,2.87-2.05,5.65-4.14,7.27-4.87,3.47-11.35,3.12-16.96,2.03-2.86-.58-5.67-1.4-8.39-2.48l.19-.1c-.66,3.15.29,6.53,2.68,8.73.75.76,1.59,1.46,2.27,2.34,1.81,2.2,1.31,5.62-.53,7.66-2.9,3.24-6.98-.66-9.21-2.82-4.67-4.98-7.62-11.25-9.98-17.55l.48.13c-2.8,2.24-5.95,4.04-9.32,5.31-3.37,1.27-6.94,2-10.55,2.16l.18-.75c1.29.68,2.37,1.77,3.02,3.09,2.18,4.3-1.06,9.26-5.83,9.57l.07-.96c6.47,1.32,9.09,8.18,4.21,12.95-1.36,1.33-3.15,2.18-5.03,2.5l.32-.15c-1.57,1.47-2.98,3.11-4.19,4.87-2.44,3.52-4.09,7.56-4.83,11.76-.43,2.34-.54,4.73-.42,7.11h-.76c-.92.02-11.97.05-12.62.07l.75-1.21c5.16-8.05,4.78-18.34-.4-26.28l1.66-.32c-.68,3.82-1.81,7.53-3.2,11.15-.71,1.89-1.59,4.11-3.49,5.17-2.8,1.59-6.27,1.38-9.23.41-2.53-.81-6.1-2.99-4.74-6.12.87-2.04,2.78-3.7,4.99-4.16.9-.16,1.9-.15,2.67-.41,1.04-.46,1.49-1.46,1.69-2.64,0,0,1.39,1.09,1.39,1.09-.66.26-1.36.44-2.07.52-6.3.45-9.31-5.99-4.5-10.24l.73,1.79c-3.44.21-6.92-1.3-9.11-3.94l1.83-.51c-1.77,12.31-5.66,24.32-11.44,35.35l-.3.58h-.66c-1.58.08-19.04-.01-20.09.04,2.53-2.37,4.96-4.92,6.92-7.77,6.03-8.46,8.85-19.12,7.35-29.39-1.04-7.67-4.34-15.07-9.27-21.07l.52.34-5.07-1.44-.76-.22v-.78c0-.14-.17-93.94-.17-94.07.51-1.74,1.59-3.29,3.04-4.38,1.43-1.06,3.17-1.65,4.96-1.68l-.8.5c1.01-1.99.86-4.72-1.15-6.04l1,.02c-1.24.74-2.74.96-4.11.47-1.4-.49-2.47-1.67-2.9-3.07-.01-.97.12-1.87.3-2.81.74-3.82,3.24-7.4,6.94-8.94,4.5-1.98,9.94-.91,13.59,2.26l-1.35.46.88-4.29.33.81c-5.61-3.98-12.2-6.57-19.04-7.5l-.66-.09v-.66c.13-.16,1.51-102.01,1.73-102.14l1.8-2.81-.03.05c2.11-4.42,4.8-8.76,8.77-11.8,1.97-1.51,4.86-2.77,7.22-1.36,3.64,2.34,4.74,8.54,4.07,12.52-.38,2.9-2.03,5.49-3.98,7.61-3.34,3.54-6.91,6.93-9.35,11.17-3.33,5.55-5.03,11.94-5.54,18.35l-.11-.26c1.44,1.13,2.79,2.36,4.06,3.67,3.81,3.93,6.78,8.66,8.65,13.79l-.57-.07c.46-.68,1-1.31,1.64-1.85,1.31-1.14,3.11-1.59,4.78-.98,2.39.82,4.11,2.86,5.27,4.98.78,1.43,1.32,2.97,1.65,4.55l-.45-.25c2.78-1.03,5.4-2.52,7.51-4.58,1.43-1.37,2.52-3,3.54-4.69.53-.85,1.07-1.72,1.83-2.47,2.25-2.19,6.63-2.24,8.75.15.72.84,1.07,1.89,1.23,2.92.3,2.04-.02,4.08-.48,6.06-.44,1.94-1.16,3.88-1.91,5.7-.68,1.74-.48,2.16,1.38,1.7.45-.12.91-.29,1.36-.48l-.27.58c-.7-2.11-.59-4.44.14-6.54,1.1-3.44,3.84-5.09,7.33-3.04.82.44,1.57,1.07,2.22,1.75.15.18.4.51.54.67,1.43,2.07,1.57,4.7,2.04,7.03.39,2.04.95,4.07,1.77,5.97.53,1.27,1.12,2.59,1.75,3.81.47.86.94,1.69,1.78,2.14,3.93,2.02,10.31-3.49,13.85-5.34,1.67-.9,3.58-1.98,5.59-1.44,2.92,1.07,2.64,4.91,2.43,7.37l-.44-.74c5.02,2.29,7.6,6.47,3.77,11.23-1.55,2.21-3.7,4.03-6.16,5.18l.3-1.19c2.01,2.72,3.14,6.37,1.96,9.66-2.01,5.55-8.71,7.89-14.2,6.83l.74-1.48c2.95,2.65,5.1,6.19,5.8,10.08.61,3.45-.02,7.08-1.67,10.16l-.53-1.27c4.63,1.4,9.64,1.95,14.38.8,1.17-.28,2.35-.67,3.59-1,4.4-1.33,8.44-.84,10.81,3.49l.1.18c.06.89.04,1.78-.11,2.69-.53,2.96-2.33,4.5-5.1,5.36-1.47.51-2.87,1.02-4.25,1.64-1.38.61-2.72,1.3-4.02,2.06l-.04-1.53c7.81,4.37,3.03,12.45-4.63,12.37l.87-.93c.21,2.37.97,4.69,2.66,6.39,1.76,1.97,4.79,2.23,6.27,4.6,1.45,2.48,1.13,6.41-1.56,7.95-2.48,1.23-5.23-.11-7.43-1.26-3.39-1.79-5.86-4.98-7.27-8.46l1.4-.19c-.61,4.8-1.98,9.51-4.08,13.88-2.08,4.37-4.89,8.4-8.23,11.92l-.78-.87c2.38-1.71,5.1-3,8-3.56,6.14-1.23,13.8,1.06,11.87,8.68-.72,2.84-2.3,5.38-4.29,7.52l.11-.32c.29,3.21,1.8,6.34,4.28,8.46,2.46,2.15,5.8,3.25,9.06,3.29l-.28.17c1.6-2.74,3.93-6.29,7.05-7.43,3.87-1.13,4.48,4.23,4.65,6.87.13,4.5-2,8.8-4.9,12.15l-.14-.32c5.18.24,10.49-1.21,14.45-4.59,1.37-1.08,2.51-2.39,3.97-3.38,2-1.32,3.36.67,3.71,2.49.79,3.56-.64,7.11-3.76,9.1-1.46.98-3.16,1.56-4.89,1.85l-.02-.23c5.01-.22,17.6,0,19.3,5.6M284.01,293.52c-1.67-5.44-14.27-5.66-19.09-5.42l-.02-.23c3.36-.52,6.73-2.45,8.06-5.66.65-1.57.72-3.35.38-5-.23-.96-.63-2.1-1.59-2.56-1.35-.6-2.73,1.11-3.69,1.9-4.6,4.59-10.09,6.71-16.62,6.47h-.41s.26-.32.26-.32c3.03-3.55,5.19-8.16,4.63-12.88-.26-2.06-.9-6.32-3.91-5.35-2.99,1.15-5.23,4.69-6.75,7.38-3.51.02-7.07-1.09-9.75-3.37-2.66-2.23-4.29-5.53-4.63-8.94l-.02-.18c.99-1.07,1.87-2.24,2.59-3.5,3.24-5.84,2.4-10.79-5.08-11.5-4.18-.29-8.31,1.28-11.63,3.72l-.78-.87c3.23-3.45,5.92-7.4,7.9-11.67,2.44-5.09,3.65-10.69,4.15-16.27l1.08,2.58c1.26,3.01,3.33,5.73,6.12,7.35,2.32,1.26,6.35,3.4,7.69,0,.51-1.33.41-3.02-.31-4.2-.37-.58-.89-1.02-1.59-1.4-1.49-.78-3.27-1.58-4.48-2.88-2.23-2.18-3.09-5.34-3.26-8.31.91-.02,2,0,2.88-.23,1.82-.39,3.59-1.49,4.47-3.14,1.63-3.15-1.46-5.29-4.01-6.51l1.35-.79c1.36-.79,2.75-1.51,4.19-2.16,1.43-.65,2.93-1.2,4.37-1.71.71-.26,1.41-.51,1.95-.85,1.77-1.09,2.19-3.18,2.07-5.22l.11.38c-.54-.99-1.27-1.84-2.17-2.41-1.39-.89-3.17-.94-4.8-.62-1.84.35-3.53.98-5.41,1.43-5.07,1.22-10.39.65-15.33-.84l-1.04-.31.51-.96c2.44-4.48,2.23-9.94-.48-14.26-.87-1.43-1.96-2.76-3.21-3.88l-2.21-1.99,2.95.51c8.81,1.6,16.55-5.65,10.64-13.86l-.57-.78c1.79-.77,3.51-1.81,4.88-3.19,1.1-1.14,2.19-2.51,2.84-3.91,1.39-3.07-1.67-5.81-4.32-6.97l-.5-.23c.17-1.49.31-3.11,0-4.5-.12-.57-.34-1.12-.74-1.52-1.36-1.24-3.73.21-5.12.91-4.1,2.12-11.65,8.71-16.11,4.48-1.05-1.17-1.57-2.5-2.2-3.86-1.2-2.59-2.16-5.36-2.64-8.18-.49-2.37-.5-4.85-1.97-6.82-1.24-1.62-3.87-3.33-5.83-2.47-1.17.54-1.84,1.79-2.25,2.98-.67,1.9-.81,4-.18,5.94l.13.42c-.61.27-1.23.48-1.88.67-1.03.33-2.81.38-2.91-1.12-.02-.64.22-1.23.43-1.81.37-.94.76-1.84,1.09-2.76,1.04-3.22,2.51-8.25.31-11.08-1.84-2.06-5.67-1.98-7.61-.12-1.37,1.38-2.19,3.28-3.39,4.83-2.48,3.41-6.21,5.75-10.17,7.13-.32-1.65-.85-3.28-1.65-4.76-1.1-2-2.69-3.9-4.9-4.67-2.65-.94-4.72.96-6.03,3.09l-.22-.59c-2.43-6.74-6.83-12.75-12.49-17.2l-.13-.1v-.16c.28-3.25.82-6.49,1.74-9.63,1.77-6.31,5.3-12.07,9.92-16.74,2.2-2.35,4.71-4.53,6.13-7.43,2.01-4.15,1.47-9.88-1.08-13.61-2.09-2.99-5.12-2.46-8.06-.24-3.85,2.97-6.45,7.24-8.48,11.57v.02s-1.8,2.82-1.8,2.82c.15-1.21-.96,102.02-.92,101.71,0,0-.65-.75-.65-.75,7.27.95,14.27,3.72,20.21,7.97l-.1.51c-.24,1.1-.92,4.66-1.13,5.66l-1.08-.9c-6.11-5.17-15.53-3.04-17.55,5.03-.27.99-.43,2.06-.44,3.08l-.04-.25c.29.81.94,1.54,1.78,1.82,1.06.4,2.18,0,3.05-.62,2.34,1.41,3.41,3.84,2.92,6.48-.16.9-.48,1.79-.92,2.62h-.57c-2.09.05-4.14,1.12-5.32,2.83-.4.56-.71,1.2-.91,1.85-.01-1.41.5,93.99.45,93.66l-.76-.99,5.07,1.42.32.09.21.25c4.77,5.77,8.08,12.76,9.46,20.09,1.64,8.68.47,17.86-3.31,25.86-2.31,4.93-5.46,9.46-9.37,13.29l-.76-1.84,17.43-.03-.96.58c2.85-5.41,5.23-11.06,7.13-16.86,2.15-6.53,3.6-13.29,4.51-20.1l1.5,1.78c.89,1.06,2.04,1.92,3.31,2.48,1.28.56,2.69.81,4.09.74l3.01-.15-2.28,1.95c-3.24,2.84-1.46,6.94,2.95,6.69.86-.06,2.35-.71,3.18-1.02l-.29,1.74c-.09.53-.23,1.07-.45,1.6-.45,1.1-1.33,2.11-2.49,2.57-.6.24-1.2.31-1.7.35-1,.07-1.72.16-2.43.53-.7.36-1.37.92-1.86,1.55-.61.8-1.14,1.83-.3,2.65,1.46,1.53,3.76,2.23,5.85,2.5,2.05.24,4.42,0,5.91-1.51.86-.99,1.31-2.22,1.81-3.49,1.36-3.51,2.49-7.12,3.18-10.82l.43-2.25,1.23,1.94c5.46,8.53,5.79,19.5.21,28.06l-.67-1.2,11.19.06-.74.75c-.18-6.68,1.82-13.41,5.71-18.88,1.29-1.82,2.77-3.51,4.41-5.02l.13-.12.18-.03c1.65-.27,3.22-.99,4.42-2.14,4.32-4.16,1.99-9.98-3.61-11.18l-3.44-.74,3.51-.23c6.11-.51,7.84-7.95,2.5-10.98l-1.3-.7c4.01-.04,8.05-.65,11.82-2.06,3.45-1.26,6.67-3.1,9.52-5.4,2.31,6.4,5.19,12.79,9.87,17.85,1.76,1.74,4.91,4.76,7.36,3.76,2.76-1.33,3.76-5.73,1.78-8.09-.64-.84-1.47-1.54-2.23-2.32-2.46-2.29-3.41-5.78-2.72-9.01l.03-.16.16.06c7.35,2.83,18.2,5.4,25.11.53,2.05-1.57,4.64-4.28,4.07-7.04"/>
    <path class="st1" d="M192.8,212.64c-1.03,1.91-.94,4.16-.62,6.23l-.24-.59c2.92,2.65,6.32.31,7.96-2.53l.03.61c-1.09-2.49-1.19-5.22-.8-7.87.13-.88.35-1.77.7-2.62l.94,1.11c-1.49.68-2.91,1.41-4.34,2.21-1.46.81-2.85,1.92-3.63,3.44M192.62,212.55c1.77-3.3,3.68-6.22,7.67-7.04l2.02-.43-1.09,1.54c-2.15,2.84-2.31,6.22-.1,9.07l.16.22-.13.4c-.97,3.09-4.25,6-7.71,5.14-1.37-.36-2.39-1.23-3.13-2.27.11-2.36,1.23-4.58,2.29-6.62"/>
    <path class="st1" d="M190.78,234.95c-.22,1.16.52,2.24.83,3.3l.28,1.02-1.87-.47c.9-1.02,1.68-2.18,2.26-3.43.72-1.67-.01-2.7-.94-4l1.57.08c-.47,1.29-1.91,2.09-2.11,3.5M190.58,234.91c.26-1.45-.26-3.1.79-4.36l1.03-1.4.54,1.48c.29.81.19,1.7.2,2.49-.02,1.61.47,3.33-.2,4.89-.3.8-.7,1.57-1.3,2.2l-1.46,1.57c-.24-1.38-.86-3.16-.35-4.54.25-.79.62-1.53.75-2.33"/>
    <path class="st1" d="M184.24,136.06c-.85.79-.82,2.04-.74,3.09l-1.02-1.08c1.35-.38,3.02-.02,4.07.95.51.45.9.88,1.21,1.17.32.31.71.49,1.18.42l-.22.6c-.41-1.16-.89-2.31-1.39-3.44-.49-.94-.98-1.54-1.6-2.47l.5.06c-.71-.02-1.48.18-2,.7M184.1,135.92c.59-.52,1.12-1.12,1.76-1.59l.08-.06.42.12c1.36.32,2.49,1.75,2.3,3.18-.24,1.42.08,2.51,1.07,3.56l-.49.28c-.64.39-1.56.48-2.26.18-.64-.25-1.1-.66-1.62-.96-1.2-.71-2.68-.64-4.03-.86l.32-.91c.41-1.23,1.57-2.08,2.45-2.92"/>
    <path class="st1" d="M169.49,148.74c-.13,1.35.44,2.67,1.3,3.69l-.33-.11c3.36-1.46,7.48-1.3,10.38,1.17,2.94,2.37,4.23,6.27,3.82,9.92l-1.79-.43c.63-1.41,1.51-2.71,2.6-3.82,1.9-1.88,3.84-2.62,2.22-5.55-1.19-1.58-3.05-3.21-4.96-4.19-1.03-.56-2.13-1.01-2.99-1.88-.91-.89-1.52-2.12-1.68-3.36-.04-.28-.09-.46-.11-.5-.02-.03-.06-.09-.12-.11-.72-.42-1.9-.21-2.76-.01-2.52.64-5.26,2.4-5.57,5.18M169.29,148.72c.37-2.87,2.73-5.22,5.3-6.45,1.29-.55,2.77-.97,4.17-.22.49.25.91.85,1,1.37.1.42.12.83.22,1.2.16.67.5,1.32.92,1.88.56.74,1.49,1.35,2.4,2.05,1.82,1.39,3.46,2.97,4.91,4.7.29.43.54.9.7,1.42.6,1.75-.26,3.12-1.43,4.34-.64.73-1.2,1.45-1.68,2.23-1.07,1.58-2.5,5.92-3.24,7.7l.23-5.7c.15-3.05-1.04-6.14-3.34-8.18-2.42-2.14-5.86-2.91-9.06-2.16-.76-1.26-1.27-2.72-1.11-4.2"/>
    <path class="st1" d="M167.97,193.93c-.5.12-.83.6-.9,1.08l-.23-.9c.57-.04,1.15.04,1.65.31,1.49.74,2.49,2.4,2.52,4.03l-.94.15c.19-.66.25-1.32.06-1.98-.19-.64-.53-1.3-.49-1.98l.27.64c-.51-.57-.98-1.6-1.94-1.34M167.92,193.74c1.27-.3,2.54-.6,3.53.5v.4c.06.68-.28,1.34-.47,1.98-.19.66-.14,1.32.06,1.98l.7,2.38c-.57-.76-1.86-2.63-2.55-3.22-.86-.95-1.96-1.56-2.75-2.59l-.63-.7c.66-.38,1.39-.57,2.11-.73"/>
    <path class="st1" d="M159.58,159.95c2.26.77,4.69.94,7.05.66l-.06.86c-4.97-.45-9.07-3.74-9.96-8.69-.13-.71-.19-1.42-.18-2.14.22-1.19.43-2.38.61-3.57.35-2.43,1.46-10.74-.94-11.98-1.68-.49-3.75,1.49-4.84,2.61-2.8,3.03-4.45,7.01-4.68,11.1-.14,2.23-.27,7.88,2.6,8.26,1.08,0,2.53-.14,3.66.13,1.22.23,2.41.63,3.49,1.22,1.06.58,2.1,1.16,3.25,1.54M159.51,160.14c-1.15-.38-2.24-.93-3.34-1.4-1.09-.46-2.27-.68-3.43-.71-.58-.02-1.15.02-1.72.11-.88.13-2.01.54-3,.19-2.45-.85-3.15-3.79-3.26-6-.15-3.72,1.03-7.38,2.88-10.57,1.46-2.53,5.38-8.53,8.79-7.78,4.53,1.43,2.69,13.93,2.16,16.76-.04,3.44,1.87,6.64,4.83,8.44,1,.62,2.11,1.13,3.28,1.44l4.1,1.08c-1.36-.08-4.7-.22-5.99-.37-1.81-.21-3.6-.6-5.31-1.19"/>
    <path class="st1" d="M160.81,252.45c2.16-1.49-1.05-9.02-1.65-11.21-1.23-3.74-2.48-7.51-4.02-11.14-.4-.89-.8-1.78-1.27-2.6-.29-.53-.65-1.12-1.06-1.47,0,0,0,0-.01-.01.01,0,.05,0,.06-.02.02,0,.04-.04,0-.01-.07.04-.2.22-.3.41-.74,1.53-1.04,3.25-1.34,4.93-.71,3.93-.4,7.96-.19,11.91l-.58-.81c2.5.79,5,2.43,6.07,4.91.75,1.77.92,3.66,2.65,4.66.5.27,1.09.67,1.66.46M160.89,252.63c-.66.25-1.29-.16-1.86-.42-1.78-.79-2.61-2.89-3.58-4.31-1.37-1.9-3.47-2.97-5.61-3.85l-.6-.24v-.57c.15-4.03.93-8.01,1.33-12.01.18-1.52.32-3.02.65-4.53.2-1,.81-2.47,2.16-1.95.91.41,1.39,1.16,1.92,1.86.6.88,1.09,1.78,1.56,2.7,2.7,5.46,4.77,11.32,5.05,17.44,0,1.39.39,5.21-1.01,5.88"/>
    <path class="st1" d="M164.42,208.35c1.06-.49,1.21-1.78,1.27-2.78l.36,1.04c-.79-.43-1.53-1.37-1.78-2.16-.06-.17-.09-.21-.02-.16.07.03.15.02.11,0-.08-.04-.41.03-.73.13l.32-.35c-.77,1.06-1.97,1.89-2.84,2.86-.31.32-.61.67-.95.98l-.31-1.3c1.26-.27,2.68.6,2.85,1.9l-.52-.41c.63.39,1.52.63,2.23.26M164.51,208.53c-.85.37-1.67.82-2.62.91-.33-.34-.84-.77-1.2-.98-.51-.39-2.37-1.08-3-1.35l1.81-.42c1.9-.31,2.74-1.63,3.04-3.4.53-.44,1.01-.82,1.78-.89.52-.09,1.34.28,1.64.78.29.42.44.8.72,1.17.27.41.77.91,1.11,1.27l-.19.46c-.53,1.29-1.9,1.89-3.08,2.44"/>
    <path class="st1" d="M173.78,277.72c.12-.73.97-4.18.19-4.22-.98.37-1.65,1.37-2.3,2.2-.53.73-1.01,1.49-1.46,2.27-.87,1.53-1.68,3.13-2.24,4.78-.52,1.59-.72,3.36-.88,5.14-.44,5.2-.45,11.06-.48,16.32-.01,2.73-.1,5.47.06,8.19.05.79.13,1.76.36,2.41,0,0-.04-.02-.08-.02-.03,0-.07,0-.09.01-.02.02-.02,0-.02.01.2-.24.3-.56.42-.86.47-1.28.89-2.59,1.3-3.89.66-2.18,1.32-4.36,1.64-6.6.8-4.95.92-9.85,1.59-14.88.5-3.66,1.28-7.25,1.99-10.84M173.98,277.76c-.76,3.58-.95,7.24-.9,10.88.04,3.66,0,7.38-.68,11.01-.27,1.56-.7,3.2-1.13,4.73-.91,2.88-2.08,5.61-2.97,8.47-.28.79-.46,1.61-.9,2.34-.07.08-.13.17-.26.21-.37.17-.7-.15-.81-.48-.29-.79-.39-1.62-.52-2.44-.63-4.56-.96-9.14-1.09-13.73-.12-4.35-.2-8.8.47-13.16.21-1.18.46-2.36.92-3.51,1.34-3.06,3.4-5.72,5.88-7.95.56-.44,1.73-1.53,2.43-.9.39.55.18,1.24.11,1.84-.16.91-.38,1.8-.56,2.69"/>
    <path class="st1" d="M171.37,240.2c1.4,4.14,3.57,8.02,6.24,11.45.47.58,1.21,1.43,1.75,1.64-.01,0-.05,0-.08,0,0,0-.04,0-.07.02-.03,0-.06.02-.08.03-.09.05-.09.07-.06.03.55-.91,1.04-2.14,1.22-3.24.3-1.75.05-3.52.56-5.28.5-1.65.91-3.2.9-4.93-.05-1.57-.48-3.44-.68-5.07-.26-1.74-.46-3.49-.69-5.24-.31-2.14-.45-4.35-1.39-6.32-.53-1.23-1.33-2.14-2.28-3.13-.45-.51-.86-1.04-1.26-1.59-.28-.44-.74-.79-1.25-.69-.95.27-1.91,1.07-2.89,1.41-.38.16-.79.27-1.1.47-.46.31-.89.73-1.24,1.18-1.4,1.82-2.04,4.37-1.3,6.59.58,1.55,1.55,3.23,1.95,4.91.62,2.6.82,5.23,1.73,7.76M171.18,240.26c-.5-1.45-1.09-3.58-1.52-5.07-.24-.85-.5-1.67-.86-2.46-.7-1.68-1.8-2.92-2.62-4.61-1.23-2.72-.46-6.06,1.51-8.26.51-.56,1.1-1.02,1.78-1.39.66-.33,1.33-.37,1.99-.63,1.11-.33,2.25-1.26,3.51-.77.5.2.89.65,1.13,1.08.33.55.7,1.09,1.11,1.59.56.68,1.22,1.33,1.69,2.09.49.77.87,1.58,1.21,2.43.6,1.72.94,3.45,1.36,5.16.4,1.72.82,3.43,1.2,5.14.36,1.79.86,3.49,1,5.33.04,1.4-.07,2.84-.44,4.2-.35,1.24-.56,2.35-.58,3.65-.01.39,0,.96-.04,1.35-.1,1.57-.54,3.12-1.31,4.51-.21.34-.31.6-.61.98-1.17,1.45-2.82.31-3.67-.82-1.95-2.54-3.01-5.58-4.12-8.51-.6-1.67-1.18-3.33-1.73-5.01"/>
    <path class="st1" d="M198.87,296.57c.08-.08.09-.25.06-.41-.1-.5-.35-.96-.61-1.4-1.84-2.96-4.59-5.26-7.07-7.68-1.51-1.37-6.15-5.98-7.99-5.81-1.6.48-2.17,2.32-2.77,3.75-.89,2.57-1.75,5.29-2.1,8.02-.13,1.02-.21,2.06-.11,3.08.05.44.11.96.4,1.28.07.06.1.05.14.04.19-.1.38-.38.52-.6.34-.57.64-1.21.97-1.84,4.17-8.24,9.22-4.01,15.02-.41l1.8,1.14c.45.27.89.57,1.36.79.15.07.32.11.39.05M199.01,296.72c-.36.25-.77-.1-1.1-.24l-.93-.5c-.62-.33-1.26-.64-1.9-.92-1.11-.49-2.79-1.11-3.95-1.56-.65-.26-1.31-.49-1.96-.73-1.16-.39-2.42-.87-3.6-.66-1.92.4-3.13,1.88-4.31,3.48-.41.56-.78,1.16-1.24,1.74-.32.37-.65.83-1.24.84-1.24-.15-1.09-2.19-1.15-3.05.02-2.13.23-4.24.53-6.36.48-2.87.74-6.04,2.83-8.33.68-.67,1.6-1.18,2.59-1.16.97.04,1.68.38,2.48.8,1.36.75,2.49,1.68,3.57,2.64,3.25,2.85,5.84,6.32,7.94,10.05.38.77,2.06,3.29,1.44,3.97"/>
    <path class="st1" d="M202.22,278.09c.19-.17.13-.56.08-.81-.19-.95-.63-1.82-1.07-2.69l-.02-.14s0,.08,0,.1h0c-.35-.64-.76-1.29-1.14-1.89-1.38-2.22-2.72-4.47-4.23-6.6-.37-.49-.49-.75-1.04-.78-1.5.18-3.08,1.76-3.79,3.08-.48.97-.58,2.17-.6,3.26.03.51-.02,1.32.65,1.26.66-.08,1.52-.42,2.28-.4,2.16-.02,4.02,1.22,5.59,2.51,1.07.9,1.86,2.03,2.88,2.96.14.11.31.21.41.15M202.32,278.26c-.24.13-.46-.03-.64-.16-.47-.35-.89-.75-1.37-1.08-.93-.66-1.97-1.12-3.03-1.5-1.01-.37-2.09-.88-3.06-1.19-.64-.19-1.25-.29-1.98-.28-.59,0-1.55.08-2.09-.45-.57-.49-.47-1.4-.42-2.02l.14-1.16c.11-1.58.62-3.21,1.56-4.53,1.42-2.22,4.1-3.56,6.01-1.05,1.28,1.5,2.41,3.16,3.27,4.93.93,1.81,1.38,3.87,1.59,5.51.08.57.24,1.39.28,1.96,0,.35.1.75-.24,1.01"/>
    <path class="st1" d="M202.57,196.89c.65.08,1.29.22,1.91.41l-.15.06c2.01-3.75,3.04-7.93,3.81-12.06.39-2.05.68-4.12.83-6.2.15-2.08.21-4.16.11-6.25l1.34.89c-2.34.75-5.33.94-7.37-.74-.94-.72-1.53-1.73-2.36-2.43-3.15-2.36-7.69.88-8.16,4.34-.09.73,0,1.56.56,2.06.68.47,1.61.6,2.25,1.27,2.28,2.25,2.32,6.07.65,8.68-.3.51-.93,1.12-1.4,1.41-.19.14-.24.2-.35.35-1.2,2.18.2,5.9,1.96,7.52.81.76,1.84,1.04,2.95.8,1.12-.21,2.3-.29,3.43-.13M202.55,197.09c-1.13-.17-2.24-.04-3.34.25-.55.14-1.16.26-1.78.16-.62-.09-1.18-.37-1.69-.69-2.64-1.8-4.75-6.01-3.05-9.05.45-.81,1.36-1.06,1.81-1.81,1.37-1.99,1.75-5.06.16-7.04-.49-.65-1.41-.83-2.05-1.4-1.14-1.19-.76-3.01-.18-4.35,1.42-3.28,5.72-5.86,9.1-3.71,1,.64,1.66,1.6,2.56,2.22,2.05,1.46,4.73.55,6.92-.24l.11,1.31c.7,7.82-.98,15.17-4.94,21.97-.55.97-1.1,1.94-1.68,2.89-.63-.23-1.29-.39-1.95-.49"/>
    <path class="st1" d="M207.43,230.88c.46,1,.84,2.05,1.13,3.15l-.59-.23c1.03-1.19,1.83-2.52,2.61-3.8,1.55-2.57,2.72-5.34,3.09-8.32.2-1.49.32-3.02.17-4.57l.88-.09c-.23,2.04-.69,3.98-1.41,5.9-.5,1.32-1.24,2.6-2.34,3.52-1.63,1.46-4.05,1.95-6.13,1.52l.35-.83c.91,1.16,1.61,2.42,2.22,3.75M207.25,230.96c-.56-1.28-1.54-2.36-2.7-3.13l-.96-.65,1.31-.18c1.27-.18,2.44-.56,3.5-1.05,3.62-1.7,5.75-4.88,5.46-8.92l.88-.09c1.49,4.75.61,10.23-2.51,14.17-1.18,1.52-2.78,2.62-4.38,3.6.09-1.27-.05-2.59-.59-3.76"/>
    <path class="st1" d="M236.08,286.28c.45-.92-2.43-3.55-3.04-4.41-.61-.73-1.18-1.51-1.67-2.34-.46-.82-.93-1.5-1.59-2.14-1.25-1.27-3.04-1.91-4.58-2.79-1.66-.87-3.32-1.77-4.97-2.68-1.39-.72-3.47-2.03-4.91-2.55h-.05s-.01-.02-.02-.02c-.01,0-.04-.01,0,0,.02,0,.03,0,.12-.03.07-.03.16-.07.22-.13.06-.07.13-.14.16-.23.07-.19.04-.26.04-.24.01.11.09.29.15.43,1.87,3.76,2.13,7.57.51,11.46-.77,2.06-2.19,3.87-3.85,5.28-2.33,1.93-4.25,3.41-3.26,6.71.85,2.74,3.55,5.56,6.57,5.45,1.26-.12,2.23-.9,3.32-1.63,2.2-1.63,4.63-3.37,6.97-4.78,1.62-.99,3.26-1.92,4.88-2.88,1.45-.78,2.82-1.85,4.45-2.23.23-.03.44-.09.55-.25M236.25,286.39c-.16.25-.46.31-.69.34-1.58.4-2.88,1.53-4.19,2.46-3.78,2.82-7.24,5.99-11.1,8.7-1.41.99-3.29,2.04-5.16,1.65-3.27-.71-5.56-3.72-6.41-6.76-.91-3.68.88-5.15,3.3-7.5,1.29-1.29,2.29-2.79,2.88-4.49.83-2.47,1.19-5.23.46-7.74-.28-1.04-.8-2.08-1.28-3.08-.24-.6-.5-1.05-.22-1.82.26-.66,1.08-.98,1.72-.85.15.02.37.07.51.11,1.9.68,3.49,1.71,5.23,2.65,1.63.94,3.26,1.88,4.87,2.86,1.62,1.04,3.48,2.02,4.63,3.61,1.19,1.52,1.55,3.46,2.68,5.02.5.78,1.08,1.52,1.64,2.27.42.57.87,1.14,1.14,1.81.08.23.14.51-.02.77"/>
  </g>
</svg>