<?xml version="1.0" encoding="UTF-8"?>
<svg id="Layer_1" xmlns="http://www.w3.org/2000/svg" xmlns:xlink="http://www.w3.org/1999/xlink" version="1.1" viewBox="0 0 400 400">
  <!-- Generator: Adobe Illustrator 29.3.0, SVG Export Plug-In . SVG Version: 2.1.0 Build 146)  -->
  <defs>
    <style>
      .st0 {
        fill: none;
      }

      .st1 {
        fill: #000001;
      }

      .st2 {
        clip-path: url(#clippath);
      }
    </style>
    <clipPath id="clippath">
      <rect class="st0" x="114.72" y="63.46" width="237.27" height="250.29"/>
    </clipPath>
  </defs>
  <g class="st2">
    <path class="st1" d="M270.01,171.41c5.89,4.18,21.17-4.87,25.53-9.49,2.79-2.5,4.15-6.09,6.98-8.62,5.57-4,12.97-1.29,18.19,1.94,8.57,5.33,15.35,12.68,22.2,19.71,3.52,3.69,7.07,8,8.25,13.2,3.36,13.2-3.57,31.08-19.23,30.32-5.9-.09-8.3,2.18-8.44,8.07-.15,4.7-3.8,9.73-7.98,11.46-12.26,5.21-26.51,1.7-38.3.89-1.26-.13-3.38-.13-3.99-.07,1.72-.68,2.26-3.44,1.08-4.75.96.72,3.38,2.02,4.53,2.71,30.3,16.23,5.54,52.48-15.04,65.64-23.04,15.53-55.73,18.19-68.11-11.73-3.01-7.66-2.63-15.97-.87-23.7.34-1.72,1.23-5.07,1.28-6.58.05-.34-.15-.43.25.23.3.5,1.22.85,1.66.69-2.52,1.47-4.6,3.86-7,5.98-7.25,6.87-15.47,12.74-24.28,17.68-8.84,4.9-20.31,8.79-30.13,4.2-14.32-6.89-20.62-24.22-19.28-39.26,2.33-25.2,34.16-39.33,56.49-41.28l1.85-.16.9-.07c.09,0,.42-.06.17,0-2.44,2.29,1.1,2.64.35,2.5-8.5,1.4-17.19,2.54-25.77,3.08-11.91.71-29.54,3.24-35.06-10.51-3.7-10.18-.73-23.81,9.34-29.35,2.38-1.21,5.08-1.45,7.32-2.26,3.76-1.38,6.64-4.52,8.15-8.34,3.62-12.49,13.21-16.87,25.59-16.72,5.1-.21,10.4.23,15.43,1.27,6.06,1.08,11.82,3.69,17.39,5.17.14.03.27.02.13.03,0,0-.64.05-1.2.61-.59.55-.83,1.44-.77,1.86,0,.11.04.25.06.36.04.08.01.04,0,.02-.14-.35-.91-1.37-1.63-2.21-5.63-6.14-13.4-16.6-2.97-22.99,7.45-4.64,15.15-8.31,22.94-12.38,4.71-2.45,10.34-3.24,15.56-2.65,4.97.61,9.42,1.77,14.33,1.44,4.68-.24,9.43-1.19,13.83-2.9,3.45-1.44,7.81-4,11.4-1.41,12.22,8.36,10.27,33.88,4.31,45.64-1.52,3.35-3.65,6.4-5.27,9.67-.49,1.06-.81,2.26-.19,3.07M269.4,171.91c-1.57-2.4.77-5.06,1.8-7.17,3.78-6.24,6.63-13.09,7.37-20.39,1.11-8.61-.38-29.08-11.35-30.04-1.87.25-4.09,1.72-6.38,2.69-9.19,4.36-19.77,4.53-29.6,3.1-3.93-.24-7.8.41-11.36,2.01-4.77,2.58-9.43,5.45-14.17,8.22-2.96,1.94-8.82,4.87-11.09,7.38-.55.99-.16,2.57.46,3.81,1.18,2.51,4.18,5.67,6.17,7.99,1.99,2.15,5.05,6.37,1.85,9.39-2.82,2.4-6.11.84-8.75.11-9.16-3.18-17.88-5.58-27.5-5.16-4.83.11-9.25.46-12.65,2.36-4.1,2.27-5.3,5.31-7.09,9.89-2.13,5.25-6.72,9.76-12.29,11.53-2.84.87-5.19.99-6.8,1.76-8.78,4.51-11.57,20.78-4.01,27.44,7.25,5.36,18.25,3.99,27.1,3.91,8.67-.26,17.25-1.29,25.82-2.43-.68-.15,3.3.2.58,2.56-1.12.2-.73.08-1.67.17-15.03,1.03-29.97,5.86-41.69,15.53-3.81,2.96-7.21,6.36-9.67,10.37-9.5,15.23-2.69,40.78,13.82,48.25,15.83,6.48,37.28-12.14,48.38-22.45,3.7-3.15,9.66-11.75,14.93-6.06,1.15,1.66,1.05,2.87,1.1,3.74-.11,2.93-.76,5.24-1.24,7.89-1.34,6.57-1.56,13.57.94,19.72,3.22,7.88,10.12,14.82,18.44,17.02,21.82,5,46.14-11.09,57.39-29.26,7.36-11.66,10.64-24.37-3.67-31.94-2.07-1.3-4.51-2.41-6.28-4.21-2.63-2.59-1.74-6.99,1.7-8.37,1.21-.49,2.51-.63,3.75-.67,12.89.11,26.27,4.9,38.56.66,2.67-1.31,3.75-2.84,4.13-5.67.38-8.74,6.64-14.17,15.35-13.51,6.93.58,11.49-3.2,13.9-9.79,3.32-8.9,1.39-17.96-5.49-24.92-8.06-8.87-15.71-18.98-26.94-23.58-3.18-1.17-7.02-1.25-9.83.68-2.68,2.35-4.27,5.92-7.08,8.28-4.63,4.65-20.94,14.2-26.96,9.14"/>
    <path class="st1" d="M203.6,153.64c4.78,7.24,9.89,14.27,15.16,21.17,4.04,7,8.22,13.93,11.95,21.16,1.82,3.63,3.74,7.22,4.82,11.21.26,1.07.15,2.6-.55,3.6-1.31,2.09-4.24,2.39-6.14,1.02-15.24-13.57-26.5-31.54-36.47-49.23-3.16-5.79-5.63-11.95-7.73-18.24-2.89-6.27-5.98-13.49-11.78-17.41-2.43-1.6-6.04-1.4-8.56-3.25-5.92-4.75-8.62-13.16-6.4-20.53.37-1.76,2.08-3.83,2.45-5.27.04-.38-.14-.71-.62-1.06-1.68-1.01-3.46-.92-5.58-2.14-1.06-.66-1.76-1.99-1.54-3.22.24-1.3.84-1.92,1.29-2.45,1.9-1.91,3.72-2.82,5.59-3.89l-.36.2c1.93-1.38,3.82-3.03,6.4-3.37,2.44-.33,4.37,1.98,4.2,3.93-.03,2.44-1.6,4.76-1.59,6.9,0,.15.07-.06-.06-.17-.06-.18-.47-.44-.39-.4,6.52.17,11.2,4.22,13.57,9.8,3.33,6.5,3.65,14.55,1.91,21.42l-.44-1.88c6.65,10.91,13.26,21.81,20.86,32.08M202.95,154.09c-7.62-10.58-16.23-20.4-24.77-30.25.51-4.47.28-9.14-.91-13.26-1.38-3.88-3.25-9.1-7.01-10.78-1.35-.53-2.85-.48-4.63-1.04-3.38-.89-4.83-5.09-3.82-8.14.51-1.91,1.4-3.63,1.97-4.85.02.06,0,.83.76,1.47.44.37.99.58,1.4.51.1-.02,0-.02-.12,0-.27.05-.7.2-1.12.39-.97.4-2.04,1.04-3.04,1.6-1.73.68-3.62,1.5-4.69,2.34-.26.18-.32.38-.27.08,0-.15,0-.44-.15-.59-.02-.05-.07-.1-.12-.12.01,0,.02.01.02.04,1.38.98,3.79,1.36,5.37,2.81,1.06.9,1.94,2.62,1.49,4.25-.82,2.46-2.21,3.32-2.95,5.48-2.11,5.88.27,13.77,5.49,17.4,1.62,1.07,3.4.94,5.36,1.4,3.32.64,6.36,2.7,8.56,4.99,4.13,4.22,7.21,8.97,10.08,13.99,5.74,13.15,13.39,25.47,21.98,37.04,6.82,8.92,13.42,18.43,21.34,26.31-2.3-1.32-5.55.76-5.36,3.35-.17-.94-.78-2.8-1.29-4.19-3.46-9.34-6.91-18.82-10.5-28.16-3.56-6.65-8.56-15.07-13.04-22.05"/>
    <path class="st1" d="M156.65,63.47c7.1,2.14,10.2,11.93,5.47,17.83-4.63,6.01-15.79,4.24-16.86-3.66-1.17-6.49,6.71-11.21,11.52-6.22,3.14,3.29.72,9.64-4.1,8.91-3.52-.26-5.14-5.46-1.67-7.08,2-1.02,4.74,1.01,3.68,3.16-.4.97-1.65,1.35-2.44.86-.1-.06-.03-.22.08-.18.78.26,1.61-.23,1.77-.91.44-1.5-1.34-2.52-2.52-1.76-1.8,1.12-.75,4.06,1.33,4.03,1.29.09,2.55-.69,2.94-1.92,1.64-5-5.37-7.07-8.15-3.31-3.21,3.98-.33,10.42,4.78,10.86,7.04,1.05,11.58-6.58,9.89-12.81-.75-3.11-2.85-5.91-5.8-7.61-.1-.05-.03-.22.08-.18"/>
  </g>
</svg>