<?xml version="1.0" encoding="UTF-8"?>
<svg id="Layer_1" xmlns="http://www.w3.org/2000/svg" xmlns:xlink="http://www.w3.org/1999/xlink" version="1.1" viewBox="0 0 400 400">
  <!-- Generator: Adobe Illustrator 29.3.0, SVG Export Plug-In . SVG Version: 2.1.0 Build 146)  -->
  <defs>
    <style>
      .st0 {
        fill: none;
      }

      .st1 {
        fill: #000001;
      }

      .st2 {
        clip-path: url(#clippath);
      }
    </style>
    <clipPath id="clippath">
      <rect class="st0" x="51.82" y="60.08" width="296.36" height="279.84"/>
    </clipPath>
  </defs>
  <g class="st2">
    <path class="st1" d="M141,147.7c.09-10.42-2.4-20.85-7.72-29.66-6.93-10.77-20.62-27.81-35.02-22.73-9.1,3.1-19.02,19.93-12.79,28.4,1.16,1.17,3.18,1.81,5.65,2.14,4.94.62,10.57.92,15.93,2.31,13.51,3.33,25.8,11.44,33.96,22.69,1.23,1.94,3.09,4.58,2.55,7.28-.14.76-.73,1.76-1.53,2.27-.92.59-1.8.64-2.26.63-2.48-.16-4.53-1.69-6.42-2.71-15.37-9.68-34.79-19.69-52.61-10.45-11.23,5.08-34.23,27.26-19.83,38.61,10.42,7.57,24.75,5.91,35.09-1.19,6.35-3.93,12.99-9.33,18.96-13.96,6.2-5.08,13.59-9.46,21.88-9.83,2.79-.13,6.4-.52,8.25,2.32,1.67,2.87.3,5.83-.64,8.5-2.05,4.95-4.46,9.57-6.56,14.36-2.13,4.77-4.1,9.6-5.74,14.52-1.87,5.03-2.27,10.32-4.91,15.17-5.8,9.16-14.14,17.53-24.99,20.2-19.39,3.14-22.2-28.12-14.65-40.13,2.89-5.04,7.93-8.13,12.58-11.12l13.47-8.29c8.91-5.54,17.69-11.3,26.31-17.26,2.06-1.39,4.7-3.41,6.98-4.45,2.26-1.1,5.06-2.38,7.3-3.42,9.86-4.43,21.29-10.35,32.53-6.79,14.12,4.11,30.55,23.86,30.97,38.49-.63,16.1-20.94,11.33-31.21,9.88-10.66-1.92-20.98-3.39-31.48-6.34-4.13-1.28-8.79-2.79-12.14-6.09-5.65-5.67-5.14-14.12-5.3-21.22.02-5.35.27-10.65.53-15.88,1-13.32.44-27.84,7.87-39.75,7.84-11.5,20.01-20.2,33.88-22.93,9.7-1.73,18.2,2.26,22.05,11.45,5.18,11.71,4.12,31.15-7.78,38.49-5.23,2.82-10.9,1.4-16.3,1.86-15.95.82-28.63,12.18-37.27,24.91-.25.37-.82,0-.59-.37,7.95-13.5,21.08-25.95,37.61-27.46,5.39-.69,11.01.35,14.81-1.98,3.9-2.37,6.15-7.09,7.28-11.81,2.35-10.84,0-28.78-13.65-30.07-14.95-.3-33.14,13.62-37.7,27.69-2.89,9.54-2.7,20.23-3.22,30.3-.21,5.24-.41,10.42-.38,15.56.35,11.61-.48,17.04,12.38,20.24,9.86,2.69,20.48,4.34,30.6,6.15,5.12.83,10.32,1.63,15.12,1.69,2.8-.07,5.1-.13,6.57-1.44,2.96-4.18-1.21-11.66-3.53-15.77-6.09-9.62-15.5-20.39-27.77-20.03-7.44.52-14.26,4.06-21.25,7.02-1.78.79-5.31,2.4-7.07,3.21-1.9.84-4.59,2.78-6.39,3.94-8.83,5.86-17.79,11.49-26.89,16.9l-13.62,8.02c-4.45,2.7-8.91,5.26-11.23,9.12-4.76,8.3-5.02,19.63-.89,28.19,2.08,4.29,5.93,7.16,10.85,6.17,9.54-2.06,18.05-10.1,23.3-18.13,2.45-4.4,3.01-9.91,4.85-14.67,1.73-5.02,3.77-9.89,5.97-14.69,2.17-4.8,4.66-9.48,6.67-14.22,1.2-2.83,2.78-7.55-1.73-7.92-6.3-.47-12.71,1.51-18.05,4.93-3.84,2.39-8.76,6.78-12.37,9.61-8.42,6.53-16.79,13.87-27.65,16.23-10.59,1.95-25.11-.78-29.86-11.58-5.44-14.93,12.96-33.81,25.34-40.1,18.14-9.9,39.05-1.96,55.05,8.27,1.94,1.13,4.97,3.19,6.92,3.94-.29-.01-.74-.09-1.52.4-.7.45-1.13,1.26-1.08,1.95-1.13-3.1-3.87-6.11-6.27-8.64-6.99-7.07-15.91-12.48-25.59-14.99-6.08-1.87-13.27-1.48-19.71-3.55-11.6-4.63-7.59-19.96-2.12-27.84,3.9-5.93,10.01-10.96,17.33-11.77,10.06-.92,18.9,6.21,25.05,13.25,10.69,11.98,17.03,28.04,15.5,44.02-.03.44-.71.4-.7-.03"/>
    <path class="st1" d="M204.54,254.22c-3.44,12.19-67.66-5.14-76.07,21.97-3.07,9.98.53,24.3,9.76,29.7,8.64,3.95,19.09-5.27,25.5-10.63,10.24-9.28,19.96-19.26,27.33-30.97,8.57-11.68,19.25-21.8,31.42-29.8,7.37-4.75,15.79-8.02,24.31-10.18,8.87-2.33,18.04-3.95,27.27-.48,18.97,7.23,22.82,34.83,8.8,48.42-12.73,13.45-34.18,17.9-50.72,9.11-21.64-11.01-41.48-37.41-45.98-61.07-2.51-13.91-4.9-31.25,6.44-42.19,9.05-8.46,22.85-9.84,34.04-5.5,14.38,5.33,21.6,21.71,19.4,36.15-.61,7.18-3.76,15.39-11.03,18.29-4.05,1.41-8.38,1.31-12.09,3.35-2.41,1.19-4.62,2.77-6.55,4.66-5.85,5.74-9.06,13.87-11.93,21.46-2.46,7.94-2.99,16.44-4.7,24.6-1,5.53-2.01,11.05-3.15,16.55-.68,4.34-3.1,11.79-2.15,16.01,3.7,13.53,18.69,25.54,33.11,21.32,6.24-1.89,11.56-6.24,14.96-11.75,3.74-6.07,6.26-14.65,1.38-20.37-5.91-5.5-14.42-8.71-19.98-15.35-4.07-4.39-7.28-9.55-9.73-14.78-3.55-7.38-5.63-14.77-13.57-16.5-10.75-.64-22.82.61-33.71-1.55-8.08-1.56-16.93-2.99-25.05-4.65-5.04-1.2-10.33-1.95-14.93-4.66-3.44-2.5-4.63-7.21-4.94-11.03-.77-17.81,14.57-34.91,32.71-35.06,10.22,0,15.43,6.95,19.3,15.33,4.87,10.1,11.21,19.42,19.33,27.2,2.99,2.99,6.36,5.52,9.48,8.39,1.05,1,2.13,2.42,1.74,3.99M203.86,254.06c.3-1.25-.59-2.38-1.57-3.32-3.1-2.82-6.53-5.36-9.53-8.33-8.18-7.81-14.83-17.15-19.94-27.17-5.39-11.58-13.21-16.77-26.02-12.21-12.66,4.4-21.78,17.71-20.78,31.01.38,2.88,1.17,5.92,3.35,7.66,4.09,2.02,8.9,2.56,13.42,3.44,9.71,1.32,23.67,4.18,33.15,4.74,5.45.28,11.11.19,16.7.11,2.86,0,6.07-.32,9.03.17,10.25,1.6,14.59,11.77,18.12,19.96,1.71,3.66,3.68,7.11,6.1,10.29,3.97,5.5,9.07,9.28,15.06,13.04,2.94,1.91,6.65,4.39,8.67,7.85,1.34,2.13,2.02,4.69,2.18,7.16.83,18.58-18.35,35.8-36.75,30.47-13.17-3.55-27.12-19.56-22.8-33.56,1.79-7.98,3.78-16.66,5.24-24.65,1.79-8.27,2.35-16.76,4.93-24.87,4.58-13.33,12.03-28.24,27.79-30.12,12.07-1.32,13.99-15.61,13.02-25.33-1.12-10.54-7.72-20.69-17.99-24.24-15.09-5.53-34.03,1.61-35.47,18.94-1.17,10.5.99,21.74,4.08,31.88,5.49,15.19,15.86,28.91,27.89,39.54,7.93,6.77,17.69,12.35,28.22,12.6,20.41.22,41.56-17.78,31.38-38.93-6.91-14.49-23.79-11.6-36.7-7.71-11.81,3.19-22.28,9.67-31.33,17.84-6.05,5.48-12.14,11.11-16.91,17.76-4.69,6.97-10.42,14.03-16.57,19.69-4.05,3.94-8.2,7.87-12.67,11.5-6.82,5.33-14.44,11.22-23.65,11.82-10.03.48-16.18-10.1-18.07-18.34-3.05-11.77.58-24.9,12.76-29.62,10.68-4.42,22.31-4.57,33.64-4.72,6.03-.5,30.38,1.89,32-4.33"/>
    <path class="st1" d="M265.97,133.86c7.36,4.32,16.16,1.61,23.68-.98,7.76-2.72,15.75-5.74,24.37-5.57,23.06.43,36.79,25.92,33.73,46.78-3.43,20.64-17.34,18.28-32.3,10.03-15.11-8.1-27.67-20-38.21-33.29-3.29-4.49-7.04-8.99-8.98-14.44-.06-.36-.1-.37-.11-1.03-.22-.04.28-2.46,2-3.37,1.79-.79,2.92-.34,2.83-.35,1.54.41,2.48,1.24,3.58,2.06,8.52,7.16,15.06,16.33,18.24,27.19,7.32,28.31-11.59,60.19-43.71,47.59-13.15-5.15-22.64-18.62-17.74-32.75,4.2-12.37,13.59-21.63,23.02-30.23,9.59-8.24,20.92-14.39,33.09-17.91,4.03-1.2,8.14-2.16,12.38-2.58,4.08-.63,8.58.42,12.51.68,7.28-.43,16.52-3.71,20.69-9.92,3.85-7.06-2.17-15.41-7.05-20.63-5.49-5.66-12.66-10.19-20.46-11.6-11.99-2.54-22.24,7.36-26.38,17.61-2.92,7.54-2,15.71-3.23,23.82-2.94,25.18-31.81,46.68-56.92,44.78-11.94-.68-21.09-12.12-20.52-23.69.62-11.25,10.14-19.07,18.37-25.46,10.16-8.64,30.32-19.52,37.29-1.74,2.09,5.47,4.36,11.99,9.79,15.01M265.61,134.45c-5.6-3.04-8.06-9.69-10.22-15.27-7.1-16.96-25.7-5.38-34.94,3.28-5.99,5.24-12.3,10.63-14.99,18.24-2.49,7.06.53,15.28,6.14,19.9,5.86,4.75,14.22,4.26,21.3,2.42,14.92-4.07,28.93-14.14,35.9-27.99,3.58-7.2,3.97-14.98,4.8-23.04.92-16.92,16-36.08,34.6-31.75,12.52,3.08,23.34,12.19,28.71,23.77,1.73,3.97,2.48,8.95.01,12.84-2.35,3.78-6.24,6.09-10.16,7.87-3.96,1.68-8.02,3.1-12.41,3.15-4.32-.24-8-1.23-12.23-.53-16.06,2.24-31.28,10.14-43.19,20.98-12.17,11.74-31.44,32.97-15.03,48.62,7.95,7.39,21.29,10.52,31.01,5.51,13.29-6.95,16.62-26.16,12.91-39.6-2.8-9.16-9.29-18.43-16.94-24.15.44.07.78.59,2.89-.23,1.59-.87,2.07-3.13,1.86-3.05-.02-.53-.02-.41-.07-.65-.05-.22,0-.03.05.08,10.13,17.66,25.58,33.13,43.1,43.41,5.12,2.48,14.32,8.64,19.36,4.29,5.13-5.29,5.48-13.83,4.93-20.92-1.21-15.52-12.37-31.39-29.07-32.42-8.2-.67-16.19,2.19-23.95,4.62-7.73,2.46-16.85,5.19-24.37.61"/>
    <path class="st1" d="M224.21,92.77c5.4,11.96,27.3-.02,42.63,28.14,2,3.46,3.41,7.53,5.43,10.79.13.19.25.25.02.14-.28-.17-.79-.17-1.11-.07-.73.41-.15.18.17-.5,1.82-3.03,4.79-13.77,6.06-17.34,7.84-18.48,2.39-46.14-21.32-47.62-11.76-.95-24.37,3.88-30.32,14.57-2.05,3.54-3.15,7.99-1.55,11.9M223.56,93.03c-2.9-8.57,1.8-17.85,7.43-24.45,8.49-9.12,23.31-11.05,34.17-5.1,9.59,5.27,14.81,15.53,17.31,25.67,1,4.24,1.79,8.56,1.89,13.03.07,9.01-2.45,17.12-4.52,25.73-.94,3.1-1.84,7.41-4.82,9.74-4.59,3.24-8.77-.79-10.56-4.71-4.67-10.16-9.93-20.12-19.5-26.49-3.32-2.32-7.19-4.03-11.24-5.57-3.99-1.53-8.62-3.5-10.17-7.85"/>
  </g>
</svg>