<?xml version="1.0" encoding="UTF-8"?>
<svg id="Layer_1" xmlns="http://www.w3.org/2000/svg" xmlns:xlink="http://www.w3.org/1999/xlink" version="1.1" viewBox="0 0 400 400">
  <!-- Generator: Adobe Illustrator 29.3.0, SVG Export Plug-In . SVG Version: 2.1.0 Build 146)  -->
  <defs>
    <style>
      .st0 {
        fill: none;
      }

      .st1 {
        fill: #000001;
      }

      .st2 {
        clip-path: url(#clippath);
      }
    </style>
    <clipPath id="clippath">
      <rect class="st0" x="82.69" y="60.53" width="261.53" height="278.94"/>
    </clipPath>
  </defs>
  <g class="st2">
    <path class="st1" d="M150.34,223.38c.95-.13,1.51-.2,1.52-.16,0,.05-.54.08-1.52.16M343.32,200.78c-1.29-6.99-5.03-11.12-11.88-18.49-8.84-9.49-24.77-26.61-36.97-22.45-5.67,1.93-4.66,6.45-13.21,13.21-9.76,7.72-23.43,11.6-26.41,7.92-2.66-3.29,5.64-9.63,9.24-23.77,4.18-16.4.45-37.08-9.24-40.93-5.18-2.06-7.04,2.69-19.81,5.28-17.11,3.48-21.47-3.5-35.65,1.32-1.56.53-6.76,3.43-17.17,9.24-12.14,6.78-13.86,8.23-14.52,10.56-.03.11-.03.23-.06.34l13.26,18.15,15.69,24.05c14.23,29.59,16.61,36.57,15.85,36.97-1.84.99-30.13-32.5-43.84-60.19-6.5-2.2-15.88-5.11-27.31-4.8-7,.19-14.09.39-19.81,5.28-6.78,5.8-4.52,12.12-11.88,18.49-6.85,5.91-11.5,2.79-17.17,7.92-7.54,6.82-10,22.03-3.96,30.37,6.47,8.93,21.23,7.93,40.93,6.6,2.94-.2,5.87-.49,8.59-.8-9.12,1.84-21.35,5.71-32.36,14.01-5.35,4.04-13.58,10.25-17.17,21.13-6.27,19.04,4.23,44.68,21.13,50.18,15.09,4.91,32.13-7.28,42.25-14.52,13.69-9.79,20.47-20.34,23.77-18.49,3.87,2.18-5.42,16.72,0,33.01,2.89,8.7,9.3,15.85,15.85,19.81,20.85,12.61,52.31-1.66,68.66-19.81,1.97-2.19,21.58-24.44,14.52-40.93-4.77-11.16-19.42-14.25-18.49-17.17,1.61-5.02,43.45,8.78,52.82-5.28,3.27-4.91.43-9.97,5.28-14.53,5.79-5.42,12.38-.64,19.81-5.28,8.01-5.01,10.94-17.2,9.24-26.41"/>
    <path class="st1" d="M343.76,200.7c1.82,10.63-1.51,24.46-12.69,28.55-5.06,1.92-11.33-.34-15.59,3.31-5,3.59-2.36,10-5.5,14.91-6.99,9.6-21.83,7.6-32.19,7.22-6.61-.25-13.63-1.96-19.91-1.03.44-.08.66-.81.59-1.39-.09-.45-.22-.44-.07-.34,7.25,4.41,16.77,8.81,19.56,17.9,5.68,16.2-7.91,36.33-18.89,47.38-18.46,17.62-49.65,31.29-72.98,14.91-12.7-8.97-19.26-25.68-16.29-40.83.48-3.85,1.79-8.06,2.1-11.54.07-.29-.22-.24.46.87.39.5.94.91,1.54,1.11.77.18,1.1.15,1.52.03-3.81,2.66-6.93,6.39-10.57,9.5-4.14,3.79-8.82,7.33-13.47,10.52-13.9,9.98-34.25,20.53-50.46,8.96-14.81-11.01-21.1-31.04-17.02-48.72,5.65-22.43,32.41-36.17,53.46-40.08l1,6.28c-7.45.63-14.67,1.06-22.07,1.23-11.04.14-26.09.11-31.37-11.78-4.52-10.94-1.29-25.31,8.81-32,3.34-2.02,7.3-1.92,10.63-3.31,2.99-1.25,5.69-3.61,7.51-6.35,1.89-2.74,2.67-6.3,4.62-9.78,1.97-3.48,5.16-6.11,8.68-7.76,14.1-5.18,30.03-2.34,43.86,2.24l.53.18.26.51c8.66,16.98,19.97,32.67,32.19,47.27,3.34,3.87,7.43,8.65,10.85,11.42-.94-.4-2.46.47-2.53,1.64-3.85-10.93-11.6-25.26-16.2-34.9-.72-1.07-16.03-23.67-16.1-23.77-3.59-4.7-9.84-13.05-13.41-17.83l-.89-1.2.28-1.85c.23-2.02,2.15-4.48,3.72-5.61,3.76-2.92,7.71-4.99,11.68-7.33,6.29-3.36,12.36-7.38,19.05-10.19,4.94-1.72,10.7-2.29,15.77-1.55,8.46,1.47,16.37,1.8,24.51-.77,4.71-1.09,7.91-4,13.26-4.57,13.37.96,16.47,17.96,16.78,28.43.45,12.18-3.49,24.71-10.23,34.62-.81,1.43-1.99,3.1-2.08,4.36.53.79,2.08.81,3.51.79,9.55-1.04,19.05-6.14,25.54-13.28,2.03-2.23,3.26-5.01,5.85-6.88,5.43-3.58,12.52-1.57,17.67,1.44,10.26,6.09,17.96,15.22,25.97,23.82,3.96,4.32,7.78,9.28,8.73,15.25M342.89,200.86c-.98-5.82-4.69-10.5-8.61-14.73-7.88-8.45-15.85-17.42-26-23.07-4.67-2.58-10.92-4.33-15.57-1.07-1.95,1.52-3.2,4.38-5.14,6.74-6.81,8.15-16.68,14-27.29,15.59-4.23.65-9.58-1.64-7.71-7.02,2.96-6.83,7.23-12.78,8.68-19.88,1.35-5.37,1.73-11.03,1.39-16.56-.72-7.43-2.11-16.43-8.18-20.76-1.99-1.01-2.06-.93-4.91.35-8.18,4.23-17.99,6.49-27.29,5.92-7.47-.61-14.26-2.47-21.31.18-6.03,2.7-11.77,6.34-17.72,9.5-3.63,2.02-7.52,4.05-10.78,6.43-.71.67-1.01.63-1.17,1.42l-.62-3.05c3.56,4.95,9.61,13.46,13.03,18.33.7,1.16,14.45,22.92,15.56,24.79,4.01,8.76,8,17.51,11.73,26.45,1.41,3.93,3.47,7.35,3.81,11.72-.28,2.51-2.93,2.89-4.56,1.44-11.05-10.67-19.46-23.43-28.15-35.94-5.29-8.08-10.39-16.3-14.68-25.01l.79.69c-13.19-4.57-28.44-7.11-41.8-2.29-3.04,1.45-5.7,3.76-7.28,6.67-1.62,2.89-2.38,6.66-4.56,10.03-2.17,3.34-5.15,6.02-8.83,7.72-3.34,1.57-7.12,1.55-10.1,3.39-7.96,5.53-10.45,18.29-6.52,26.9,4.9,9.65,17.69,8.27,27.01,8.09,7.17-.4,14.48-1.08,21.54-1.91l.99,6.28c-18.28,3.97-42.52,16.31-47.06,35.68-3.16,14.03,2.31,31.31,14.17,39.85,14.77,9.52,31.44-3.13,43.71-11.79,5.44-3.96,10.17-8.48,15.07-13.17,2.55-2.32,5.17-5.19,8.76-6.11,4.51-1.03,8.27,2.65,8.02,7.19-1.01,9.38-4.4,18.3-1.69,27.35,9.25,29.22,39.18,27.25,61.37,13.52,14.61-8.65,30.78-26.24,32-43.77.24-6.89-3.86-12.25-9.85-16.18-2.41-1.77-5.57-3.12-8.13-5.49-.35-.38-.89-.95-1.14-2.07-.44-1.94,1.19-3.66,2.96-4.02,7.42-.9,14.25,1.3,21.35,1.87,9.44.75,23.29,3.34,29.99-4.76,1.46-2.02,1.66-4.64,2.05-7.46.42-4.44,3.84-8.49,8.22-9.52,4.06-.97,8.4.06,12.28-1.23,10.53-3.68,13.84-17.14,12.2-27.22"/>
    <path class="st1" d="M150.78,223.34c.83-.17.6-1.38.01-1.81-.14-.21-.53-.27-.43-.41.05-.8.14-2.07.37-2.49.1-.15.24.19.36.52.14.44.32,1.22-.1,1.64-1.64.82-2.28,3.25-.39,4.43.63.38,1.37.29,1.17-.52-.04-.16-.11-.22-.14-.05-.08.28-.03,1.7-.06,2.28-.06.97-.6-.8-.71-1.24-.12-.11.16-.23.31-.46.6-.59.55-1.88-.39-1.88M149.9,223.43c-.91-.06-.71-1.39-.1-1.92.19-.24.5-.37.4-.48,0-.51.02-.84.05-1.1.07-.46.16-.85.38-.3.22.55.53,1.93.7,2.19.21.27.28-.28.42-.48.16-.33.55-.4.99-.29,2.24.92,1.86,3.69-.06,4.64-.23.24-.28.28-.38.52-.15.44-.27.92-.43,1.22-.14.35-.25.71-.4.58-.34-.37-.6-1.61-.77-2.4.07-.13-.35-.2-.52-.4-.59-.35-1.04-1.59-.27-1.78"/>
    <path class="st1" d="M178.27,163.81c1.98-2.99-12.61-12.27-10.62-20.79l-11.83-16.19c.67-3.88,1.63-12.72-2.64-21.13-1.53-3.01-3.13-6.15-6.6-7.92-3.73-1.9-6.54-.64-7.92-2.64-2.19-3.17,2.84-9.21,1.32-10.56-.54-.48-2.03-.47-6.6,2.64-5.46,2.53-6.77,4.18-6.6,5.28.35,2.25,6.81,1.94,7.92,5.28.69,2.06-1.33,3.53-2.64,6.6-2.98,6.96.03,16.6,5.28,21.13,3.55,3.06,5.48,1.5,10.56,3.96,8.06,3.91,15.85,21.13,15.85,21.13,1.24,3.6,2.9,7.44,4.86,11.4,5.36,1.82,8.76,3.16,9.66,1.81"/>
    <path class="st1" d="M178.63,164.05c-.34.53-.96.73-1.43.76-3.07-.04-5.92-1.35-8.88-1.96l-.28-.07-.23-.38c-2-3.22-4.78-8.06-6.22-10.82-3.93-5.81-8.35-11.77-12.81-15.94-.38-.38-1.21-1.01-1.66-1.29-1.89-1.21-3.27-1.51-5.77-1.95-9.64-1.54-14.71-12.42-14.73-21.34-.25-4.23,2.04-9.79,4.47-12.68.01,0-.01.27.06.46.05.32.37.35.09.08-1.07-.88-2.74-1.32-4.33-2.2-1.84-.74-3.8-3.46-2.8-5.69,1.11-3.21,6.71-5.17,8.06-5.56,2.55-1.44,9.27-5.4,9.66.02-.11,3.05-5.56,9.62.32,9.69,5.58-.01,10.44,4.35,12.97,8.96,4.49,6.73,6.04,15.48,4.6,23.38l-.71-3.01c4.31,5.79,7.95,12.05,11.38,18.41-2.95,6.39,4.26,12.8,7.52,17.86.58.97,1.39,2.06.71,3.29M177.9,163.56c.43-1.53-1.7-3.35-2.66-4.56-4.27-4.74-10.7-9.21-10.02-16.55l.41,2.04c-5.06-5.23-9.8-10.73-14-16.66,1.27-7.14,1.8-14.57-.88-21.47-1.54-4.5-3.97-7.96-8.97-8.45-1.42-.19-3.29-.55-4.21-1.98-2.24-3.69.66-7.03,1.1-10.51,0-.13-.08.12.21.37.27.25.45.2.33.23-1.68.6-3.2,1.82-4.65,2.98-1.86,1.11-3.79,2.17-5.03,3.68-.14.18-.15.38,0,.09.21-.32.1-1.19-.2-1.54-.19-.26-.11-.17.17-.11l2.37.62c5.03,1.08,8.58,5.83,5.52,10.94-3.57,5.32-2.63,11.2.44,16.3,1.5,2.08,2.64,3.76,5.25,4.15,3.94.48,9.24,3.01,11.85,6.09,5.66,5.97,8.46,12.91,10.93,20.42.87,4.01,1.94,8.08,3.51,11.98l-.51-.45c2.33.99,4.64,2.07,7.08,2.62.76.16,1.66.2,1.92-.22"/>
    <path class="st1" d="M129.01,60.54c7.9,2.38,11.36,13.28,6.09,19.85-5.16,6.69-17.58,4.72-18.76-4.07-1.31-7.23,7.47-12.48,12.82-6.92,3.49,3.66.81,10.73-4.56,9.92-3.92-.29-5.72-6.08-1.86-7.88,2.23-1.14,5.28,1.12,4.1,3.51-.45,1.08-1.83,1.51-2.72.96-.12-.07-.03-.24.09-.2.87.29,1.79-.25,1.97-1.01.5-1.67-1.49-2.81-2.8-1.96-2,1.25-.84,4.52,1.48,4.48,1.43.1,2.84-.77,3.27-2.14,1.82-5.57-5.97-7.87-9.08-3.69-3.58,4.43-.37,11.6,5.32,12.1,7.84,1.17,12.89-7.33,11.01-14.26-.83-3.46-3.17-6.57-6.45-8.47-.12-.05-.03-.25.09-.2"/>
  </g>
</svg>