<?xml version="1.0" encoding="UTF-8"?>
<svg id="Layer_1" xmlns="http://www.w3.org/2000/svg" xmlns:xlink="http://www.w3.org/1999/xlink" version="1.1" viewBox="0 0 400 400">
  <!-- Generator: Adobe Illustrator 29.3.0, SVG Export Plug-In . SVG Version: 2.1.0 Build 146)  -->
  <defs>
    <style>
      .st0 {
        fill: none;
      }

      .st1 {
        fill: #000001;
      }

      .st2 {
        clip-path: url(#clippath);
      }
    </style>
    <clipPath id="clippath">
      <rect class="st0" x="53.78" y="60.52" width="292.44" height="278.95"/>
    </clipPath>
  </defs>
  <g class="st2">
    <path class="st1" d="M142.12,147.88c.26-6.23-.15-18.07-6.89-30.06-5.1-9.07-19.83-28.93-35.14-24.53-12.66,3.64-21.05,22.53-16.06,31.06,4.44,7.58,16.44,1.85,34.32,10.75,15.51,7.72,24.3,20.88,22.87,22.77-2.19,2.88-27.56-22.5-53.06-15.21-6.82,1.95-11.58,5.29-13.78,6.91-9.7,7.15-22.26,22.46-17.36,33.21,3.52,7.74,15.17,11.15,24.12,10.37,11.14-.98,20.69-8.7,35.62-20.77,3.72-3.01,10.81-8.99,20.68-9.68,2.93-.2,5.71-.36,7.23,1.38,3.26,3.73-2.96,11.95-9.65,28.33-7.01,17.18-4.48,18.67-9.65,25.92-6.47,9.06-19.75,19.75-28.6,15.9-8.83-3.85-12.31-21.75-6.89-34.21,4.19-9.64,11.15-10.11,44.45-32.14,9.48-6.27,11.55-7.97,13.9-9.26.8-.43,1.52-.75,2.3-1.11,15.2-7.05,22.79-10.57,30.53-9.98,10.04.76,16.99,8.06,20.46,11.71,7.08,7.43,15.8,22.05,11.03,29.03-3.89,5.68-16.42,3.34-41.48-1.34-19.89-3.71-23.51-6.64-25.71-9.37-2.78-3.45-4.02-8.33-3.1-29.72.95-22.18,1.43-33.26,7.58-42.5,10-15.03,32.49-26.66,43.76-19.01,11.93,8.1,11.88,34.11,1.38,42.51-5.89,4.7-11.95,1.37-22.53,3.84-15.07,3.52-25.15,15.52-31.35,25.23"/>
    <path class="st1" d="M141.78,147.87c.09-10.38-2.37-20.78-7.62-29.56-6.84-10.74-20.35-27.72-34.56-22.66-8.98,3.09-18.77,19.87-12.62,28.31,1.14,1.17,3.14,1.8,5.57,2.13,4.87.62,10.43.92,15.72,2.3,13.33,3.32,25.46,11.4,33.51,22.62,1.22,1.93,3.04,4.56,2.52,7.25-.14.76-.73,1.75-1.51,2.26-.91.6-1.77.64-2.23.63-2.45-.16-4.47-1.68-6.34-2.7-15.16-9.65-34.33-19.62-51.91-10.42-11.08,5.06-33.78,27.17-19.57,38.49,10.29,7.55,24.42,5.89,34.62-1.18,6.27-3.91,12.82-9.3,18.71-13.91,6.12-5.06,13.41-9.43,21.59-9.8,2.75-.12,6.31-.52,8.14,2.31,1.65,2.86.3,5.81-.63,8.48-2.03,4.93-4.4,9.54-6.48,14.32-2.1,4.75-4.04,9.57-5.67,14.48-1.85,5.02-2.23,10.29-4.85,15.12-5.73,9.13-13.95,17.47-24.65,20.13-19.13,3.13-21.91-28.03-14.46-40,2.85-5.03,7.82-8.11,12.41-11.08l13.29-8.27c8.79-5.52,17.46-11.26,25.96-17.21,2.04-1.38,4.64-3.4,6.89-4.44,2.23-1.1,5-2.37,7.2-3.41,9.74-4.41,21.01-10.32,32.1-6.76,13.93,4.09,30.15,23.78,30.56,38.37-.63,16.04-20.66,11.29-30.8,9.85-10.52-1.91-20.71-3.38-31.06-6.32-4.07-1.27-8.68-2.78-11.98-6.08-5.57-5.65-5.07-14.07-5.23-21.16.02-5.33.27-10.62.52-15.83.99-13.28.44-27.75,7.77-39.62,7.74-11.47,19.75-20.14,33.44-22.86,9.58-1.72,17.96,2.25,21.77,11.41,5.11,11.67,4.07,31.05-7.68,38.37-5.16,2.81-10.75,1.39-16.09,1.85-15.74.82-28.25,12.14-36.78,24.83-.24.36-.81,0-.58-.37,7.85-13.46,20.8-25.87,37.12-27.38,5.32-.69,10.86.35,14.62-1.97,3.84-2.36,6.07-7.07,7.19-11.78,2.32-10.8,0-28.69-13.47-29.97-14.75-.3-32.7,13.58-37.2,27.6-2.86,9.51-2.66,20.17-3.18,30.2-.21,5.23-.41,10.39-.37,15.51.35,11.57-.48,16.99,12.21,20.17,9.73,2.68,20.21,4.33,30.19,6.13,5.06.83,10.18,1.63,14.93,1.69,2.77-.07,5.03-.13,6.49-1.44,2.92-4.16-1.2-11.62-3.48-15.72-6.01-9.59-15.29-20.32-27.4-19.96-7.34.52-14.07,4.04-20.97,7-1.75.78-5.24,2.39-6.98,3.2-1.88.83-4.53,2.77-6.3,3.93-8.71,5.84-17.56,11.45-26.53,16.85l-13.43,8c-4.39,2.69-8.79,5.25-11.08,9.09-4.7,8.28-4.95,19.57-.88,28.11,2.05,4.27,5.85,7.13,10.71,6.15,9.42-2.05,17.81-10.07,22.99-18.07,2.42-4.39,2.98-9.88,4.79-14.63,1.71-5,3.72-9.86,5.89-14.64,2.14-4.78,4.59-9.45,6.58-14.17,1.18-2.83,2.74-7.52-1.7-7.9-6.22-.47-12.55,1.5-17.81,4.91-3.79,2.38-8.65,6.76-12.2,9.58-8.31,6.51-16.57,13.82-27.28,16.18-10.45,1.94-24.78-.77-29.47-11.54-5.37-14.88,12.79-33.7,25-39.97,17.9-9.87,38.54-1.96,54.32,8.25,1.91,1.12,4.9,3.18,6.83,3.92-.29,0-.73-.09-1.49.4-.69.45-1.11,1.26-1.06,1.94-1.11-3.08-3.82-6.09-6.18-8.61-6.9-7.04-15.7-12.44-25.25-14.94-5.99-1.86-13.1-1.48-19.45-3.54-11.44-4.62-7.49-19.89-2.09-27.75,3.84-5.91,9.87-10.93,17.1-11.73,9.93-.92,18.65,6.18,24.72,13.2,10.55,11.95,16.81,27.95,15.29,43.88-.02.44-.7.4-.69-.03"/>
    <path class="st1" d="M204.14,253.97c.81-3.54-5.06-5.23-14.82-15.9-17.61-19.26-15.74-32.46-27.78-36.67-11.23-3.93-22.58,4.55-23.91,5.57-11.45,8.82-16.24,26.6-9.86,35.21,1.23,1.66,3.7,3.5,23.79,6.76,20.6,3.34,18.6,4.12,39.95,3.95,6.88-.06,9.09-.47,12.62,1.08,8.71,3.81,9.6,12.62,15.51,22.81,11.65,20.11,26.72,17.78,28.73,30.37,1.83,11.42-8.27,27.79-23.43,30.06-15.22,2.29-27.85-10.78-31.35-21.77-1.98-6.23.23-7.82,5.38-36.59,2.96-16.52,2.67-18.46,5.17-24.88,3.28-8.43,7.5-19.28,17.57-24.53,7.26-3.79,11.24-1.37,16.31-6.17,5.81-5.49,5.95-13.87,6.22-17.37.66-8.79-2.5-21.25-12.75-28.33-11.27-7.8-27.08-6.3-35.83,1.04-12.23,10.24-8.69,29.39-6.76,40.13,1.48,8.22,4.25,14.81,6.76,19.65,8.61,16.61,32.29,47.93,59.95,43.54,11.6-1.84,27.27-10.35,30.32-25.22,1.83-8.93-.91-20.05-8.61-26.26-10.37-8.38-24.87-4.24-34.8-1.38-18.19,5.23-29.95,16.6-38.38,24.92-13.1,12.94-11.34,16.45-24.33,29.68-10.48,10.67-28.59,29.12-40.66,24.19-9.96-4.07-16.33-24.26-9.3-35.94,13.43-22.31,71.75-6.79,74.29-17.93"/>
    <path class="st1" d="M204.48,254.05c-3.4,12.15-66.76-5.13-75.07,21.9-3.04,9.95.52,24.22,9.63,29.61,8.53,3.94,18.83-5.26,25.17-10.6,10.1-9.25,19.7-19.19,26.96-30.87,8.46-11.64,19-21.73,31-29.7,7.27-4.73,15.58-8,23.98-10.15,8.75-2.32,17.8-3.94,26.91-.48,18.72,7.21,22.51,34.71,8.68,48.27-12.56,13.41-33.73,17.85-50.05,9.08-21.36-10.98-40.93-37.29-45.37-60.88-2.48-13.87-4.83-31.15,6.35-42.06,8.93-8.43,22.54-9.81,33.6-5.48,14.19,5.31,21.31,21.64,19.14,36.03-.6,7.16-3.71,15.34-10.88,18.23-3.99,1.4-8.27,1.31-11.93,3.34-2.38,1.19-4.56,2.76-6.46,4.65-5.77,5.72-8.94,13.83-11.77,21.4-2.43,7.91-2.95,16.39-4.64,24.52-.99,5.51-1.99,11.02-3.11,16.5-.68,4.32-3.06,11.75-2.12,15.96,3.65,13.49,18.44,25.46,32.68,21.25,6.15-1.88,11.41-6.23,14.77-11.71,3.69-6.05,6.18-14.6,1.36-20.3-5.83-5.48-14.23-8.68-19.72-15.31-4.02-4.38-7.19-9.52-9.6-14.73-3.51-7.35-5.55-14.72-13.39-16.44-10.61-.64-22.52.6-33.27-1.54-7.98-1.56-16.71-2.98-24.71-4.64-4.98-1.19-10.2-1.95-14.74-4.64-3.4-2.49-4.57-7.19-4.87-11-.76-17.75,14.38-34.8,32.28-34.95,10.09,0,15.23,6.92,19.04,15.29,4.8,10.06,11.06,19.36,19.08,27.11,2.95,2.98,6.28,5.5,9.35,8.36,1.04,1,2.1,2.41,1.72,3.97M203.81,253.89c.3-1.24-.58-2.37-1.55-3.31-3.07-2.81-6.44-5.35-9.4-8.3-8.07-7.78-14.63-17.09-19.67-27.08-5.32-11.55-13.04-16.71-25.67-12.17-12.49,4.38-21.49,17.65-20.51,30.91.37,2.87,1.15,5.9,3.31,7.63,4.03,2.02,8.78,2.55,13.24,3.43,9.59,1.32,23.36,4.17,32.71,4.72,5.38.28,10.97.18,16.48.11,2.82,0,5.99-.32,8.91.17,10.12,1.59,14.4,11.73,17.88,19.9,1.69,3.65,3.63,7.09,6.02,10.26,3.92,5.48,8.95,9.25,14.86,13,2.9,1.9,6.57,4.37,8.56,7.82,1.32,2.13,1.99,4.67,2.15,7.14.82,18.52-18.1,35.68-36.26,30.37-13-3.54-26.77-19.49-22.5-33.45,1.76-7.96,3.73-16.61,5.17-24.58,1.76-8.24,2.32-16.71,4.87-24.79,4.52-13.29,11.87-28.15,27.42-30.03,11.91-1.32,13.81-15.56,12.84-25.25-1.11-10.51-7.62-20.62-17.76-24.16-14.89-5.51-33.58,1.6-35,18.88-1.15,10.46.97,21.67,4.03,31.77,5.41,15.14,15.65,28.82,27.52,39.41,7.83,6.75,17.46,12.31,27.85,12.56,20.14.22,41.01-17.72,30.97-38.8-6.82-14.44-23.48-11.56-36.22-7.68-11.65,3.18-21.99,9.64-30.92,17.78-5.96,5.47-11.97,11.08-16.69,17.7-4.63,6.95-10.28,13.99-16.35,19.63-4,3.93-8.09,7.85-12.5,11.46-6.73,5.31-14.25,11.19-23.34,11.78-9.9.48-15.97-10.07-17.83-18.29-3.01-11.73.57-24.82,12.59-29.52,10.54-4.4,22.02-4.56,33.2-4.71,5.95-.5,29.98,1.88,31.58-4.32"/>
    <path class="st1" d="M264.92,134.37c-10.83-6.44-7.12-19.97-17.92-23.5-10.51-3.44-22.47,6.6-28.6,11.75-6.61,5.55-16.79,14.09-15.85,25.57.51,6.21,4.26,13.24,10.34,16.59,15.58,8.57,48.22-6.18,58.23-29.37,6.97-16.14-.05-29.36,12.06-43.54,2.41-2.82,7.11-8.18,14.47-9.68,18.5-3.75,41.21,19.53,37.56,32.14-2.42,8.36-16.38,11.81-17.57,12.09-8.05,1.9-8.51-1.52-19.64.35-8.94,1.49-17.26,5.14-19.64,6.22-.33.15-1.8.82-3.42,1.64-9.22,4.69-17.03,11.22-21.05,15.29-7.31,7.4-24.46,24.75-18.26,40.78,4.85,12.53,22.69,20.91,36.87,15.9,16.94-6,20.55-27.48,18.61-40.08-2.8-18.18-19.26-31.72-20.11-31.06-1.2.92,20.17,35.84,51.81,49.37,4.58,1.96,9.46,3.5,13.44,1.38,9.72-5.17,10.63-30.26-1.03-45.27-1.61-2.07-5.2-6.58-11.71-9.68-22.28-10.57-42.36,12.75-58.57,3.11"/>
    <path class="st1" d="M265.09,134.07c7.27,4.31,15.95,1.6,23.37-.98,7.65-2.71,15.54-5.72,24.05-5.55,22.75.43,36.3,25.84,33.29,46.64-3.39,20.58-17.11,18.22-31.87,10-14.91-8.08-27.3-19.93-37.7-33.19-3.25-4.47-6.94-8.96-8.86-14.39-.06-.36-.1-.37-.11-1.03-.21-.04.27-2.45,1.98-3.36,1.76-.79,2.88-.33,2.79-.35,1.52.41,2.45,1.24,3.53,2.05,8.41,7.14,14.86,16.28,18,27.11,7.23,28.22-11.44,60-43.13,47.43-12.98-5.14-22.34-18.56-17.51-32.65,4.14-12.33,13.41-21.57,22.72-30.13,9.46-8.21,20.64-14.34,32.65-17.85,3.97-1.2,8.04-2.15,12.22-2.58,4.03-.63,8.47.42,12.35.68,7.18-.43,16.3-3.7,20.41-9.89,3.8-7.04-2.14-15.37-6.95-20.57-5.42-5.64-12.49-10.16-20.19-11.56-11.83-2.53-21.94,7.34-26.03,17.56-2.88,7.51-1.97,15.66-3.18,23.75-2.91,25.1-31.39,46.53-56.16,44.64-11.79-.68-20.81-12.08-20.25-23.61.61-11.21,10-19.01,18.12-25.39,10.03-8.61,29.91-19.46,36.8-1.73,2.06,5.45,4.3,11.95,9.66,14.96M264.74,134.66c-5.53-3.03-7.95-9.66-10.09-15.22-7.01-16.9-25.36-5.36-34.47,3.27-5.91,5.22-12.14,10.6-14.79,18.18-2.46,7.04.53,15.23,6.06,19.84,5.78,4.73,14.03,4.24,21.02,2.41,14.73-4.06,28.54-14.09,35.42-27.91,3.54-7.17,3.91-14.93,4.73-22.96.91-16.86,15.79-35.96,34.15-31.65,12.35,3.08,23.03,12.15,28.33,23.7,1.71,3.95,2.44,8.92.01,12.8-2.32,3.77-6.16,6.07-10.02,7.85-3.91,1.68-7.92,3.09-12.25,3.14-4.26-.24-7.9-1.22-12.07-.53-15.85,2.24-30.86,10.11-42.61,20.92-12.01,11.71-31.02,32.86-14.83,48.46,7.85,7.37,21.01,10.49,30.6,5.5,13.12-6.93,16.4-26.08,12.74-39.47-2.77-9.13-9.17-18.38-16.72-24.07.44.07.77.59,2.85-.23,1.58-.87,2.05-3.12,1.84-3.04-.02-.53-.02-.41-.06-.65-.05-.21,0-.03.05.08,10,17.61,25.24,33.02,42.53,43.27,5.06,2.47,14.13,8.61,19.11,4.28,5.06-5.28,5.41-13.78,4.86-20.85-1.19-15.47-12.21-31.29-28.69-32.32-8.09-.67-15.98,2.19-23.63,4.61-7.62,2.45-16.62,5.17-24.04.6"/>
    <path class="st1" d="M223.57,93.24c-3.02-7.54,2.76-16.73,6.89-21.08,8.45-8.91,22.46-10.74,32.73-6.22,15.93,7.01,18.8,27.47,18.13,37.36-.29,4.33-1.38,8.34-3.31,15.51-2.92,10.8-4.38,16.2-7.02,16.63-4.82.78-5.76-15.09-18.95-26.26-12.78-10.83-24.84-6.89-28.47-15.94"/>
    <path class="st1" d="M223.89,93.11c5.33,11.92,26.95-.02,42.07,28.05,1.97,3.45,3.36,7.5,5.36,10.75.13.18.24.24.01.14-.27-.17-.78-.17-1.09-.07-.72.41-.15.18.17-.49,1.79-3.02,4.73-13.73,5.98-17.29,7.74-18.42,2.36-46-21.04-47.47-11.6-.94-24.04,3.87-29.92,14.52-2.02,3.52-3.1,7.96-1.54,11.87M223.25,93.37c-2.86-8.55,1.78-17.79,7.33-24.37,8.38-9.09,23-11.01,33.72-5.08,9.46,5.25,14.61,15.48,17.08,25.58.99,4.23,1.77,8.53,1.87,12.99.07,8.98-2.41,17.06-4.46,25.65-.93,3.08-1.81,7.38-4.76,9.71-4.53,3.23-8.65-.79-10.42-4.7-4.6-10.13-9.8-20.06-19.24-26.4-3.28-2.31-7.1-4.02-11.09-5.56-3.94-1.52-8.51-3.49-10.03-7.83"/>
  </g>
</svg>