<?xml version="1.0" encoding="UTF-8"?>
<svg id="Layer_1" xmlns="http://www.w3.org/2000/svg" xmlns:xlink="http://www.w3.org/1999/xlink" version="1.1" viewBox="0 0 400 400">
  <!-- Generator: Adobe Illustrator 29.3.0, SVG Export Plug-In . SVG Version: 2.1.0 Build 146)  -->
  <defs>
    <style>
      .st0 {
        fill: none;
      }

      .st1 {
        fill: #000001;
      }

      .st2 {
        clip-path: url(#clippath);
      }
    </style>
    <clipPath id="clippath">
      <rect class="st0" x="74.27" y="64.61" width="228.98" height="270.79"/>
    </clipPath>
  </defs>
  <g class="st2">
    <path class="st1" d="M235.34,191.88c-3.07.04-3.33-4.44-9.91-9.74-3.73-3-6.01-3.48-6.43-5.86-.44-2.51,1.46-5.6,3.84-6.74,6.28-3,19.42,6.01,18.78,14.44-.29,3.77-3.37,7.86-6.29,7.9M231.89,226.93c-1.92.13-2.02-3.61-7.48-10.27-2.53-3.09-4.15-4.3-4-6.4.16-2.23,2.24-4.34,4.38-4.84,4.38-1.04,10.07,4.44,11.09,10.41.87,5.12-1.63,10.95-3.99,11.11M233.25,265.74c6.53-2.4,17.19,4.68,21.36,14.06,1.9,4.27,2.14,8.29,1.88,11.8-5.32-8.27-13.11-15.7-20.83-17.11-1.86-.34-6.75-.88-7.22-3.12-.4-1.89,2.16-4.65,4.81-5.62M215.3,147.69c-.52-1.94-.23-4.64,1.41-6.2,3.88-3.68,14.15.21,14.87,5.54.3,2.24-1.12,4.41-2.6,5.53-4.23,3.22-12.29.37-13.68-4.87M212.19,98.29c-1.94-4.24,3.16-12.51,9.03-13.75,4.16-.87,7.79,1.97,10.88,4.34-2,1.56-3.67,3.22-4.87,4.41-4.45,4.43-6.09,8.03-9.63,8.12-2.16.06-4.54-1.21-5.41-3.12M211.89,286.68c-.29-.03.47-1.32,0-14.37-1.71-47.41-14.87-115.37-21.06-129.97-.47-1.1-2.07-4.67-.6-6.87,1.38-2.07,5.14-2.45,7.82-1.25,0,0,2.61,1.17,4.21,4.37,5.55,11.11,12.53,148.45,9.63,148.09M190.22,224.19c-5.68,6.47-5.91,10.19-7.82,10-2.35-.24-4.65-6.17-3.61-11.25,1.22-5.93,7.09-11.19,11.43-10,2.11.58,4.12,2.77,4.21,5,.08,2.11-1.58,3.25-4.21,6.25M191.13,297.61c-.83,4.96-1.59,8.99-2.22,12.34-2.15-3.07-4.87-6.66-5.6-12.34-1.65-12.88,8.44-25.47,10.53-24.68,1.34.51,0,8.56-2.71,24.68M177.59,193.58c-6.75,5.06-7.17,9.52-10.23,9.37-2.92-.14-5.86-4.34-6.02-8.12-.36-8.44,13.08-16.98,19.25-13.75,2.34,1.22,4.13,4.38,3.61,6.87-.5,2.37-2.79,2.76-6.62,5.63M149.61,253.25c-4.07,8.88-7.13,15.68-9.34,21.05-.69-11.52-9.03-31.25,1.52-46.04,6.4-8.98,18.12-13.85,21.36-10.94,2.43,2.18-1.3,9.22-13.54,35.93M128.55,205.76c-3.11,3.17-5.98,6.1-8.65,8.86,3.57-13,7.86-28.88,22.49-38.22,8.88-5.67,19.49-7.61,20.76-5.31,1.7,3.09-13.66,13.39-34.6,34.68M122.83,138.59c2.03-1.31,12.81-8.28,23.47-4.37,1.26.46,8.82,3.23,9.03,7.5.38,7.71-23.75,10.01-50.66,27.68,2.68-11.16,7.15-23.68,18.17-30.8M138.47,99.22c9.73-1.42,19.42,5.36,18.95,7.81-.57,3-16.06-2.12-34.3,3.13-.01,0-.03,0-.05.01,3.78-5.13,8.5-9.94,15.39-10.95M164.35,153.58c.9-5.3,11.29-8.81,15.04-5,1.59,1.62,1.78,4.33,1.2,6.25-1.57,5.19-9.72,7.74-13.84,4.37-1.43-1.17-2.78-3.4-2.41-5.63M250.7,127.03c2.16.07,4.11.69,5.9,1.69-11.1,1.25-19.76,8.21-20.34,7.06-.54-1.08,6.22-9,14.44-8.75M302.75,211.7c-1.01-3.69-4.09-5.74-6.32-7.19-31.55-20.4-46.94-28.12-46.94-28.12-3.82-1.91-5.53-2.76-5.41-3.13.34-1.08,17.38.78,32.79,10.31,14.05,8.69,19.3,19.14,23.17,17.19,3.34-1.69,3.03-11.34.6-18.75-6.26-19.1-29.03-30.66-47.84-29.68-6.57.34-11.74,2.17-11.73,2.19,0,.02,13.46-5.84,27.38-2.19,15.09,3.96,22.06,16.83,24.97,14.68,2.47-1.82-1.06-12.17-5.42-19.37-.75-1.25-2.19-3.61-4.31-6.26,1.97-5.14,2.46-12.09-.21-17.8-3.95-8.45-13.61-11.56-20.16-11.56-7.86,0-10.41,4.44-25.88,7.5-8.75,1.73-10.38.89-10.83,0-1.12-2.21,3.78-7.28,7.22-10,6.01-4.75,16.94-9.74,25.88-5.62,3.9,1.8,5.56,4.47,6.62,3.75,1.7-1.17-.24-9.81-5.41-15.62-4.98-5.58-13.11-8.73-20.16-7.4-.09-1.76-.42-3.58-.9-5.1-2.51-7.85-10.22-11.1-12.03-11.87-11.14-4.71-28.12-1.44-33.7,8.75-3.91,7.14-.14,14.32-1.2,41.86-.1,2.59-.29,6.51-2.11,7.19-3.05,1.13-8.1-7.89-13.84-15.62-3.59-4.83-16.52-22.23-33.1-28.74-11.82-4.64-33.69-6.99-42.12,6.25-6.09,9.56-3.25,24.24,1.77,31.89-10.84,7.09-20.74,17.76-23.13,32.16-1.94,11.69,1.41,23.8,5.9,31.79-6.06,5.4-10.21,11.01-10.71,18.2-1.05,14.98,14.11,31.68,26.28,34.13-3.98,5.99-5.75,11.16-5.22,16.48,2,19.86,31.03,35.9,40.46,30.78-1.94,6.21-1.89,9.72-.45,13.27,3.58,8.83,14.3,14.46,18.65,11.87,4.08-2.43.13-10.62,3.61-28.74,2.35-12.2,5.97-18.02,8.42-21.24,3.86-5.07,10.16-10.71,12.03-9.37,1.87,1.33-1.83,8.76-9.63,31.87-4.47,13.25-6,18.96-5.71,26.56.24,6.33.56,14.88,6.32,18.43,4.87,3,12.13,1.51,16.79-1.9.16,1.61.64,2.87,1.57,4.09,4.95,6.51,17,7.97,20.76,3.44,5.12-6.18-6.16-22.29-2.71-24.68,1.69-1.17,6.29,1.34,7.82,5,1.67,4-1.52,6.54-.6,11.25.98,5,6.07,9.73,11.73,10.31,6.8.7,13.87-4.65,14.74-10.31,1.05-6.85-7.52-10.73-12.64-26.87-1.47-4.63-1.35-6.17-.6-6.87,2.26-2.11,11.8,2.01,16.55,9.69,5.04,8.15,1.64,15.44,6.32,18.43,3.46,2.21,9.75,1.08,12.04-2.5,1.57-2.47,1.41-6.5,0-11.09,8.74-2.97,22.7-14.85,21.65-25.78-1.64-17.13-40.4-34.21-49.94-34.99-.74-.06-3.28-.2-4.21-1.88-1.4-2.52,1.2-7.67,4.21-10,7.01-5.42,21.84.14,31.59,8.43,13.83,11.77,14.3,26.35,19.56,25.93,5.28-.42,12.27-15.69,8.42-28.12-5.23-16.92-30-26.74-48.44-34.05-5.35-2.12-8.87-3.19-8.72-4.06.35-2.1,21.99-4.92,37.61,5.94,13.25,9.21,14.86,23.19,21.36,22.18,4.84-.75,9.17-9.29,7.52-15.31"/>
    <path class="st1" d="M302.91,211.65c1.52,5.58-2.16,15.18-8.33,15.59-1.52.07-2.89-.93-3.9-2.02-2.63-2.99-4.39-6.58-6.75-9.76-8.86-13.41-25.18-19.04-40.35-18.06-2.28.26-5.03.27-6.93,1.56.76.75,1.99,1.06,2.99,1.51,7.23,2.76,14.45,5.56,21.54,8.74,10.49,4.84,21.5,10.29,28.79,19.88,5.04,6.42,6.32,15.37,4.32,23.28-1.29,4.91-3.82,12.38-9.28,13.57-3.02.09-4.39-3.18-5.63-5.41-1.78-3.58-3.47-7.12-5.61-10.38-2.11-3.27-4.58-6.26-7.41-8.86-7.35-6.84-26.8-18.08-34.31-6.96-1.11,1.83-2.8,5-.89,6.47,2.39,1.05,5.63.82,8.13,1.84,14.44,4.52,52.08,21.58,44.91,41.59-3.9,9.72-12.31,16.82-21.62,20.61l.94-1.9c1.41,4.53,2.36,10.98-1.88,14.31-4.98,4.12-14.6,3.26-15.68-4.26-.63-3.3-.66-6.73-1.77-9.77-1.98-5.79-7.09-10.55-12.64-12.64-1.14-.36-2.25-.7-3.19-.42-.12,1.11.8,4.48,1.41,6.07,2.06,6.39,5.42,11.75,9.31,17.27,1.34,2.03,2.72,4.2,3.04,6.83.62,8.24-7.51,13.98-14.66,14.35-7.42.22-14.9-5.72-15.31-13.66-.07-2.77,1.12-5.14,1.23-6.82.33-2.46-2.05-5.1-4.26-6.07-.39-.18-.79-.3-1.09-.32-.32-.05-.47.06-.31-.04.14-.16.04-.13.04.24-.02.32.07.81.15,1.28,1.49,6.7,5.94,13.3,4.1,20.51-2.58,6.73-11.2,6.25-16.63,4.38-4.46-1.56-9.49-5.17-9.89-10.49l2.61,1.23c-5.57,3.92-13.63,5.63-19.51,1.32-5.67-4.42-5.94-12.77-6.2-19.18-.36-13.36,5.61-25.62,9.55-37.99l4.32-12.13c.78-2.37,1.86-5.12,2-7.22.03.12.25.28.34.31.19.05-.1-.02-.45.16-.33.12-.74.33-1.13.58-3.17,2.08-6.14,5.22-8.6,8.42-8.45,11.93-9.74,27.89-9.56,42.33.33,6.6-2.9,9.97-9.45,8.09-8.33-2.67-16.17-11.12-15.16-20.68.24-2.32.82-4.5,1.47-6.61l2.06,1.8c-10.64,4.49-26.42-6.21-33.56-13.92-9.83-10.56-12.35-23.26-3.46-35.48l.85,2.17c-11.34-2.95-20.09-12.16-24.92-22.87-5.57-12.61-1.07-23.59,8.79-31.83l-.27,1.66c-9.35-16.67-9.15-38.87,3.8-53.46,4-4.8,8.77-8.83,13.89-12.19l-.35,1.73c-5.7-9.48-7.62-22.09-2.32-32.21,5.69-10.19,18.5-12.24,28.86-11.19,21.82,1.36,38.74,18.2,50.87,35.66,1.77,2.41,5.11,7.55,6.98,9.66,1.02,1.04,2.24,2.81,3.59,2.59.22-.08.5-.47.69-.99,1.05-3.63.66-7.89.87-11.72.09-5.39-.02-10.78-.29-16.16-.11-4.64-1.09-11.84.23-16.5,5.48-16.18,30.17-18.22,42.03-8.93,4.49,3.26,7.47,8.75,7.6,14.45l-1.05-.86c7.21-1.26,14.67,1.55,19.95,6.64,3.86,3.99,6.62,9.14,7.21,14.81,0,1.24.16,2.41-1.16,3.32-.77.36-1.45.02-2.02-.34-3.05-2.46-6.29-4.46-10.19-4.82-10.05-.75-20.33,5.15-26.32,13.28-.5.83-1.21,1.93-.69,2.69,1.65.87,3.86.32,5.8.18,6.83-.97,13.53-2.79,19.91-5.57,3.23-1.41,6.74-2.68,10.31-2.57,10.64-.08,22.11,7.51,22.43,19.38.24,3.7-.33,7.43-1.64,10.88l-.09-.59c4.11,5.24,7.37,11.18,9.45,17.59.69,2.46,1.6,5.07.89,7.7-1.79,4.65-8.15-3.49-10.3-4.82-11.76-10.8-28.35-12.31-42.72-6.7-.09.02,0,.02-.27.08-.13.02-.31-.06-.39-.15-.06-.1-.16-.06-.03-.38.24-.28.29-.19.28-.22l.07-.03.15-.05c21.68-6.88,50.05,3.98,59.05,26.32,1.84,4.67,2.7,9.8,2.39,14.84-.17,1.67-.43,3.43-1.47,4.88-1.13,1.7-3.28,1.29-4.67.25-3.92-2.98-7.1-6.82-10.89-9.94-11.52-9.76-26.62-16.59-41.37-17.11.28.38,1.45.91,1.91,1.19,14.47,7.31,28.3,15.94,42.05,24.59l8.22,5.26c2.74,1.71,5.53,3.96,6.43,7.32M302.59,211.74c-.89-3.26-3.6-5.42-6.29-7.1l-8.22-5.25c-13.76-8.63-27.58-17.22-42.06-24.5-.38-.3-3.03-1.29-1.86-1.96,2.31-.47,4.72.16,7.02.49,12.67,2.45,24.9,7.95,34.85,16.55,3.78,3.1,6.99,6.95,10.86,9.89,1.22.87,2.94,1.33,3.92-.13,1.73-2.68,1.49-6.38,1.26-9.51-.34-3.29-1.04-6.57-2.29-9.61-8.89-21.97-36.95-32.68-58.27-25.81-.06.03-.16.04-.21.07-.05,0-.05.09.14-.17.04-.28,0-.27,0-.39-.02-.11-.16-.21-.25-.21,1.85-.79,4.74-1.65,7.01-2.15,12.71-3.2,26.66-.23,36.59,8.77,2.47,1.87,4.77,4.68,7.49,5.95,2.81.54.83-6.15.33-7.72-2.05-6.24-5.3-12.09-9.33-17.19l-.21-.27.12-.32c2.42-6.46,2.26-14.41-1.87-20.07-4.16-5.57-11.22-8.29-17.88-8.38-3.4-.08-6.59,1.11-9.8,2.52-6.45,2.85-13.29,4.73-20.24,5.75-4.03.67-10.25.8-6.56-5.23,8.47-11.79,26.67-19.91,38.65-9.1.31.23.61.25.41.24-.08.02.13-.11.14-.5.06-.32.07-.73.04-1.13-.54-5.06-3.23-10.06-6.71-13.6-5.13-4.97-12.59-7.51-19.43-5.95.04-5.6-2.5-10.87-6.95-14.06-10.92-8.55-34.02-6.72-39.1,7.96-1.15,4.15-.26,11.42-.12,15.84.28,5.42.41,10.87.33,16.3-.22,4.21.25,8.33-.99,12.47-1.78,4.6-5.8,1.49-7.69-.98-2.08-2.46-5.29-7.21-7.12-9.79-11.92-16.99-28.17-33.33-49.39-34.63-9.67-.9-21.39.72-26.69,10.08-4.98,9.43-2.75,22.11,2.97,30.69-5.32,3.41-10.3,7.51-14.35,12.41-12.5,14.15-12.25,35.59-2.91,51.45l-.8.71c-6.12,5.31-11.29,12.39-10.14,20.9,1.77,13.73,14,27.18,27.14,29.5l-1.15,1.72c-8.13,11.18-5.65,22.36,3.27,31.88,6.39,6.9,20.81,16.73,30.19,13.26l3.13-1.64c-1.46,4.75-3.62,10.53-1.75,15.11,2.07,5.42,6.99,10,12.41,11.69,4.42,1.06,5.72.1,5.61-5.13-.48-19.68,2.83-44.12,21.23-54.43,1.53-.76,3.97-.28,4.34,1.96.27,3.18-1.24,6.24-2.08,9.06l-4.3,12.17c-3.74,11.96-9.62,23.9-9.32,36.68.33,5.99.25,12.68,4.86,16.55,4.59,3.32,11.22,1.74,15.63-1.37l2.32-1.67.28,2.91c.09.95.32,1.75.75,2.5,2.73,4.16,8.04,6.05,12.76,6.1,3.76-.01,7.31-1.4,6.83-5.94-.31-4.25-2.14-8.39-3.5-12.52-1.29-3.41-2.67-9.46,2.73-9.09,4.53.8,8.72,5.18,8.32,10.14-.22,2.46-1.26,4.23-1.22,6.45.28,5.81,6.48,10.53,11.86,10.25,5.17-.16,11.85-4.6,11.47-10.45-.16-1.7-1.31-3.5-2.48-5.3-4.56-6.31-8.75-13.62-10.75-21.43-3.27-11.21,8.27-7.42,13.2-3.3,5.7,4.06,9.44,11.17,9.8,18.35.25,2.25.47,4.42,1.38,5.65,2.09,2.62,7.35,2.1,9.82.05,3.48-3.04,1.63-8.43.53-12.35l1.36-.49c8.35-3.29,16.45-10,19.99-18.69,4.55-12.98-12.83-23.48-22.01-29.06-8.34-4.49-17.09-9.08-26.42-10.48-2.25-.07-5.16-1.65-5.07-4.42.24-4.66,3.01-8.42,6.85-10.5,7.66-3.21,16.1.38,22.96,4.04,6.88,3.9,12.97,9.45,17.23,16.3,2.76,4.18,4.52,8.87,6.99,13.11.73,1.09,1.46,2.09,2.7,2.06.76-.14,1.53-.46,2.15-1.06,5.66-5.59,7.52-14.98,6.45-22.86-1.17-7.86-6.67-14.15-12.64-18.78-13.2-10.16-29.21-15.14-44.21-21.65-1.78-1.1-.16-2.09,1.08-2.42,5.69-1.46,11.63-1.12,17.38-.28,11.52,1.68,22.55,7.79,29.2,17.88,2.33,3.16,4.1,6.8,6.67,9.75,6.62,6.97,13.65-7.01,11.6-13.15"/>
    <path class="st1" d="M250.69,127.2c-3.32.01-6.12,2.13-8.4,4.14-1.52,1.27-3.44,2.99-4.45,4.54,0-.07.03-.18.01-.3.04-.7-.86-1.5-1.41-1.33.26,0,.67-.19,1.06-.33,5.94-2.64,12.4-5.65,19.06-5.62l-.15.78c-1.67-1.19-3.68-1.9-5.71-1.88M250.7,126.85c2.47.15,4.91.91,7.18,1.97-7.43,1.42-13.81,4.86-20.44,8.54-1.21.56-2.8-.13-2.84-1.68-.02-.32.05-.63.13-.92,2.72-6.3,10.01-8.45,15.97-7.91"/>
    <path class="st1" d="M164.51,153.61c-.17,8.18,13.46,6.33,14.97.08,1.89-8.97-13.94-6.47-14.97-.08M164.18,153.55c2.4-8.55,19.12-11.44,17.94.59-1.57,10.58-18.86,11.56-17.94-.59"/>
    <path class="st1" d="M138.5,99.39c-6.43,1.02-10.56,6.67-14.08,11.83l-1.78-2.73c10.9-3.73,22.46-1.59,33.56-1.6.21-.04.37-.13.36-.12-.02.02,0,.17-.01.01-.81-1.89-2.95-3.24-4.65-4.33-3.94-2.41-8.73-3.84-13.38-3.06M138.45,99.05c5.87-.63,12.19.62,17.19,4.13,1.33.99,3.69,3,2.24,4.91-.94.92-2.1.87-3.17.98-5.9.11-11.81-.37-17.61.28-6.22.6-12.5,2.19-18.52,3.75l3.17-3.98c4.07-5.36,10.1-9.33,16.7-10.06"/>
    <path class="st1" d="M122.92,138.74c-10.27,6.75-13.89,19.47-16.61,31.08l-2.55-1.91c10.06-6.84,21.25-11.52,32.44-15.86,5.42-2.22,11.24-3.86,16.12-7.09,6.19-4.38-3.14-9.14-7.05-10.4-7.46-2.68-15.87-.13-22.34,4.18M122.74,138.44c6.74-4.21,14.98-7.28,22.87-5.09,5.62,1.3,15.47,7.2,7.86,13.22-8.48,5.61-18.39,8.12-27.23,12.73-8.41,3.98-16.41,8.82-24.24,13.82,2.72-13.52,8.84-27.42,20.74-34.69"/>
    <path class="st1" d="M128.43,205.64c9.93-10.79,20.11-21.33,30.91-31.15.9-.96,1.84-1.88,2.27-2.88.03-.08-.03.1.1.31.27.35.03.03-.38-.02-11.19-.31-22.7,6.81-29.48,15.99-5.67,7.82-8.86,17.34-11.71,26.81l-.43-.26c2.98-2.85,5.86-5.81,8.72-8.79M128.66,205.88c-3.15,3.17-6.27,6.37-9.28,9.68l.26-1.02c2.35-9.69,4.88-19.6,10.63-27.86,6.38-9.41,16.63-15.93,27.57-17.95,1.64-.21,3.59-.5,5.34.29,1.94.81,2.11,3.2,1.1,4.72-2.17,3.45-5.09,5.74-7.92,8.37-9.03,8.19-19.05,15.13-27.71,23.78"/>
    <path class="st1" d="M149.46,253.17c3.78-8.56,7.08-17.42,10.38-26.13.81-2.49,2.6-6.12,2.2-8.35-.07-.11-.84-.46-1.72-.41-6.67.59-13.08,5.35-17.3,10.66-3.68,4.95-5.34,11.09-5.44,17.39-.24,9.41,2.66,18.49,3.24,27.92l-1.06-.19c3.36-6.91,6.67-13.83,9.7-20.9M149.76,253.32c-3.51,7.63-6.68,15.44-9.8,23.24l-.24-2.23c-2.13-14.84-8.57-31.57.12-45.55,3.13-5.27,7.9-9.4,13.25-12.1,3.43-1.46,8.32-3.7,11.69-.12.83,1.11.84,2.59.65,3.88-.53,2.84-1.73,5.42-2.83,7.83-4.09,8.52-8.88,16.53-12.84,25.03"/>
    <path class="st1" d="M177.49,193.43c2.83-2.53,8.06-4.18,4.77-8.7-3.77-5.43-12.2-1.06-16.07,2.6-4.17,3.71-5.25,9.64-1,13.72,2.55,2.46,4.18.65,6.06-1.62,1.89-2.21,3.99-4.21,6.24-5.99M177.69,193.71c-2.32,1.65-4.31,3.76-5.89,6.17-1.9,3.26-4.17,5.19-7.67,2.5-8.77-7.75-.8-18.83,7.52-22.42,2.97-1.3,6.37-2.06,9.55-.5,3.11,1.75,4.98,5.51,3.79,9.06-1.43,2.97-5,3.23-7.29,5.19"/>
    <path class="st1" d="M190.96,297.58c.99-6.88,1.01-14.02,1.62-20.94.04-.88.1-1.83-.02-2.6,0-.05-.04-.09.06.1.06.22.73.63.95.56.41-.03.15-.03.02.07-1.73,1.2-3.06,3.02-4.3,4.79-6.43,9.58-7.01,20.64.01,30.09l-.88.2c.98-4.06,1.89-8.14,2.54-12.27M191.29,297.64c-.9,4.48-1.51,9.01-2.03,13.55-2-2.48-4.04-4.98-5.39-8.05-3.6-8.2-1.42-17.84,2.86-25.28,1.35-2.29,2.87-4.6,5.09-6.15.46-.23.81-.59,1.91-.61,6.35.28-2.22,22.18-2.44,26.55"/>
    <path class="st1" d="M190.1,224.08c1.18-1.63,3.44-3.62,3.42-5.65-.15-1.78-1.96-3.24-3.45-3.71-1.43-.43-3.28.18-4.97,1.31-5.32,3.29-7.38,11.86-3.29,16.95,1.08,1.65,2.47-1.59,3.88-3.27,1.42-1.94,2.91-3.78,4.41-5.62M190.35,224.31c-2.51,2.59-4.1,5.76-5.7,9.01-2,3.78-5.22.32-6.12-2.31-2.65-6.19-.47-13.61,4.63-17.77,2.19-1.78,5.21-2.91,8.05-1.79,2.72,1.2,4.73,4.12,4.08,7.24-.96,2.79-3.28,3.61-4.94,5.62"/>
    <path class="st1" d="M211.91,286.5c1.14-12.94-.41-26.31-1.04-39.35-1.05-13.89-3.26-45.9-4.3-59.35-1-13.14-1.92-26.36-3.67-39.4-.8-4.37-.77-9.71-4.6-12.38-1.7-1.43-5.58-1.56-6.97.16-1.36,2.14.88,5.82,1.55,8.14,6.34,20.58,9.65,42,13.04,63.25,3.43,24.57,6.09,49.33,6.27,74.17-.02.93-.11,3.64-.21,4.65-.04.1.08.22-.08.1M211.87,286.85c-.28-.09-.2-.3-.21-.46l.02-.32.04-.62c.67-26.04-3.4-51.98-7.44-77.6-3.62-21.05-7.19-42.33-13.72-62.63-.81-2.39-2.22-4.85-2.23-7.52.02-5.95,7.77-6.87,11.54-4.03,4.69,3.12,5.1,9.21,5.99,14.26,1.02,6.59,1.75,13.18,2.43,19.78,2.59,25.93,3.99,53.27,4.36,79.35.15,9.94.26,19.87.21,29.81-.13,3.21.08,6.51-.62,9.65-.07.09-.05.28-.37.32"/>
    <path class="st1" d="M212.34,98.21c.99,1.91,3.35,2.71,5.16,2.35,1.84-.33,2.84-1.91,4.18-3.58,2.6-3.53,5.96-6.7,9.56-9.28v2.37c-3.51-3.03-7.73-6.24-12.24-3.69-3.81,2.14-8.4,6.96-6.67,11.83M212.04,98.36c-1.5-5.02,2.04-10.9,6.13-13.57,4.81-3.4,10.8-.19,14.77,2.9l1.56,1.08-1.54,1.29c-4.22,3.43-7.09,8.33-11.71,11.42-3.2,1.91-7.67.23-9.21-3.11"/>
    <path class="st1" d="M215.46,147.65c1.8,6.08,15.51,6.53,14.63-1.06-2.22-6.39-16.94-9.13-14.63,1.06M215.14,147.74c-1.7-8.75,6.72-10.16,12.72-6.9,6.57,3.05,7.04,11.07.22,14.25-5.35,2.13-11.56-1.93-12.94-7.35"/>
    <path class="st1" d="M233.3,265.91c-1.91.81-4.94,3.24-4.13,5.51,1.75,1.7,4.57,1.25,7.02,1.66,5.74.76,10.71,4.58,14.57,8.72,2.56,2.8,4.81,5.85,6.79,9.07l-2.35.64c.81-6.5-1.36-12.88-5.51-17.79-3.95-4.63-10.04-9.8-16.4-7.81M233.19,265.58c9.69-2.23,19.74,6.78,23.14,15.73,1.76,4.44,1.59,9.48,1.23,14.15l-2.14-3.12c-4.97-7.11-11.6-13.7-19.77-16.32-2.52-.83-6.15-1.12-7.72-4-.82-3.16,2.96-5.56,5.26-6.45"/>
    <path class="st1" d="M231.88,226.76c3.9-1.57,3.24-8.85,2-12.03-1.62-5.11-8.86-12.26-12.31-4.87-.27.87-.11,1.58.51,2.5,2.1,2.76,4.48,5.64,6.01,8.85.86,1.57,1.52,3.26,2.49,4.75.33.47.77.85,1.29.81M231.9,227.11c-.69.04-1.23-.49-1.54-.98-.98-1.5-1.78-3.11-2.86-4.53-2.12-2.97-4.62-5.25-6.97-8.05-2.11-2.3-1.07-6.1,1.14-7.88,5.78-5.03,13.82,1.69,15.39,7.99,1.1,3.86-.11,8.04-2.26,11.23-.74.98-1.6,2.12-2.89,2.22"/>
    <path class="st1" d="M235.34,191.71c4.3-.67,6.16-6.74,4.5-10.47-2.52-6.18-15.06-16.38-19.48-7.29-1.32,2.94.92,4.16,3.09,5.67,2.34,1.73,4.49,3.79,6.23,6.15.88,1.17,1.67,2.4,2.48,3.59.79,1.14,1.77,2.45,3.18,2.35M235.34,192.06c-1.56.05-2.58-1.36-3.45-2.49-2.5-3.5-5.75-6.33-9.37-8.49-1.16-.8-2.47-1.34-3.67-2.74-2.2-3.2-.22-7.14,2.35-9.23,7.48-5.07,20.85,3.84,21.64,12.49.46,4.58-2.96,10-7.5,10.47"/>
  </g>
</svg>