<?xml version="1.0" encoding="UTF-8"?>
<svg id="Layer_1" xmlns="http://www.w3.org/2000/svg" xmlns:xlink="http://www.w3.org/1999/xlink" version="1.1" viewBox="0 0 400 400">
  <!-- Generator: Adobe Illustrator 29.3.0, SVG Export Plug-In . SVG Version: 2.1.0 Build 146)  -->
  <defs>
    <style>
      .st0 {
        fill: none;
      }

      .st1 {
        fill: #000001;
      }

      .st2 {
        clip-path: url(#clippath);
      }
    </style>
    <clipPath id="clippath">
      <rect class="st0" x="89.71" y="76.61" width="220.59" height="246.79"/>
    </clipPath>
  </defs>
  <g class="st2">
    <path class="st1" d="M187.72,117.34c3.76,4.05,14.85,24.48,14.98,7.64.39-9.09.03-18.17-.56-27.25-.16-3.63-.28-7.51,1.58-10.79,8.5-13.76,34.85-13.82,43.34.03,3.88,6.8,2.99,19.98-7.13,11.32-4.48-3.52-9.63-5.66-14.37-1.2-3.71,3.09-6.99,10.72-.14,12.13,3.86.77,5.99-3.21,8.39-5.52,3.88-3.94,8.03-7.93,13.55-9.48,11.22-2.86,23.29,4.81,26.45,15.62.45,1.89,1.34,4.04.09,5.86-.43.62-1.46.43-1.96.1-2.58-1.85-5.15-3.65-8.34-4.23-5.32-1-10.79.42-15.59,2.78-4.63,2.36-9.38,5.78-11.97,10.28-.93,2,.92,1.8,2.38,1.85,7.15-.48,14.41-2.36,21.1-5.02,3.42-1.4,7.07-2.92,10.88-2.84,3.82.01,7.58.86,11.04,2.44,7.19,3.04,11.74,10.76,10.98,18.45-.42,5.04-2.12,11.03-6.86,13.78-6.41,2.83-10.78-6.79-14.2-10.49-2.23-2.81-4.68-5.49-7.7-7.15-6.15-3.77-14.81.25-18.18,5.32,0-.16-.04-.27-.21-.5-.3-.29-.47-.23-.55-.26,2.74-1.04,5.7-2.83,8.51-3.85,15.6-6.7,30.38-1.62,39.9,12.03,3.02,4.11,10.97,17.55,7.17,22.08-1.94,1.76-4.34-.37-5.78-1.46l-4.23-3.5c-11.3-9.89-26.77-11.19-40.52-6.05.53-.05-1.46.48-1.87-.64-.58-.91,1.63-2.6.9-1.85l.71-.22,1.38-.38c20.77-5.26,46.26,4.28,55.71,23.89,2.4,5.2,5.36,17.2.25,21.38-2.93,1.89-5.85-.8-7.83-2.49-3.93-3.54-8.11-7.55-12.48-10.44-8.81-6.04-19.24-10.01-29.84-11.65-1.25-.17-2.57-.33-3.79-.28-.11,0-.42.08-.1-.03-.07.02.36-.12.64-.66.33-.77-.08-1.49-.23-1.57,1.06.61,3.41,1.77,4.66,2.34l-.7-.16c.98.17,1.02.36,1.14.38l.43.21.86.43c1.18.56,3.93,2.07,5.11,2.66,11.17,6,22.35,12.52,33.16,19.1,7.89,4.62,15.3,8.46,11.23,19.1-2.13,5.9-9.03,10.98-14.02,4.64-4.6-6.05-8.14-12.72-14.5-16.96-9.53-6.7-23.86-9.34-34.83-6.56.08.02.49-.83.19-1.3-.19-.37-.22-.29-.18-.29,11.22,4.62,22.87,8.28,33.67,14.17,14.98,7.82,27.05,19.78,21,37.81-1.41,4.53-6.35,14.06-12.27,9.81-3.73-3.96-4.94-9.08-8.06-13.36-6.62-10.02-17.93-17.7-30.06-18.92-4.74-.45-8.89,1.93-10.43,6.36-.38.97-.4,2.02-.16,2.38.15.36,1.07.78,2.14.88,10.31,1.4,19.91,6.27,28.96,11.16,14.43,8.31,30.1,21.11,14.54,37.13-4.63,4.79-14.12,12.29-21.23,10.68-3.55-1.28-2.5-5.72-2.02-8.48.89-4.77,1.09-9.61-1-14.04-2.87-6.12-9.08-11.92-16.04-12.68-2.59-.22-5.77,1.23-6.48,3.77,0,.08,0,.05.05.13,1.64,1.32,4.1,1.32,6.28,1.82,13.07,3.16,24.8,18.96,26.94,31.66.36,2.8.01,6.15-2.3,8.2-3.49,2.91-8.47,3.55-12.4,1.31-3.87-2.44-3.07-7.86-3.99-11.33-.48-2.34-1.4-4.51-2.78-6.43-2.66-3.73-6.94-6.98-11.41-8.05-.58-.2-1.78-.19-2.07.03-.05.05-.11.58-.03,1.1.07.53.2,1.11.35,1.68,1.32,4.71,3.38,9.28,6.07,13.4,2.53,4.41,7.69,8.56,6.64,14.23-1.4,5.68-6.77,9.2-12.28,10.06-6.97,1.03-14.51-4-15.67-10.99-.64-5.44,4-8.56-2.23-12.66-.67-.48-2.05-1.01-2.67-.77-.02-.01-.06.14-.08.32.67,6.79,6.37,13.37,3.88,20.48-4.53,8.48-22.48,3.56-24.37-4.98-.71-4,.5-7.9,1.13-11.73,1.96-9.87,3.82-19.84,5.28-29.77.16-1.57.54-3.65.27-5.11,0-.06-.03.03.19.19.3.18.41.11.41.13-2.07,1.11-3.66,3.6-4.95,5.6-13.54,23.87,11.86,26.92,1.68,38.46-4.79,4.73-12.58,7.02-18.95,4.11-5.27-2.49-6.68-8.71-7.08-13.86-1.4-10.33,2.2-20.39,5.68-29.92,2.52-7.15,5.28-14.23,7.87-21.35.54-1.8,1.51-3.79,1.4-5.61,0-.04.07.09.06.03-.12-.05-.72.11-1.18.34-8.04,4.71-13.3,13.02-15.62,21.91-2.01,7.22-2.87,14.71-2.74,22.2-.2,3.25.86,7.54-2.37,9.77-1.93,1.12-4.43.82-6.41.24-7.48-2.45-14.51-9.43-14.07-17.64,1.35-10.24,6.89-19.24,10.97-28.55,5.19-11.44,11.58-22.51,15.84-34.27,2.07-5.98-7.22-2.31-9.72-.89-6.48,3.48-11.84,9.39-13.5,16.6-1.18,4.76-1.01,9.79-.34,14.72.66,4.95,1.9,9.83,2.71,14.89.48,3.69,1.25,8.87-2.43,11.46-6.12,3.37-13.42.08-19.15-2.54-9.11-4.77-17.66-12.03-20.89-22.06-4.78-15.06,12.4-28.68,21.65-38.54,12.4-12.72,26.21-24.06,39.43-35.89.83-.86,1.76-1.84,2.1-2.72.09-.45.12-.34-.28-.59-5.25-.98-11.04,1.62-15.79,3.79-9.12,4.46-15.65,12.69-19.38,21.94-2.94,6.96-4.57,14.42-7.02,21.59-2.55,8.26-7.92,14.61-17.4,11.67-13.69-4.36-27.63-21.11-23.17-35.78,3.57-9.96,13.3-15.52,21.41-21.45,14.54-10.55,31.59-16.6,48.13-23.19,11.93-4.85,4.35-10.34-3.93-12.59-4.89-1.18-10.08-.26-14.72,1.61-9.6,3.65-16.53,11.89-19.98,21.33-1.83,4.69-3.07,9.59-4.15,14.51-1.29,4.05-2.1,16.96-8.1,16.1-3.94-.92-6.36-4.57-8.45-7.67-5.27-8.7-7.74-19.2-6.29-29.29,4.25-25.3,33.99-40.86,58.11-41,3.66-.13,7.81.18,11.49.32,1.26.03,2.57.11,3.74-.15,2.63-.82-2.39-4.06-3.43-4.6-6.55-3.68-15.23-4.26-21.48.3-6.38,4.35-9.62,11.65-14.68,17.28-7.07,7.74-13.67-4.62-15.15-10.76-1.95-7.22-1.89-15.82,3.01-21.9,4.82-6.2,13.29-8.02,20.81-8.06,21.75-.4,38.39,13.38,50.84,29.72M187.47,117.54c-12.42-16.24-28.93-29.94-50.59-29.53-5.67.07-11.56.99-16.34,4.14-8.42,5.28-9.61,16.51-7.06,25.32,1.38,4.62,3.54,9.82,7.88,12.36,5.28,2.43,8.43-4.45,11.11-7.81,2.88-4.13,5.89-8.39,10.14-11.35,7.45-5.4,18.39-3.9,25.17,1.88,3.64,3.6-1.09,3.62-3.73,3.47-3.66-.1-7.82-.44-11.47-.31-10.2.1-20.28,2.58-29.34,7.21-13.41,6.63-25.86,18.09-28.17,33.35-1.42,9.92,1.04,20.31,6.23,28.86,1.97,2.95,4.37,6.49,8,7.36,5.18.78,6.19-11.9,7.33-15.6,1.07-4.94,2.31-9.88,4.14-14.63,3.47-9.6,10.58-18.09,20.35-21.82,7.13-3.12,15.73-3.04,22.39,1.3,2.18,1.28,4.78,3.96,3.27,6.68-3,4.22-8.9,5.43-13.42,7.47-14.32,5.31-28.36,11.46-40.8,20.33-7.9,5.79-17.52,11.37-20.93,20.93-3.03,9.72,2.85,19.81,9.78,26.49,5.75,5.32,15.47,11.73,22.95,6.27,4.64-4.26,5.85-10.86,7.69-16.65,3.77-14.64,10.17-30.22,24.77-37.19,2.36-1.57,19.53-7.97,18.23-1.39-1.83,3.55-5.31,5.8-8.14,8.47-3.86,3.32-7.73,6.59-11.54,9.94-7.66,6.66-14.91,13.74-22.14,20.86-8.71,9.34-25.72,22.89-21.17,36.89,3.91,12.58,20.88,24.92,34.18,24.65,16.97-1.65-15.88-40.96,16.87-58.88,3.11-1.6,9.65-4.5,12.4-.94.68,1.23.39,2.73.08,3.96-.74,2.56-1.79,4.87-2.82,7.2-7.29,16.13-15.9,31.64-22.18,48.16-.8,2.34-1.5,4.73-1.65,7.09-.51,7.85,8.18,16.02,16,15.99,3.86-.39,2.52-5.7,2.76-8.46-.03-15.07,2.58-32.04,14.63-42.52,1.81-1.5,6.86-6.28,8.87-2.85.48,1.26.12,2.35-.14,3.49-1.05,3.72-2.5,7.23-3.81,10.83-3.43,9.43-7.23,18.91-9.82,28.56-1.7,7.05-1.69,14.87.55,21.76,2.62,7.39,12.21,7.16,17.92,3.49,4.49-2.8,6.29-6.38,2.47-10.94-3.18-3.99-6.07-9.01-6.04-14.34-.12-6.7,2.49-13.08,6.55-18.26,1.17-1.32,2.33-2.91,4.29-3.46.31-.04.76-.11,1.33.24.48.35.62.73.7.97.52,2.28.05,4.03-.15,6.18-1.68,12.52-4.56,24.85-6.49,37.28-1.34,7.65,8.16,11.27,14.51,10.74,9.72-.61,4.56-10.92,2.63-16.53-.68-2.32-2.22-5.02-.92-7.48,2.61-3.06,7.49.51,9.21,2.95.82,1.18,1.46,2.7,1.4,4.27-.03,1.56-.54,2.85-.83,3.99-1.52,4.37,1.76,8.87,5.85,10.93,4.12,2.25,9.33,1.3,13.02-1.54,8.08-6.33,1.37-11.48-2.56-17.71-2.85-4.37-5.01-9.11-6.43-14.13-2.89-9.7,7.91-5.93,12.21-2.58,4.4,3.06,7.89,7.76,8.91,13.04,1.02,3.48,0,7.44,2.83,9.63,2.64,1.58,6.87.92,9.07-1.04,3.07-3.21.92-8.98-.6-12.77-3.96-8.68-10.59-17.2-19.39-21.3-3.63-1.89-8.29-.76-11.35-3.95-2.1-3.23,1.72-6.53,4.47-7.74,9.24-3.1,19.31,5.85,22.92,13.66,1.14,2.46,1.77,5.16,1.89,7.84.34,4.16-1.06,8.16-1.13,12.14.06.16.05.43.13.51.03.05.05.1.07.16.03.05.09.05.11.09.75.59,1.97.3,3.22.06,7.94-2.49,15.28-8.38,19.29-15.62,8.26-15.05-20.56-28.54-31.62-33.25-4.03-1.6-8.13-3.16-12.4-3.93-2.21-.27-4.93-.32-6.31-2.59-1.54-3.04.21-6.29,1.97-8.71,4.42-6.13,13.13-5.29,19.39-3.15,14.69,4.84,23.99,15.19,30.25,28.82.8,1.26,1.37,2.7,2.63,2.96,1.35-.17,2.32-1.26,3.26-2.45,4.05-5.67,5.56-13.63,3.79-20.31-5.37-18.05-35.41-26.78-51.66-33.22-1.27-.58-2.52-.76-3.35-2.19-.44-.76.1-1.96.42-2.14.91-.86,2.03-1.06,3-1.32,7.16-1.39,14.59-.73,21.63.98,10.3,2.37,19.58,9.09,25.17,17.9,2.29,2.71,4.89,9.77,8.95,7.4,1.72-.99,3.12-3,3.94-5.07,3.52-8.69-3.68-11.32-9.93-15.24-10.76-6.55-21.89-13.04-33.01-19-1.78-.95-4.54-2.39-6.32-3.26-.17-.13-.42-.08.28-.05l-.7-.16-2.49-1.19c-1.05-.59-2.28-.91-3.29-2.04-.19-.14-.51-1.01-.16-1.74.35-.64.86-.86.91-.86.74-.28.9-.21,1.25-.27,12.75.61,25.14,5.46,35.66,12.51,4.52,3.03,8.74,7.07,12.72,10.73.96.85,1.87,1.64,2.93,2.19.77.27.99.37,1.58-.46,2.16-5.22.38-12.06-1.74-17.12-9.01-18.76-33.87-27.73-53.59-22.15l-.61.19c-.79.76,1.15-.82.69-1.78-.3-1.16-2.18-.67-1.55-.76l.34-.12c10.65-3.71,22.91-4.35,33.26.63,5.04,2.27,9.52,6.13,13.68,9.64.86.59,1.75,1.5,2.57,1.59,0,0-.02.04,0-.02,0-.02.02-.02.04-.03.02-.03.03-.09.05-.14.36-1.16-.01-3.22-.42-4.54-1.47-5.1-4.01-9.91-7.1-14.25-8.86-12.83-22.5-17.67-37.18-11.4-2.41.91-5.1,2.3-7.46,3.41-.72.26-1.93,1.02-2.82.15-.64-.66-.26-1.61.09-2.18,4.51-6.32,13.7-9.9,20.81-5.8,6.89,3.95,10.15,11.17,15.02,16.15,1.22,1.21,2.67,2.13,4.05,1.89,4.8-1.46,6.49-8.02,6.92-12.56,1.11-11.66-9.22-19.15-20.22-19.15-7.1.16-13.78,4.85-20.92,5.99-7.17,1.63-22.38,4.76-11.21-6.66,6.66-6.32,16.19-10.84,25.57-9.2,2.79.58,5.4,1.92,7.61,3.67.5.29.96.82,1.48.91.07-.01.06.04.12-.06.13-.11.24-.52.26-.9-.59-12.08-13.84-21.87-25.72-18.86-7.12,2-11.98,8.08-16.97,13.15-2.73,2.99-8.4,2.18-9.82-1.77-.96-3.86,1.54-7.49,4.22-9.99,2.77-2.63,7.13-3.61,10.59-1.75,3.39,1.41,5.85,4.5,9.3,5.65,4.09.61,3.71-5.45,3.3-8.1-1.03-7.35-7.89-12.28-14.75-14.07-10.13-2.53-23.47-.45-29.32,8.94-1.81,3.15-1.7,6.93-1.55,10.52.56,9.08.9,18.19.48,27.29-.41,17.5-11.67-2.94-15.64-7.46"/>
    <path class="st1" d="M200.17,140.78c1.91-2.48,6.09-2.21,8.27-1.03,5.48,3.1,5.21,10.15,6.45,15.52.96,5.83,1.72,11.67,2.45,17.52,2.87,23.4,4.33,46.94,5.2,70.49.2,11.9,1.18,23.72.07,35.62-.16.72-.6,1.51-1.53,1.49-.28.1-1.1-.44-1.1-.63-.12-.16-.21-.59-.19-.58-.02-.2,0-.44.01-.57l.09-1.08c.6-22.71-2.46-45.4-5.65-67.86-3.23-20.27-6.21-40.82-12.7-60.37-.87-2.66-3.04-5.74-1.37-8.53M200.43,140.96c-1.56,2.6.58,5.7,1.41,8.24,6.45,19.6,10.24,39.97,13.93,60.24,3.52,21.81,6.55,43.87,6.67,66-.01,1.16-.09,2.37-.17,3.53v-.05c0,.05-.05-.33-.16-.44.02-.15-.75-.67-.99-.56-.51-.02-.84.27-1.01.56.43-2.64.29-5.86.3-8.65-.62-29.09-3.49-67.62-5.17-96.83-.41-5.86-.86-11.73-1.52-17.56-.9-5.26-.4-12.07-5.58-15.21-2.02-1.17-5.95-1.45-7.73.74"/>
    <path class="st1" d="M190.02,152.75c7.36,8.62-6.54,17.19-13.62,10.31-7.55-8.24,7.18-15.37,13.62-10.31M189.79,152.98c-4.19-4.2-18,2.71-11.61,8.27,4.63,3.73,16.2-2.11,11.61-8.27"/>
    <path class="st1" d="M191.13,182.44c2.55,1.34,4.63,3.97,4.09,7.1-.96,2.86-4.17,3.96-6.21,5.83-2.62,1.97-4.71,4.36-6.92,6.85-1.93,2.33-5.18,2.18-7.27.12-4.21-3.78-4.29-10.03-.45-14.06,3.93-4.41,10.86-7.83,16.75-5.84M190.99,182.72c-5.73-2.23-11.84,2.41-15.26,6.61-2.86,3.37-2.76,8.21.77,11.07,2.36,1.76,2.96.36,4.54-1.72.84-1.08,1.75-2.2,2.77-3.19,2.01-1.96,4.47-3.58,7-4.71,1.24-.58,2.37-.99,2.8-1.8,1.07-2.1-.54-5.15-2.62-6.26"/>
    <path class="st1" d="M200.34,211.57c2.9.67,5.95,3.83,4.51,6.98-2.58,4.36-6.33,7.55-8.97,11.88-.37.48-.65,1.01-1.49,1.6-.8.61-2.2.51-2.97-.05-3.92-3.21-4.05-9.42-2.09-13.64,2.07-3.9,6.37-7.48,11.02-6.78M200.26,211.88c-4.46-1.02-8.02,3.5-9.47,7.11-1.35,3.35-.93,8.44,1.91,10.81.12.06.19.05.22.06,0-.03-.1,0-.06-.03.07-.05.39-.49.63-.91,1.99-3.95,4.88-7.76,8.41-10.47,3.02-1.86,1.42-5.52-1.64-6.55"/>
    <path class="st1" d="M225.84,146.5c-4.81,6,6.54,12.23,11.31,8.66,6.59-5.33-6.96-12.72-11.31-8.66M225.62,146.26c6.62-4.83,21.08,2.8,13.25,10.78-7.3,6.63-20.93-2.44-13.25-10.78"/>
    <path class="st1" d="M231.68,172.18c-2.12,1.03-3.83,4.02-2.83,6.16.4.82,1.52,1.28,2.74,1.9,2.49,1.22,4.88,2.93,6.83,4.95.99,1.03,1.86,2.18,2.66,3.29,1.5,2.14,2.06,3.56,4.47,1.88,3.63-2.74,3.9-7.57,1.16-11.04-3.27-4.32-9.22-9.17-15.02-7.14M231.54,171.89c5.96-1.79,12.76,1.86,16.54,6.41,3.69,4.16,3.4,10.41-.95,14.04-2.16,1.98-5.41,2.04-7.26-.37-2.12-2.56-4.12-5.02-6.67-7.08-1.97-1.94-5.14-3.15-6-6.04-.43-3.15,1.75-5.71,4.34-6.96"/>
    <path class="st1" d="M233.51,205c-3.09.93-4.82,4.52-1.87,6.49,3.43,2.84,6.18,6.74,8.03,10.76.23.43.52.88.59.94.04.04-.07,0-.06.03.02,0,.1,0,.22-.05,2.92-2.27,3.52-7.34,2.29-10.73-1.31-3.66-4.72-8.29-9.21-7.43M233.44,204.69c4.67-.54,8.84,3.18,10.77,7.15,1.82,4.29,1.47,10.49-2.57,13.56-.8.52-2.19.58-2.97-.06-.82-.62-1.08-1.16-1.44-1.65-2.49-4.42-6.12-7.73-8.55-12.18-1.32-3.2,1.83-6.25,4.75-6.82"/>
  </g>
</svg>