<?xml version="1.0" encoding="UTF-8"?>
<svg id="Layer_1" xmlns="http://www.w3.org/2000/svg" xmlns:xlink="http://www.w3.org/1999/xlink" version="1.1" viewBox="0 0 400 400">
  <!-- Generator: Adobe Illustrator 29.3.0, SVG Export Plug-In . SVG Version: 2.1.0 Build 146)  -->
  <defs>
    <style>
      .st0 {
        fill: none;
      }

      .st1 {
        fill: #000001;
      }

      .st2 {
        clip-path: url(#clippath);
      }
    </style>
    <clipPath id="clippath">
      <rect class="st0" x="78.92" y="24.4" width="272" height="342.6"/>
    </clipPath>
  </defs>
  <g class="st2">
    <path class="st1" d="M211.57,105.87c-5.7,3.89-22.79,14.2-23.11,21.2.06,1.56,1.41,2.37,2.66,3.08,2.79,1.39,5.33,3.7,6.41,6.72,1.73,4.36,1.74,9.81-1.23,13.66-2.02,2.64-5.48,3.16-8.4,4.1-13.64,3.99-19.6,20.14-18.06,33.2,1.31,5.94,3.38,11.86,5.18,17.7l5.6,17.65c2.32,2.13,4.93,8.32,3.84,12.61-1.04,6.12-5.58,9.58-11.75,9.12-2.39-.14-3.44,1.33-5.89,2.09-11.24,4.37-23.59,2.3-35.1,4.22-9.47,1.3-14.23,8.56-14.23,17.79.03,2.84.7,5.54,1.71,8.31,1.81,5.72,3.03,11.51,4.05,17.36,2.15,14.49,3.85,30.61-3.03,44.15-6.14,10.83-18.39,15.97-29.78,19.15l-4.28,1.16c-1.65.5-3.38.8-4.76,1.56-.07.02.06.05.18-.37.12-.43-.2-.91-.4-.98-.24-.1.13.02.39-.01,4.66-.37,9.35-1.47,14.04-2,8.8-1.19,17.76-1.57,26.63-1.49,3.93-.24,12.92.79,14.49-3.6.5-2.42-1.55-5.23-1.77-7.89-.33-1.26-.44-3.4-.45-4.75l.26-2.38c.08-.8.35-1.54.51-2.31,2.42-8.58,9.2-15.52,11.56-23.81,1.67-5.33,1.51-11.11-.37-16.37-1.35-4.22-4.04-7.77-5.54-12.11-1.51-4.42,1.76-8.14,6.27-7.7,7.3.85,14.42,1.87,21.7.72,12.5-1.69,22.17-9.02,35.28-4.11,2.96,1,5.74,2.56,8.24,4.11,4.98,3.05,10.1,5.75,15.43,8.1,5.32,2.36,10.82,4.45,16.3,6.65,21.97,8.8,43.45,18.6,64.42,29.65,5.22,2.84,10.4,5.79,15.33,9.35,9.4,6.8,13.32,13.9,7.98,25.23-.78,1.73-1.57,3.22-2.18,4.86l-.24.82c-.06.46-.12.86-.02.96-.03.26.66.78,1.74,1,1.05.24,2.33.25,3.59.06,5.68-.64,12.61-5.32,11.23-11.67-1.23-3.76-4.85-5.71-7.94-8.54-2.52-2.15-4.34-4.47-6.31-6.7-6.66-7.77-13.52-15.83-18.88-24.61-2.47-3.03-5.83-5.82-9.35-7.43-2.37-1.13-5.17-1.76-8.11-2.74-8.72-2.87-17.21-8.94-21.87-16.86-4.8-7.12-11.35-12.69-18.22-17.85-4.85-3.36-10.12-7.59-13.3-12.76-2.68-3.62-3.88-8.19-5.94-12.05-2.01-3.52-4.65-7.01-7.67-9.63-4.11-3.57-10.24-7.78-13.5-12.16-5.64-7.74-8.32-19.25-2.8-27.74,3.38-4.69,9.05-7.16,10.46-13.05.84-2.51.95-5.16,1.11-8.18.33-6.06,1.16-11.89,2.26-17.91,1.12-5.97,4.32-11.68,7.57-16.63,3.24-4.58,4.25-9.43-.23-13.14-1-.92-2.21-1.85-3.37-3.03-2.45-2.35-3.94-5.94-3.86-9.39.07-4.85,3.11-9.07,4.9-13.1,2.47-5.19,4.22-10.66,5.26-16.3,1.8-7.57.18-16.97,6.15-23,.63-.55,1.29-1.05,1.94-1.56l1.05-.65c2.85-1.65,6.05-2.22,8.69-2.98,2.44-.67,4.39-2.06,4.56-4.54-.15-2.45-.69-6.16-.37-8.85.26-3.83,1.25-7.54,2.53-11.1.23-.67.51-1.43.59-1.87.04-.08-.03-.19.07.16.06.21.31.47.58.59.34.11.52.07.64.03.13-.06.07-.02.11-.05-.14.13-.23.19-.38.35-4.98,6.24-10.76,14.36-19.77,14.21-1.44-.03-2.84-.41-4.17-.18-5.75,1.49-6.84,8.21-8.52,13.21-.93,2.84-2,5.67-3.42,8.31-5.61,10.58-15.99,17.45-20.69,28.54-2.47,5.29-4.29,10.92-5.38,16.69l-.49-.09c1.85-11.7,6.69-23.08,14.73-31.88,4.91-5.52,9.54-11.11,12.07-18.01,2.72-6.66,2.92-16.74,11.26-19,2.98-.42,5.7.61,8.58-.62,5.35-1.92,9-6.71,12.36-11.21.67-.86,1.36-1.88,2.31-2.59.2-.11.29-.2.59-.3.3-.09.66-.16,1.18.03.46.16.82.59.96.96.4,1.43-.29,2.5-.57,3.61l-.67,2.07c-1.26,4.07-1.88,8.31-1.51,12.53.08,1.41.46,2.7.46,4.57,0,3.72-3.42,6.72-6.68,7.48-4.31,1.23-8.1,1.96-10.88,5.26-2.66,3.22-2.68,7.39-3.15,11.59-.25,2.93-.57,5.94-1.07,8.91-.99,5.97-2.83,11.83-5.38,17.3-4.39,8.94-7.8,13.85,1.57,20.8,4.14,3.21,5.77,9.6,3.35,14.34-1.9,4.09-4.74,7.64-6.52,11.6-1.83,3.6-2.78,8.09-3.3,12.11-.65,4.31-1.13,8.61-1.32,12.96-.11,3.86-.48,7.99-2.06,11.62-1.87,5.14-7.01,8.05-10.13,12.1-4.15,6.74-1.55,15.95,2.83,22,2.93,3.89,9.09,8.11,12.79,11.35,2.43,2.09,4.49,4.51,6.28,7.03,2.77,3.56,4.43,8.1,6.2,12.12,3.16,6.45,8.26,10.96,14.19,14.98,4.85,3.57,9.47,7.45,13.68,11.88,4.17,3.99,6.82,9.89,10.83,13.73,1.95,1.84,4.29,3.52,6.63,4.97,5.04,3.31,10.41,3.98,16.09,6.44,2.96,1.35,5.63,3.29,7.9,5.43,4.6,4.02,6.88,9.87,10.77,14.47,5.38,6.5,10.88,13.92,16.89,19.78,2.15,1.9,4.57,3.63,6.8,6.21,6.75,7.58.81,18.12-7.82,20.97-5.42,2.42-16.85,2.2-15.1-6.37,1.35-4.72,4.88-9.23,4.79-14.09.4-9.36-16.09-17.12-23.3-21.46-20.66-11.06-42.09-20.98-63.83-29.79-10.96-4.36-22.19-8.8-32.22-15.17-11.9-7.69-19.41-5.86-32.26-1.59-8.68,2.6-18.05,3.01-26.96,1.61-2.85-.39-6.11-1.04-6.89.26-1.41,1.93.56,4.37,1.39,6.38,1.35,2.58,2.77,5.32,3.77,8.24,4.67,13.22-1.11,23.6-7.88,34.36-1.78,3.13-3.3,6.24-3.9,9.68l-.24,2.01.07,2.02c.15,2.91,1.44,5.49,2.07,8.43.72,2.73-1.25,5.99-3.72,6.95-4.41,1.92-9.18,1.48-13.72,1.59-8.81-.12-17.55.21-26.28,1.34-4.82.51-9.52,1.65-14.4,1.95-.46-.04-.87.07-1.76-.38-.52-.27-1.05-1.11-.84-1.91.41-1.28,1.3-1.48,2.14-1.88,11-3.26,23.07-5.68,31.7-13.7,12.78-11.62,10.52-33.51,8.29-49.14-.96-5.76-2.15-11.54-3.86-17.07-2.16-5.61-2.48-12.32,0-17.94,4.76-12.96,20.81-11.17,31.91-11.73,5.83-.25,11.71-.78,17.09-2.83,1.36-.5,2.61-1.12,3.93-1.81,1.58-.61,3.11-.21,4.7-.39,6,.02,9.13-6.58,8.19-11.89-.43-2.87-2-5.49-3.77-7.75-1.77-6.19-6.52-20.55-8.21-26.57-.86-2.98-1.79-5.9-2.39-9.02-1.02-9.37,1.43-19.19,7.33-26.56,2.01-2.42,4.46-4.49,7.25-5.97,2.74-1.5,5.89-2.1,8.78-3.08,9.05-3.38,6.92-18.34-1.28-21.64-7.74-3.91,1.61-11.51,5.35-14.69,4.82-3.9,9.97-7.34,15.19-10.65l.27.42Z"/>
  </g>
</svg>