<?xml version="1.0" encoding="UTF-8"?>
<svg id="Layer_1" xmlns="http://www.w3.org/2000/svg" xmlns:xlink="http://www.w3.org/1999/xlink" version="1.1" viewBox="0 0 400 400">
  <!-- Generator: Adobe Illustrator 29.3.0, SVG Export Plug-In . SVG Version: 2.1.0 Build 146)  -->
  <defs>
    <style>
      .st0 {
        fill: none;
      }

      .st1 {
        fill: #000001;
      }

      .st2 {
        clip-path: url(#clippath);
      }
    </style>
    <clipPath id="clippath">
      <rect class="st0" x="99.34" y="56.92" width="222.5" height="286.16"/>
    </clipPath>
  </defs>
  <g class="st2">
    <path class="st1" d="M208.08,124.28c-16.93,11-19.98,16.16-19.07,18.8.77,2.25,4.23,2.2,6.48,5.9,2.03,3.35,2.45,8.3.6,11.79-2.57,4.84-7.33,2.83-13.31,7.37-7.48,5.67-9.96,16.32-9.6,23.71.09,1.94.37,3.26,2.98,12.07,2.42,8.18,4.52,14.91,6.02,19.63.53.61,4.19,4.97,3.09,10.43-.6,2.98-2.44,4.88-3.09,5.54-10.03,10.29-46.04,7.18-49.3,12.16-.45.69-.86,1.47-.86,1.47-.7,1.41-1.08,2.93-1.9,5.9-3.16,11.45-10.39,27.95-24.86,60.95-5.24,11.96-7.13,15.78-5.13,18.91,3.21,5.03,11.92,1.23,33.84,1.04,20.96-.18,30.05,3.15,34.86-3.15,2.58-3.39,2.35-7.49,2.05-12.6-.69-11.97-6.54-16.85-13.65-33.33-5.27-12.21-7.91-18.33-5.4-21.25,4.97-5.78,22.76,9.5,39.55,1.03,5.11-2.58,4.01-4.26,8.19-5.7,14.57-4.99,33.92,7.08,44.45,20.62,1.93,2.48,6.68,9.01,9.9,18.68,6.6,19.87-1.31,28.92,5.13,35.7,7.46,7.87,18.19-4.39,44.88,1.29,5.65,1.2,13.57,3.54,16.63-.24,2.47-3.05.65-8.7.4-9.46-1.07-3.3-2.17-4.79-7.8-9.83-1.64-1.47-4.73-5.28-10.92-12.9-6.76-8.33-7.17-10.41-9.06-12.9-.97-1.28-1.86-2.09-2.1-2.33-6.1-6.01-16.16-22.32-30-31.33-13.03-8.48-24.91-7.58-25.78-14.37-.32-2.48,1.18-3.2,1.18-7.68,0-1.46-.01-8.32-5.13-13.65-.56-.58-4.42-4.5-10.25-5.25-3.59-.46-4,.78-6.15,0-5.36-1.93-7.94-11.46-6.52-18.51.21-1.03.44-2.4,1.29-3.98,2.64-4.91,7.94-5.61,9.75-13.84.91-4.14.13-6.54,1.85-17.73.32-2.07.44-3.11.67-4.02,2.77-11.26,9.69-14.72,8.16-21.26-1.31-5.55-6.91-5.69-8.16-11.79-.88-4.31,1.31-7.21,3.72-12.53,8.31-18.37,2.3-28.22,10.2-33.79,4.76-3.35,9.98-1.92,11.88-6.27,1-2.29-.13-3.42,0-8.11.2-7.47,3.26-12.03,2.4-12.53-1.32-.77-6.37,11.34-15.23,12.29-2.63.28-3.61-.63-5.76.25-4.4,1.8-5.44,7.74-6.84,12.29-5.05,16.47-15.38,17.01-21.47,36.24-1.13,3.57-1.73,6.56-2.04,8.35"/>
    <path class="st1" d="M202.56,173.55c-.04-15.76,1.87-39.65,12.12-66.22,6.11-15.84,13.59-28.53,20.27-38.09"/>
  </g>
</svg>