<?xml version="1.0" encoding="UTF-8"?>
<svg id="Layer_1" xmlns="http://www.w3.org/2000/svg" xmlns:xlink="http://www.w3.org/1999/xlink" version="1.1" viewBox="0 0 400 400">
  <!-- Generator: Adobe Illustrator 29.3.0, SVG Export Plug-In . SVG Version: 2.1.0 Build 146)  -->
  <defs>
    <style>
      .st0 {
        fill: none;
      }

      .st1 {
        fill: #000001;
      }

      .st2 {
        clip-path: url(#clippath);
      }
    </style>
    <clipPath id="clippath">
      <rect class="st0" x="72.69" y="68.72" width="282.32" height="283.25"/>
    </clipPath>
  </defs>
  <g class="st2">
    <path class="st1" d="M212.46,69.17c-.83.74,3.36,4.92,7.18,14.11,3.16,7.59,5.43,13.06,3.75,18.76-2.24,7.6-10.67,12.65-17.94,14.11-13.52,2.71-25.56-7.3-26.91-5.29-.47.7.48,2.75,7.18,8.81,2.44,10.5,3.4,22.87-3.59,29.97-8.81,8.95-21.71.83-39.47,8.82-12.19,5.48-10.01,11.06-30.5,31.74-21.17,21.37-33.09,25.09-32.29,35.26.81,10.25,13.78,17.48,16.14,18.8,10.88,6.07,15.25,1.32,24.41,5.92,16.7,8.39,12,29.1,27.62,35.22,8.73,3.42,19.97.77,21.53-3.53.46-1.25.1-2.7-5.38-10.58-8.4-12.06-11.54-14.39-10.76-17.63,1.36-5.66,12.8-6.4,12.56-8.81-.22-2.14-9.2-2.4-16.15-3.53-21.34-3.46-41-17.9-39.47-24.68.99-4.35,10.07-2.78,23.32-10.58,8.23-4.84,13.7-10.73,16.95-14.77,3.92,11.82,7.52,25.99,2.79,28.88-2.09,1.27-4.78-.25-8.97-1.76-9.22-3.33-25.79-7.23-34.09-1.76-8,5.27-9.52,15.27-12.56,35.26-1.91,12.58-2.22,23.23-2.1,30.85-.96.25-17.99,4.89-21.22,18.51-1.9,8,1.97,14.79,3.59,17.63,9.71,17.06,35.33,25.65,53.82,19.39,11.04-3.73,19.42-12.72,19.73-12.34.36.45-13.98,8.83-12.56,15.87,1.19,5.91,13,8.5,19.73,8.81,3.54.17,14.17.66,21.53-7.05,4.61-4.83,8.54-13.51,5.38-17.63-3.62-4.72-12.25,2.14-25.12,0-18.83-3.13-20.07-21.12-43.06-28.21-11.88-3.67-21.51-1.94-21.53-1.76-.02.27,23.41-3.77,41.26,8.82,12,8.45,11.61,17.45,23.32,21.16,10.04,3.18,13.21-2.53,25.12,0,13.18,2.81,17.07,10.44,26.91,15.87,21.03,11.6,58.84,5.01,68.17-14.11,8.69-17.8-8.29-44.48-23.32-58.18-19.66-17.93-43.05-20.12-43.06-31.74,0-6.44,7.19-7.29,12.56-19.39,6.78-15.28.38-25.36,5.38-28.21,7.03-4.02,28.78,10.72,35.88,31.73,4.48,13.26-2.1,14.87,1.79,28.21,6.89,23.6,28.45,30.95,36.2,54.23,1.35,4.06,3.44,10.6,1.48,18.06-1.84,7.01-6.35,11.43-5.38,12.34,1.25,1.18,7.26-7.58,16.15-8.82,15.02-2.09,27.97,18.74,32.29,15.87,2.54-1.69-.4-9.93-.81-11.08-6.14-17.22-23.52-26.05-31.48-29.47-7.3-21.6-14.26-39.52-19.73-52.89-11.37-27.75-8.95-17.83-23.32-51.13-11.67-27.04-15.46-38.68-26.91-42.32-7.45-2.37-13.97.17-21.53-5.29-6.36-4.59-9.3-11.27-10.76-15.87,3.15-.81,8.28-2.63,12.56-7.05,7.81-8.06,7.37-18.7,7.18-22.92-.46-10.13-5.08-17.17-7.33-20.52-6.16-9.13-15.04-15.08-16.15-14.11"/>
    <path class="st1" d="M212.22,68.91c.39-.28.7-.19.94-.16.25.04.48.12.69.2.43.17.84.37,1.23.59.79.43,1.52.92,2.24,1.44,1.44,1.03,2.79,2.16,4.08,3.35,2.58,2.38,4.91,5.02,6.95,7.87,4.09,5.64,7.11,12.23,7.85,19.21.71,6.87.23,14.19-3.21,20.46-1.7,3.1-4.08,5.86-6.95,7.99-2.88,2.13-6.21,3.63-9.67,4.54l.47-.83c1.3,4,3.21,7.84,5.9,11.06,2.69,3.18,6.12,5.89,10.12,7.04,3.99,1.22,8.36.86,12.83,1.58,4.44.69,8.84,2.85,11.91,6.18,3.16,3.25,5.31,7.13,7.33,10.96,1.99,3.86,3.77,7.78,5.51,11.7,3.48,7.85,6.88,15.71,10.45,23.49,1.78,3.89,3.59,7.76,5.49,11.58,1.88,3.83,3.92,7.56,5.87,11.45,3.86,7.78,7.17,15.71,10.5,23.63,6.61,15.86,12.76,31.92,18.44,48.14l-1.57-1.69c9.83,4.17,19.22,10.1,26.23,18.62,3.48,4.24,6.13,9.26,7.82,14.48.41,1.31.77,2.65,1.04,4.08.24,1.46.49,2.92.16,4.97-.24,1.04-.69,2.55-2.38,3.7-.86.53-1.84.76-2.69.75-.37-.02-.76-.05-1.12-.11-.29-.07-.58-.15-.87-.24-2.03-.75-3.1-1.65-4.27-2.49-2.23-1.7-4.13-3.39-6.1-4.98-1.95-1.59-3.91-3.09-5.92-4.38-4-2.58-8.34-4.31-12.3-3.74-1.98.23-3.96,1.03-5.88,2.17-1.94,1.15-3.73,2.62-5.71,4.3-.52.43-1.02.86-1.74,1.39-.4.26-.74.56-1.75.95-.22.08-.57.19-1.11.24-.35.06-1.32,0-1.96-.29-.8-.34-1.43-.89-1.82-1.53-.45-.7-.61-1.43-.61-1.77-.05-.39,0-1.02.05-1.2.05-.22.1-.43.16-.65.14-.46.22-.57.34-.87.21-.45.4-.81.58-1.12l1.01-1.73c1.26-2.13,2.3-4.15,3-6.26,1.43-4.18,1.4-8.66.28-13.16-.54-2.23-1.38-4.64-2.26-6.8-.39-1.13-.92-2.19-1.45-3.25l-.79-1.6c-.29-.52-.61-1.03-.91-1.54-4.81-8.32-12.38-15.1-19.39-23.11-3.48-4.02-6.79-8.43-9.3-13.36-.6-1.24-1.15-2.51-1.73-3.77-.57-1.26-.94-2.59-1.41-3.89-.9-2.6-1.56-5.38-1.8-8.32-.28-2.93.11-5.99.53-8.51.42-2.53.63-4.54.41-6.68-.46-4.25-2.27-8.88-4.49-13.05-2.26-4.2-5.16-8.12-8.49-11.62-3.32-3.49-7.12-6.6-11.18-8.83-2-1.08-4.16-1.94-5.89-2.14-.85-.12-1.48.03-1.59.1-.02.05.02-.02.04-.04,0,.02-.09.12-.14.5-.14.67-.16,1.82-.13,3.04l.09,3.86c.03,2.68-.11,5.48-.53,8.24-.87,5.57-2.84,10.86-5.77,15.69-1.47,2.42-3.3,4.69-5.19,6.67-1.88,1.97-3.76,3.73-4.24,4.9-.14.29-.2.59-.27.89-.01.35-.06.69-.02,1.06.07.71.29,1.34.71,2.03.83,1.37,2.59,2.79,4.55,4.05,4.02,2.54,8.77,4.74,13.4,7.18,9.34,4.79,18.6,10.71,26.13,18.46,7.47,7.67,13.72,16.36,18.35,26.05,2.27,4.86,4.03,10.05,4.82,15.54.78,5.46.44,11.42-2,16.81-2.39,5.43-6.67,9.63-11.28,12.76-4.67,3.1-9.79,5.3-15.04,6.81-10.51,2.98-21.61,3.57-32.39,1.53-5.36-1.09-10.72-2.87-15.51-5.8-4.81-2.86-8.67-6.62-12.58-9.46-3.88-2.9-8.23-4.75-12.98-5.65-2.34-.46-4.63-.6-6.95-.38-2.31.18-4.72.87-7.59,1.25-2.86.42-6.03.21-8.81-.59-2.78-.77-5.51-1.94-7.9-3.72-2.4-1.75-4.27-3.98-5.86-6.08-1.6-2.12-3.02-4.16-4.61-6-6.22-7.43-15.47-12.05-25.25-13.98-4.9-.99-9.96-1.39-15.01-1.28-1.26.03-2.52.08-3.79.17l-1.95.15-.35.02c1.35,1.62-4.21-2.13-1.58-3.75,1.72-.93.69-.31,1.16-.53l.33-.07c.38-.07.74-.12,1.09-.16,2.79-.32,5.48-.3,8.19-.13,5.4.37,10.73,1.53,15.76,3.52,5.05,1.93,9.76,4.81,13.79,8.31,4.05,3.5,7.42,7.5,11.01,11,3.61,3.43,7.62,6.34,12.41,7.49,4.74,1.31,9.77,1.25,14.75.32,2.53-.41,4.99-1.1,7.88-1.3,1.39-.1,3.2.05,4.67,1.14,1.42,1.07,2.17,2.66,2.42,4.16.47,3.04-.41,5.75-1.44,8.23-1.1,2.48-2.52,4.76-4.25,6.85-3.45,4.26-8.61,7.03-13.92,8.09-5.35,1.06-10.77.8-16.01-.17-2.62-.52-5.22-1.21-7.72-2.3-2.44-1.13-5.07-2.57-6.49-5.43-.65-1.46-.68-3.13-.26-4.56.42-1.42,1.13-2.66,1.93-3.77,1.62-2.21,3.58-4.04,5.6-5.73,1.01-.84,2.05-1.65,3.09-2.43l1.53-1.16.34-.27.12-.11c.02.16.06-.47-.2.66,1.19,2.02,1.91.55,1.59.97l-.11.08-.34.26c-1.94,1.62-3.98,3.34-6.1,4.87-4.25,3.07-8.89,5.8-14.03,7.34-5.12,1.59-10.52,2.03-15.82,1.72-10.59-.69-21-4.48-29.31-11.09-4.15-3.29-7.64-7.48-10.15-12.12-2.55-4.6-4.11-10.08-3.27-15.52.82-5.43,4.04-10.31,8.19-13.72,4.19-3.45,9.01-5.85,14.24-7.39l-1.05,1.35c-.1-6.02.07-12.03.5-18.04.41-5.99,1.22-12.01,2.11-17.9.9-5.92,1.71-11.87,3.36-17.82.86-2.96,1.94-5.97,3.79-8.72,1.89-2.72,4.34-5.1,7.58-6.5,3.16-1.36,6.46-1.78,9.66-1.86,3.21-.07,6.36.23,9.45.72,6.15.98,12.25,2.74,17.92,4.96,1.33.5,2.74.88,3.22.74.12-.02.2-.06.29-.11.08-.08.15-.19.28-.24.08-.17.17-.31.29-.46.07-.23.15-.46.25-.68.54-2.17.3-5.11-.18-7.89-.98-5.64-2.73-11.31-4.61-16.91l4.45.78c-5.99,7.62-13.73,14.03-22.67,18.27-2.24,1.05-4.54,1.97-6.87,2.76-2.32.79-4.7,1.42-6.84,2.07-1.07.32-2.07.69-2.63,1.02l-.21.11s-.05.06-.08.09c-.03.02-.08.05-.09.06.01.02.01.02.01.02-.02,0,0,0-.03.13-.01.29.2,1.03.64,1.77.43.75,1.03,1.55,1.72,2.31,2.78,3.07,6.51,5.72,10.36,7.98,3.89,2.26,8.02,4.16,12.28,5.67,4.26,1.52,8.64,2.64,13.09,3.27,2.25.33,4.58.58,6.96.87,1.2.15,2.4.3,3.66.52,1.28.25,2.5.42,4.19,1.12.19.07.44.2.72.37.29.19.45.24.83.58.36.35.64.6.95,1.14.31.63.55,1.26.53,2.01,0,.75-.27,1.47-.55,1.93-.31.51-.58.78-.87,1.06-.5.44-.96.73-1.32.92-1.48.78-2.57,1.13-3.68,1.57-2.14.8-4.15,1.66-5.29,2.65-.58.49-.8.9-.9,1.25-.02.18-.05.23,0,.38.04.16.12.43.32.8.81,1.51,2.34,3.47,3.7,5.31,2.82,3.75,5.6,7.58,8.25,11.53.66,1,1.32,2.01,1.96,3.08.64,1.11,1.29,2.12,1.85,3.84.13.45.26.99.28,1.67.02.68-.14,1.48-.35,2-.22.49-.47.98-.74,1.43-.29.38-.6.75-.91,1.1-1.27,1.26-2.61,1.99-3.93,2.61-2.64,1.12-5.28,1.63-7.92,1.85-2.64.2-5.3.05-7.93-.48-1.31-.27-2.61-.64-3.89-1.11-1.26-.52-2.5-1.14-3.7-1.8l-1.7-1.2-.84-.61-.74-.71-1.47-1.44-1.24-1.58c-.88-1.04-1.43-2.18-2.14-3.27-.57-1.11-1.18-2.24-1.66-3.34-1.01-2.23-1.87-4.42-2.74-6.53-1.7-4.24-3.63-8.1-6.47-11.06-1.38-1.52-3.05-2.72-4.85-3.74-1.8-1.05-3.71-1.75-5.69-2.11-1.99-.38-4.24-.36-6.76-.53-2.53-.17-5.22-.67-7.67-1.58-2.46-.9-4.74-2.12-6.81-3.39-2.11-1.3-4.12-2.74-6.03-4.35-3.75-3.21-7.35-7.19-8.8-12.5-.69-2.59-.79-5.53.19-8.24.97-2.7,2.7-4.79,4.41-6.59,3.52-3.5,7.24-6.35,10.83-9.35,7.23-5.91,14.12-12.14,20.6-18.8,3.22-3.34,6.34-6.76,9.27-10.34,2.98-3.56,5.58-7.34,8.77-11.02,1.61-1.82,3.53-3.53,5.65-4.83,2.13-1.3,4.35-2.32,6.63-3.16,4.55-1.72,9.41-2.67,14.22-2.9,4.81-.3,9.57.05,14.08-.46,4.49-.47,8.54-2.77,10.88-6.59,2.38-3.74,3.15-8.36,3.2-12.88.05-4.56-.67-9.14-1.67-13.63l.21.36c-1.53-1.4-3.04-2.84-4.47-4.37-.71-.77-1.41-1.55-2.04-2.44-.31-.45-.62-.9-.83-1.51-.08-.31-.2-.71.03-1.22.25-.52.88-.71,1.22-.69.72.01,1.22.22,1.74.39.51.18,1,.39,1.48.6l2.85,1.26c1.89.82,3.8,1.6,5.76,2.22,3.89,1.27,8.01,1.96,12.08,1.58,4.05-.4,8.02-1.82,11.48-3.96,3.44-2.14,6.47-5.11,7.99-8.83,1.58-3.72,1.12-7.92-.15-11.74-.61-1.94-1.36-3.84-2.13-5.73-.78-1.9-1.55-3.79-2.43-5.63-.88-1.84-1.86-3.63-2.91-5.39l-1.61-2.62c-.27-.44-.54-.88-.8-1.34-.13-.23-.25-.47-.35-.74-.04-.16-.11-.26-.12-.46,0-.1-.01-.19,0-.3.05-.12.12-.25.2-.35M212.7,69.44c.03-.09.01.15.1.34.09.21.19.43.32.64.24.44.51.87.78,1.31l1.62,2.63c1.06,1.77,2.06,3.58,2.96,5.44.91,1.86,1.69,3.77,2.47,5.66.78,1.9,1.55,3.81,2.18,5.79.62,1.97,1.12,4.01,1.21,6.11.11,2.09-.25,4.23-1.04,6.18-1.6,3.94-4.76,7.03-8.3,9.25-3.58,2.21-7.63,3.71-11.86,4.18-4.24.44-8.52-.23-12.53-1.48-2.01-.62-3.97-1.39-5.89-2.2l-2.86-1.22c-.91-.37-1.97-.83-2.7-.85-.18.01-.1.04-.08-.02,0-.03,0,.11.05.28.13.36.39.78.67,1.16.57.79,1.25,1.54,1.95,2.27,1.4,1.47,2.91,2.87,4.44,4.24l.16.15.05.21c1.05,4.56,1.87,9.2,1.94,13.94.04,4.7-.63,9.63-3.19,13.89-1.26,2.12-3.04,3.96-5.19,5.3-2.14,1.36-4.61,2.12-7.04,2.47-4.88.64-9.6.37-14.22.76-4.62.31-9.12,1.31-13.36,3-2.12.83-4.18,1.83-6.04,3.03-1.87,1.19-3.46,2.67-4.91,4.38-2.87,3.45-5.5,7.42-8.45,11.1-2.92,3.72-6.03,7.29-9.23,10.76-6.43,6.9-13.33,13.41-20.5,19.53-3.54,3.08-7.21,6.06-10.26,9.24-1.47,1.6-2.7,3.27-3.26,4.98-.57,1.69-.49,3.59.04,5.45,1.07,3.74,4.03,7.08,7.41,9.82,1.71,1.38,3.55,2.64,5.47,3.77,1.95,1.16,3.86,2.13,5.84,2.83,1.98.7,3.98,1.05,6.17,1.17,2.19.13,4.7.06,7.37.5,2.66.45,5.26,1.37,7.54,2.65,2.3,1.26,4.51,2.82,6.31,4.73,7.55,7.7,8.76,18.15,13.7,24.58l.92,1.18,1.05,1.01.52.51.59.41,1.18.83c.86.45,1.74.88,2.65,1.27.94.34,1.91.61,2.92.81,3.97.78,8.51.45,11.97-1.02.81-.38,1.53-.84,1.93-1.24.06-.09.12-.17.21-.25,0-.06.01-.09.06-.12,0-.01-.06.2-.05.3,0,.11.01.07-.03-.04-.15-.49-.69-1.51-1.24-2.4-.56-.93-1.18-1.87-1.82-2.81-2.55-3.8-5.25-7.54-8.04-11.27l-2.11-2.87c-.71-.99-1.44-2.01-2.14-3.34-.34-.66-.69-1.47-.89-2.45-.22-1-.14-2.12.08-3.08.48-1.91,1.7-3.48,2.92-4.49,2.47-2.04,4.97-2.89,7.2-3.77,1.09-.41,2.23-.84,2.83-1.17.16-.08.19-.13.13-.07-.08.07-.15.14-.31.39-.13.22-.3.66-.31,1.11.01.46.06.83.29,1.18.18.28.21.35.38.48.18.12.05.06.1.09.03,0,.02,0-.07-.03-.49-.21-1.61-.48-2.64-.65-1.07-.18-2.21-.33-3.36-.48-2.31-.29-4.67-.54-7.1-.9-4.9-.74-9.69-2.01-14.29-3.7-4.61-1.69-9.05-3.77-13.28-6.28-4.2-2.54-8.25-5.38-11.74-9.28-.87-.98-1.69-2.06-2.41-3.33-.69-1.28-1.38-2.78-1.34-4.83.06-1.01.37-2.2,1.05-3.13.17-.24.34-.46.53-.69.18-.2.38-.35.57-.52l.59-.48.56-.32c1.49-.83,2.76-1.19,3.95-1.54,2.39-.68,4.57-1.22,6.73-1.92,2.15-.69,4.24-1.49,6.28-2.41,8.16-3.72,15.36-9.46,21.04-16.43l3.02-3.71,1.43,4.49c1.83,5.77,3.55,11.59,4.51,17.74.42,3.1.83,6.24-.1,9.9-.17.47-.36.95-.56,1.42-.28.48-.62.96-.95,1.42-.46.43-.93.85-1.47,1.19-.56.32-1.21.55-1.84.64-1.28.2-2.32-.02-3.21-.24-.89-.23-1.66-.52-2.4-.8-5.58-2.28-11.19-3.99-17.01-5.03-2.89-.5-5.81-.82-8.68-.81-2.86.02-5.7.38-8.14,1.38-.63.22-1.14.6-1.73.88-.53.39-1.12.75-1.61,1.2-1.03.85-1.91,1.86-2.7,2.96-1.56,2.22-2.6,4.89-3.44,7.64-1.65,5.55-2.57,11.46-3.56,17.32-2.06,11.74-3.27,23.53-3.08,35.41l.02,1.05-1.06.3c-4.73,1.35-9.41,3.64-13.2,6.75-3.82,3.1-6.62,7.34-7.37,12.09-.76,4.75.54,9.65,2.91,14,2.36,4.4,5.54,8.28,9.47,11.45,7.82,6.32,17.81,10.05,27.94,10.77,5.07.35,10.2-.16,15-1.66,4.82-1.47,9.24-4.09,13.34-7.08,2.06-1.51,3.97-3.13,5.98-4.83l.43-.34c.07-.05.17-.12.29-.2-.23.35.77-1.28,1.96.92-.31,1.28-.4.76-.49,1.04l-.24.22-.41.34-1.56,1.19c-1.02.78-2.02,1.56-2.99,2.37-1.93,1.62-3.76,3.37-5.16,5.32-1.39,1.93-2.27,4.2-1.4,6,.89,1.84,3.04,3.2,5.26,4.17,2.26.97,4.72,1.62,7.19,2.1,4.96.9,10.14,1.1,14.99.11,4.85-1.01,9.33-3.45,12.38-7.25,1.55-1.88,2.82-4.02,3.77-6.24.91-2.21,1.54-4.63,1.16-6.68-.17-1.01-.67-1.86-1.33-2.34-.64-.47-1.6-.63-2.77-.53-2.31.18-4.89.89-7.48,1.36-5.21,1.04-10.84,1.23-16.17-.18-5.43-1.22-10.15-4.56-14-8.15-3.83-3.65-7.18-7.51-11.01-10.72-7.56-6.45-17.39-9.96-27.37-10.49-2.48-.12-5.01-.09-7.38.22-.29.04-.58.08-.83.13-.08.01-.11.02-.15.03.32-.18-.87.45.7-.41,2.34-1.54-2.86-5.28-1.39-3.68h.14s1.94-.19,1.94-.19c1.33-.11,2.66-.19,4-.24,5.35-.19,10.73.15,16.04,1.13,5.3.98,10.53,2.66,15.38,5.17,4.85,2.49,9.3,5.92,12.89,10.03,3.62,4.09,6.16,8.61,9.76,11.12,1.77,1.3,3.9,2.18,6.12,2.78,2.23.6,4.35.72,6.64.38,2.28-.31,4.9-1.07,7.77-1.35,2.86-.31,5.81-.15,8.58.36,2.76.52,5.46,1.27,8.08,2.37,2.61,1.1,5.07,2.54,7.3,4.13,4.46,3.21,8.1,6.67,12.26,9.06,4.09,2.45,8.76,3.96,13.57,4.89,9.67,1.76,19.92,1.09,29.36-1.67,4.72-1.37,9.22-3.38,13.16-6.02,3.89-2.67,7.2-6.06,8.91-10.08,1.78-4,2.09-8.63,1.4-13.25-.69-4.63-2.25-9.25-4.35-13.65-4.26-8.8-10.2-17-17.16-24.05-6.94-7.04-15.36-12.39-24.46-17.01-4.54-2.37-9.25-4.48-14.02-7.43-2.34-1.54-4.87-3.27-6.82-6.26-.95-1.48-1.63-3.31-1.8-5.15-.1-.91-.05-1.84.05-2.77.17-.96.41-1.9.81-2.78.8-1.76,1.89-3.04,2.85-4.11l2.7-2.84c1.65-1.76,3.05-3.53,4.24-5.5,2.37-3.96,4.02-8.45,4.69-13,.34-2.29.45-4.62.41-7.05l-.09-3.81c-.02-1.33-.08-2.76.26-4.61.15-.88.5-2.01,1.17-3.07.69-1.12,1.76-2.01,2.86-2.61,2.23-1.1,4.31-1.1,6.02-.92,3.45.45,6.14,1.68,8.7,3.02,5.02,2.77,9.29,6.31,13.08,10.27,3.77,3.97,7.05,8.39,9.67,13.22,1.3,2.41,2.44,4.93,3.37,7.53.91,2.61,1.7,5.36,1.99,8.32.32,2.95-.03,6.07-.46,8.58-.41,2.52-.66,4.58-.46,6.75.17,2.16.69,4.41,1.46,6.64.41,1.11.7,2.26,1.19,3.33l1.46,3.23c2.13,4.24,5,8.15,8.24,11.92,6.44,7.52,14.51,14.71,20.04,24.27.34.59.71,1.17,1.03,1.78l.91,1.85c.61,1.23,1.21,2.47,1.66,3.77,1.03,2.6,1.87,5.03,2.53,7.78,1.35,5.41,1.42,11.55-.52,17.09-.92,2.75-2.28,5.3-3.64,7.58l-.94,1.59c-.15.25-.25.45-.31.58,0,0-.08.18-.02.02.02-.06.03-.12.04-.18,0-.03.08-.49.03-.73-.03-.16-.11-.75-.47-1.32-.33-.48-.82-.94-1.48-1.21-1.22-.5-2.04-.1-2.12-.11-.4.16-.2.1-.07-.01.33-.23.82-.63,1.29-1.03,3.89-3.31,8.92-7.19,15.41-7.93,3.2-.37,6.39.13,9.22,1.11,2.83.99,5.38,2.37,7.69,3.91,4.63,3.03,8.54,6.83,12.3,9.82.89.7,1.93,1.38,2.34,1.52.02,0,.05.01.06.03-.03-.02-.1-.03-.15-.01-.2,0-.54.06-.84.26-.6.41-.53.66-.48.47.1-.48.06-1.6-.14-2.65-.18-1.08-.47-2.23-.81-3.36-1.41-4.54-3.56-8.77-6.55-12.54-6.01-7.53-14.52-13.19-23.68-17.2l-1.19-.52-.38-1.17c-5.29-16.23-11.01-32.34-17.22-48.27-3.13-7.95-6.24-15.93-9.83-23.61-1.8-3.83-3.79-7.67-5.6-11.59-1.83-3.91-3.57-7.84-5.27-11.79-3.41-7.88-6.66-15.83-9.96-23.73-1.65-3.95-3.33-7.87-5.2-11.68-1.89-3.78-3.89-7.55-6.71-10.55-2.73-3.08-6.5-5.04-10.61-5.78-4.09-.78-8.62-.49-12.98-1.9-4.37-1.39-7.99-4.31-10.78-7.7-2.8-3.44-4.72-7.45-6.01-11.59l-.21-.67.68-.17c3.33-.83,6.52-2.23,9.29-4.22,2.76-1.99,5.07-4.6,6.73-7.55,3.4-5.95,3.9-13.09,3.24-19.85-.69-6.82-3.59-13.25-7.61-18.85-1.99-2.81-4.28-5.42-6.81-7.78-1.27-1.18-2.59-2.3-3.99-3.31-.7-.5-1.42-.99-2.16-1.4-.37-.21-.75-.4-1.13-.55-.33-.16-.89-.23-.89-.19"/>
    <path class="st1" d="M201.84,73.67c10.94,2.96,15.76,17.85,8.46,26.67-7.02,8.87-24.15,6.26-25.85-5.57-1.83-10.07,10.31-16.99,17.82-9.46,5.78,6.2-.53,16.94-8.86,12.97-4.07-1.88-4.56-8.41-.2-10.23,3.21-1.52,7.42,1.54,5.74,4.9-.65,1.48-2.59,2.04-3.8,1.27-.18-.1-.05-.38.15-.32,2.63.68,3.54-2.71,1.57-3.83-1.7-.95-3.82.31-3.86,2.22-.21,4.24,6.27,4.38,7.3.68,2.29-7.15-7.71-9.95-11.83-4.66-4.86,5.94-.73,15.16,7.05,15.91,10.54,1.44,17.11-9.76,14.72-18.89-1.11-4.56-4.16-8.69-8.55-11.34-.18-.09-.05-.39.15-.32"/>
  </g>
</svg>