<?xml version="1.0" encoding="UTF-8"?>
<svg id="Layer_1" xmlns="http://www.w3.org/2000/svg" xmlns:xlink="http://www.w3.org/1999/xlink" version="1.1" viewBox="0 0 400 400">
  <!-- Generator: Adobe Illustrator 29.3.0, SVG Export Plug-In . SVG Version: 2.1.0 Build 146)  -->
  <defs>
    <style>
      .st0 {
        fill: none;
      }

      .st1 {
        fill: #000001;
      }

      .st2 {
        clip-path: url(#clippath);
      }
    </style>
    <clipPath id="clippath">
      <rect class="st0" x="148.79" y="39.73" width="148.23" height="333.73"/>
    </clipPath>
  </defs>
  <g class="st2">
    <path class="st1" d="M217.79,52.19c6.89,13.25.78,31.16-9.68,40.88-7.04,6.84-16.48,11.05-23.78,17.26-3.51,3.05-6.07,6.75-6.95,11.11-.49,2.37-1.13,5.04-2.23,7.47-2.76,6.63-8.66,11.7-14.43,15.37,0,0,.1-.11.1-.11.12-.17.03,0,.3-.47.76-1.48-.56-3.52-2.19-3.37-.14.02.18-.05.38-.12,4.43-1.6,9.02-3.91,13.5-5.52,4.68-1.78,9.62-3.18,14.5-4.13,2.43-.5,4.77-.93,6.68-1.72,6.25-2.7,9.08-9.28,10.02-15.94.52-3.34.5-7.27.48-10.71.08-1.45-.24-3.05.94-4.35,5.47-4.1,7.44,12.68,7.61,15.83.61,9.64-1.75,22.19-10.29,27.94-8.5,4.83-17.83,8.73-26.45,13.26-4.59,2.23-15.22,8.04-19.94,9.73-2.07.81-5.29,1.41-6.84-.81-1.29-2.78-.48-5.82-.37-8.69,1.11-12.3,3.72-24.33,6.19-36.39,1.62-7.18,2.09-17.22,9.82-20.8,2.63-1.09,4.99-1.56,7.46-2.12,3.66-.8,7.46-1.4,11.21-1.61,2.19-.22,4.12.06,5.72-1.43.55-.45,1-1.03,1.41-1.61,2.4-4.02,2.3-9.3,1.84-13.96-.23-2.36-.75-4.54-1.69-6.62-1-2.21-2.64-4.23-3.4-6.68-.83-2.6-.85-5.22-.64-7.77,2.87-21.59,20.91-20.73,30.72-3.92M217.38,52.41c-9.13-15.58-26.6-17.19-28.23,3.84-.13,3.59.45,6.87,2.58,9.74,2.26,3.05,3.93,6.95,4.44,10.69.85,5.52,1.09,11.41-1.78,16.56-3.3,5.56-8.35,4.8-13.83,5.46-4.57.59-9.45,1.46-13.79,2.96-4.09,1.92-5.32,6.45-6.48,10.63l-1.75,7.12c-2.94,11.88-6.27,23.7-7.7,35.88-.24,2.28-.68,4.86-.29,7.06.18,1.02,1.11,1.39,2.02,1.52,3.47-.09,6.78-2.13,9.94-3.59,4.36-2.22,8.71-4.51,13.05-6.82,4.36-2.31,15.32-8.12,19.52-10.36,4.14-2.26,8.53-4.24,10.61-8.68,5.26-9.45,4.96-23.87.2-33.46.25.27.86.51,1.53.37.67-.1,1.24-.77,1.34-1.12,0,0-.02.27-.02.27-.01,4.24.26,8.77-.34,13.02-.8,7.66-4.79,16.49-12.53,19.74-2.63,1.12-5.16,1.56-7.52,2.11-4.74,1.04-9.27,2.32-13.77,4.04-3.27,1.22-6.86,2.81-10.1,4.21-1.66.64-3.09,1.4-5.07,1.71-2.4.33-4.06-2.48-2.37-4.38.23-.27.4-.4.61-.57,3.51-2.35,6.93-4.56,9.61-7.77,3.07-3.54,4.69-7.55,5.73-12.19,1.18-5.23,4.65-9.91,8.82-13.11,7.96-6.19,17.33-9.34,24.87-15.83,10.88-9.01,17.36-25.76,10.72-39.05"/>
    <path class="st1" d="M215.25,94.36c9.6-.1,20.85,2.86,26.11,11.79,2.04,3.88,2,8.31,3.12,12.33,1.16,5.25,2.76,10.38,4.49,15.47,1.77,5.26,3.97,10.42,4.55,16.09.27,2.91-.04,5.86-.66,8.6-.71,2.8-1.05,6-3.6,8-6.81,4.38-17.54-4.36-22.71-8.6-8.36-7.29-15.59-16.15-19.88-26.5-2.16-5.19-3.65-10.65-4.45-16.25-.4-3.36-.87-6.62-.2-10.07.21-.73.51-1.46,1.19-1.93,1.87-1.29,3.75.11,4.34,2,2.24,6.63,4.77,13.17,8.86,18.82,6.29,8.85,15.26,16.63,25.52,20.42.06.03.24,0-.12.05.04,0-.18.02-.41.14-.55.33-.94.86-.89,1.63.03.42.26.8.34.85-1.16-1.07-2.59-2.17-3.75-3.37-6.29-5.86-8.91-15.3-6.82-23.44l.46.07c-.99,9.68,3.53,18.28,11.62,23.49.63.48,1.55.99,1.67,2.13.13,1.34-1.23,2.19-2.29,2.02-6.58-1.35-12.28-5.08-17.55-8.92-4.51-3.43-8.51-7.56-11.87-12.18-4.47-6.07-7.23-13.33-9.32-20.33.79,1.2,2.93,1.09,3.54-.22-.43,2.26-.22,5.66.07,8.28,1.27,10.53,4.76,20.84,10.63,29.76,2.99,4.45,6.39,8.7,10.38,12.35,4.39,3.98,14.64,12.13,20.45,8.27,1.76-1.65,1.87-4.56,2.24-6.93.83-5.35-.35-10.23-2.36-15.2-4.16-9.99-7.41-21-8.64-31.83-2.02-10.74-14.48-14.7-24.09-16.34l.04-.47"/>
    <path class="st1" d="M173.76,162.17c-2.46,24.51-1.44,50.04,7.85,73.09,4.91,11.54,10.43,23.68,9.26,36.61-.6,10.14-5.13,20.02-1.93,29.97,3.17,9.1,7.66,20.31,10.02,29.6,1.1,4.01,2.17,7.99,3.43,11.85,1.44,4.09,3.36,9.62.35,13.67-1.46,2.15-3.46,3.35-4.32,4.57-.94,1.21-.95,2.73-.42,4.16,2.2,5.4,12.24,5.3,17.12,3.01.88-.47,1.75-1.06,1.67-1.8-.55-1.25-1.71-2.4-2.3-3.81-1-2.08-1.52-4.3-1.54-6.6-.02-2.32.64-4.42.77-6.28.29-11.6-10.17-9.14-7.36-29.15.73-6.16,1.8-12.3,1.68-18.47-.71-6.08-1.96-12.31-2.67-18.43-2.65-18.56-3.63-37.44-1.52-56.11.6-6.71,2.31-19.76,12.01-16.55,2.98,1.11,5.67,2.65,8.62,3.66,7.7,3,15.88,2.79,24.06,2.78,6.38.01,12.8-.19,19.08-1.1l.3-.06s.1-.02.07-.02c-.27.62.6-1.4-1.23,1.67,3.06,3.96,1.51,1.14,1.97,2.01l-.1.02c-.15.01-.89.19-1.07.22-17.52,3.95-36.14,4.26-53.42-1.1-2.03-.62-4-1.36-5.72-1.7-1.55-.28-2.67-.24-3.77.78-6.23,7.31,1.59,34.3,5.65,42.58.03.04.08.12.07.1-.08-.07-.16-.21-.57-.43-.28-.26-1.87-.5-2.69.42-.7.82-.54.86-.65,1.23-.65-6.35-1.85-13.2-.84-19.74,2.54-15.99,13.23-15.57,26.57-14.68,16.74,1.34,32.34,7.28,49.1,7.13,3.95.04,7.77-.57,9.82-3.2,3.18-3.92,2.82-10.98-.87-14.72-2.58-2.76-6.7-3.97-10.29-5-5.99-1.86-11.92-3.95-17.71-6.4-7.73-3.24-15.29-7.04-22.06-12.05-11.62-8.51-16.27-18.63-14.01-32.97l.46.06c-2.29,19.92,8.97,29.2,25.33,37.48,10.14,5.04,20.98,8.64,31.9,11.58,5.51,1.35,10.96,5.1,12.48,10.88,2.18,6.8-.87,15.75-8.32,17.58-6.47,1.6-12.92.71-19.41.22-16.34-1.86-32.35-7.28-48.78-5.79-13.17,1.34-9.1,20.48-8.36,29.67,0,.33-.02.52-.11.93-.1.25-.06.62-.78,1.4-.92,1.01-2.66.76-3.05.44-.87-.49-1.06-.88-1.49-1.51-1.78-3.19-2.79-6.6-3.9-10-2.73-9.39-10.35-37.2,3.18-40.6,3.64-.65,7.1,1.07,10.2,1.98,3.84,1.23,7.79,2.18,11.78,2.84,13.03,2.16,26.54,1.45,39.48-1.21l.79-.15.44-.08.29-.04c.58.86-.81-2.01,2.33,2.04-1.91,3.17-1.18,1.17-1.58,1.83-.16.04-.2.05-.31.07l-.46.09c-6.57.85-13.18.94-19.76.83-8.35-.17-17.18-.28-25.04-3.6-1.99-.78-3.92-1.71-5.77-2.63-1.84-.89-3.68-1.86-5.13-1.64-5.45,1.24-5.72,10.09-6.56,14.72-2.6,18.47-1.64,37.22.82,55.66.65,6.27,1.97,12.27,2.72,18.54.14,6.3-.86,12.53-1.48,18.73-2.53,19.32,8.13,16.04,8.1,29.13-.5,4.23-1.24,7.74.82,11.47.7,1.44,1.88,2.47,2.57,4.14.91,2.26-1.32,4.64-2.99,5.4-7.55,3.91-22.79,2.91-22.57-8.2.01-3.74,3.64-5.86,5.51-8.39,2.06-3.14.09-6.76-.97-10.19-1.39-4.01-2.48-8.06-3.59-12.05-2.44-9.27-6.82-20.3-9.89-29.4-.37-1.01-.7-2.32-.81-3.37-1.83-9.56,2.05-18.93,2.83-28.18,1.23-12.45-3.86-23.63-8.34-35.22-2.94-7.88-5.02-16.08-6.23-24.38-2.46-16.55-1.73-33.43.81-49.89l.47.06"/>
  </g>
</svg>