<?xml version="1.0" encoding="UTF-8"?>
<svg id="Layer_1" xmlns="http://www.w3.org/2000/svg" xmlns:xlink="http://www.w3.org/1999/xlink" version="1.1" viewBox="0 0 400 400">
  <!-- Generator: Adobe Illustrator 29.3.0, SVG Export Plug-In . SVG Version: 2.1.0 Build 146)  -->
  <defs>
    <style>
      .st0 {
        fill: none;
      }

      .st1 {
        fill: #000001;
      }

      .st2 {
        clip-path: url(#clippath);
      }
    </style>
    <clipPath id="clippath">
      <rect class="st0" x="149.49" y="52.55" width="128.03" height="303.97"/>
    </clipPath>
  </defs>
  <g class="st2">
    <path class="st1" d="M209.17,63.81c-3.18-6.02-10.72-12.74-17.33-10.52-6.28,2.11-8.98,11.39-8.15,17.88.71,5.59,3.63,5.97,5.09,12.62.12.54,2.76,13.19-3.06,17.89-2.86,2.31-5.05.51-16.31,3.16-4.46,1.05-5.46,1.65-6.12,2.1-3.82,2.69-4.74,7.2-6.11,13.68-4.4,20.72-3.97,17.09-5.1,24.2-2.62,16.5-2.08,18.07-1.02,18.94,2.49,2.03,6.89-.66,21.4-8.42,22.34-11.94,23.94-12,26.5-15.78,9.17-13.59,2.53-33.68,1.02-33.67-1.42.02,2.59,17.76-7.14,26.3-5.43,4.77-9.92,2.09-26.5,9.47-2.75,1.23-7.9,3.64-8.15,3.16-.28-.53,5.94-3.19,10.19-9.47,2.95-4.36,3.56-8.4,4.08-10.52,3.97-16.28,26.43-16.3,35.67-35.77.84-1.76,6.68-14.54,1.02-25.25"/>
    <path class="st1" d="M209.35,63.71c5.98,11.87.68,27.91-8.4,36.61-6.11,6.13-14.29,9.89-20.63,15.46-3.05,2.73-5.26,6.05-6.03,9.95-.42,2.12-.98,4.51-1.93,6.69-2.4,5.94-7.51,10.48-12.52,13.77l.08-.09c.1-.15.03,0,.26-.42.66-1.33-.49-3.15-1.9-3.02-.12.02.16-.04.33-.11,3.84-1.44,7.82-3.5,11.71-4.94,4.06-1.59,8.34-2.85,12.58-3.7,2.11-.45,4.14-.83,5.79-1.54,5.43-2.42,7.88-8.31,8.69-14.27.45-3,.43-6.51.41-9.59.07-1.3-.21-2.73.81-3.9,4.74-3.67,6.45,11.36,6.61,14.17.53,8.63-1.52,19.88-8.93,25.03-7.37,4.32-15.47,7.81-22.95,11.87-3.98,1.99-13.2,7.2-17.3,8.71-1.8.73-4.59,1.26-5.93-.73-1.12-2.49-.41-5.21-.32-7.78.97-11.01,3.23-21.79,5.37-32.59,1.41-6.43,1.82-15.42,8.52-18.63,2.28-.97,4.33-1.4,6.47-1.9,3.17-.71,6.47-1.25,9.72-1.44,1.9-.2,3.58.05,4.97-1.28.47-.4.86-.92,1.23-1.45,2.08-3.6,1.99-8.33,1.6-12.5-.2-2.11-.65-4.07-1.47-5.93-.86-1.98-2.29-3.79-2.95-5.98-.72-2.33-.74-4.68-.56-6.96,2.49-19.33,18.14-18.56,26.65-3.51M208.99,63.91c-7.92-13.95-23.08-15.4-24.49,3.44-.11,3.21.39,6.15,2.24,8.73,1.96,2.73,3.41,6.22,3.85,9.58.74,4.94.95,10.22-1.55,14.83-2.86,4.98-7.24,4.3-12,4.88-3.97.53-8.2,1.31-11.96,2.65-3.55,1.72-4.61,5.77-5.62,9.52l-1.52,6.38c-2.55,10.64-5.44,21.22-6.68,32.13-.21,2.04-.59,4.35-.25,6.32.15.92.96,1.25,1.76,1.36,3.01-.08,5.88-1.91,8.62-3.21,3.79-1.99,7.56-4.04,11.32-6.11,3.78-2.07,13.29-7.27,16.93-9.28,3.59-2.03,7.4-3.8,9.21-7.77,4.56-8.46,4.3-21.37.17-29.97.22.25.74.46,1.32.33.58-.09,1.07-.69,1.16-1l-.02.24c0,3.79.23,7.85-.29,11.66-.69,6.86-4.16,14.77-10.87,17.68-2.28,1-4.48,1.4-6.53,1.89-4.11.93-8.05,2.08-11.95,3.61-2.84,1.09-5.95,2.52-8.76,3.77-1.44.57-2.68,1.26-4.4,1.53-2.08.29-3.52-2.22-2.06-3.92.2-.24.35-.36.53-.51,3.04-2.1,6.01-4.08,8.33-6.96,2.67-3.17,4.07-6.76,4.97-10.92,1.03-4.69,4.03-8.87,7.65-11.74,6.91-5.54,15.04-8.37,21.57-14.17,9.43-8.07,15.06-23.07,9.3-34.97"/>
    <path class="st1" d="M207.13,101.68c2.1-2.92,15.36,1.73,20.38,9.47.65,1.01,1.25,2.18,1.28,2.26,1.11,2.67.85,5.42,2.79,13.52,3.96,16.49,8.9,21.18,7.14,31.56-.61,3.58-1.05,6.15-3.06,7.36-6.36,3.83-23.25-9.14-31.59-25.25-7.33-14.15-7.27-29.17-6.11-29.46.89-.22,1.79,8.39,8.15,17.88,8.65,12.9,22.1,21.14,24.46,18.94,1.75-1.63-2.23-9.37-4.64-14.08-2.2-4.3-4.24-7.18-5.55-9.06-9.79-14.1-14.68-21.15-13.25-23.14"/>
    <path class="st1" d="M207.29,101.81c-1.49,3.34,9.94,16.89,12.3,20.24,3.36,4.21,6.67,8.81,9.19,13.64,1.54,3.15,6.21,10.45,3.27,13.74-1.85,1.71-4.07.94-5.99.27-7.82-3.4-13.98-9.35-19.24-16.03-4.29-5.53-7.38-12.06-9.33-18.81-.04-.19-.74-2.37-.78-2.47.61.9,2.2.83,2.67-.19-.21.79-.29,2.44-.25,3.49.32,11.98,4.14,24.05,11.31,33.58,4.78,6.3,10.7,12.19,17.93,15.26,2.1.81,4.85,1.54,6.76.3,1.58-1.06,1.79-3.93,2.17-6.58.35-2.58.26-5.11-.25-7.59-1.11-5.13-3.52-10.17-5-15.31-1.6-5.3-2.75-10.77-3.34-16.29-.23-2.73-.51-5.07-1.94-7.4-2.68-4.5-7.37-7.68-12.13-9.55-1.83-.66-3.78-1.23-5.73-1.05-.63.07-1.26.29-1.62.74M206.97,101.56c.49-.62,1.23-.84,1.9-.92,2.03-.2,4.03.34,5.96.94,7.64,2.56,15.58,8.13,16.46,17.06,1.06,5.29,2.55,10.45,4.22,15.56,1.65,5.3,3.95,10.21,4.9,15.84.7,4.41,0,8.64-1.27,12.87-1.62,5.66-7.18,5.37-11.4,3.22-7.32-3.65-13.21-9.63-18.37-15.97-6.89-8.56-11.63-19.03-13.26-30.11-.37-3.02-.79-5.81-.18-8.91.06-.22.2-.62.35-.84.51-.95,1.88-1.35,2.78-.71.79.5,1.1,1.49,1.33,2.09l.67,1.99c1.99,6.3,4.96,12.2,9.09,17.26,4.82,5.86,10.66,11.57,17.43,14.75.7.27,1.29.51,1.94.52.09,0-.1-.02-.34.24-.24.27-.21.42-.2.33,0-1.94-.93-3.9-1.65-5.77-1.54-3.68-3.21-7.42-5.07-10.9-2.23-4.05-6.01-9.8-8.46-13.84-2.12-3.49-4.39-6.89-6.19-10.58-.5-1.28-1.38-2.71-.63-4.12"/>
    <path class="st1" d="M170.95,162.17c-3.81,30.46.38,50.93,5.1,64.17,4,11.22,9.74,21.08,8.15,35.77-.36,3.31.08,6.53-2.04,24.2-4.27,35.62-7.03,47.2-.06,57.98,3,4.64,6.14,6.75,7.14,7.36,11.07,6.85,28.98,2.7,34.65-7.36,2.97-5.27,1.67-10.53-4.08-29.46-5.17-17.02-14.11-45.67-15.29-49.45-2.07-6.64-8.57-26.49-6.06-46.41.72-5.71,1.97-10.19,5.1-11.57,3.27-1.45,5.78,1.73,13.25,4.21,5.91,1.96,10.73,2.01,20.38,2.1,10.71.11,16.07.2,16.3-1.05.71-3.74-40.74-22.11-53.05-8.29-1.71,1.91-2.4,3.94-3.06,6.31-5.79,21-5.14,58.41,9.17,63.12,3.1,1.02,5.21-.03,22.42-10.52,29.89-18.22,39.97-25.08,44.9-36.94,3.43-8.26,1.7-12.46,1.02-13.68-2.49-4.47-7.59-5.85-9.17-6.31-7.8-2.28-36.95-11.16-45.86-26.3-2.01-3.42-4.23-9.26-3.06-18.94"/>
    <path class="st1" d="M171.15,162.2c-.76,7.79-1.15,15.62-.97,23.42.16,7.8.95,15.57,2.37,23.2,1.43,7.64,3.69,15.02,6.7,22.17,1.47,3.6,3,7.23,4.24,11.03,1.26,3.79,2.1,7.79,2.43,11.84.08,1.01.1,2.03.14,3.05-.03,1.02,0,2.03-.07,3.05l-.22,2.96c-.06.91-.09,1.89-.12,2.87-.12,3.96-.42,7.92-.79,11.84-.76,7.85-1.77,15.62-2.7,23.4-.91,7.77-2,15.54-2.41,23.22-.16,3.83-.13,7.64.59,11.22.74,3.57,2.32,6.86,4.54,9.78,1.1,1.44,2.34,2.77,3.7,3.89.69.57,1.36,1.06,2.16,1.46l1.16.64c.39.2.82.34,1.22.52,3.28,1.35,6.93,1.9,10.54,1.74,3.62-.17,7.23-1,10.55-2.49.85-.33,1.62-.83,2.42-1.25.78-.46,1.51-1.01,2.25-1.53l1.02-.89.51-.45.45-.5.9-1,.76-1.11c1.04-1.48,1.64-3.13,1.79-4.92.17-1.79-.04-3.68-.36-5.56-.65-3.77-1.71-7.55-2.73-11.3-2.12-7.51-4.43-14.99-6.69-22.47-2.3-7.47-4.55-14.96-6.89-22.41l-3.51-11.19c-1.18-3.72-2.35-7.48-3.32-11.29-.98-3.81-1.8-7.66-2.43-11.56-.66-3.89-1.09-7.82-1.28-11.78-.18-3.95-.17-7.94.26-11.89.17-1.98.45-3.96.9-5.94.48-1.97,1.08-4.02,2.51-5.8.71-.88,1.68-1.63,2.8-2.02.56-.22,1.18-.29,1.79-.3.6.02,1.17.12,1.7.27,2.07.65,3.67,1.61,5.4,2.36,3.4,1.54,6.92,2.67,10.55,3.14,3.63.49,7.41.47,11.19.49,3.79,0,7.6.03,11.37,0,1.87-.03,3.78-.06,5.5-.26.41-.05.85-.12,1.1-.21l.1-.03s.01-.01.02-.02c0,0,.02,0,.02,0,0,0-.09.05-.12.08-.07.06-.02.04-.15.19-.09.12-.16.28-.18.44-.03.14-.05.27-.02.4.01.1.01.14.04.2.05.15.03.06-.07-.04-.08-.1-.21-.22-.35-.34-.28-.25-.63-.51-.98-.75-2.95-1.97-6.45-3.52-9.9-4.9-6.96-2.69-14.25-4.74-21.56-5.4-3.64-.3-7.31-.24-10.67.64-3.34.86-6.3,2.73-7.73,5.6-.73,1.41-1.19,3.23-1.66,5.09-.45,1.85-.85,3.71-1.17,5.6-.66,3.77-1.11,7.59-1.37,11.43-.51,7.67-.39,15.42.77,22.92.61,3.73,1.47,7.42,2.88,10.77,1.39,3.31,3.4,6.36,6.11,7.72l1.03.43c.34.1.63.18.88.19.5.05,1.16-.1,1.92-.37,1.54-.57,3.21-1.46,4.84-2.35,3.28-1.82,6.57-3.8,9.84-5.76,6.55-3.96,13.1-7.91,19.57-11.94,6.44-4.07,12.89-8.18,18.53-13.1,2.8-2.47,5.33-5.19,7.28-8.3.5-.77.91-1.59,1.36-2.4.37-.85.81-1.67,1.14-2.53.7-1.72,1.25-3.48,1.55-5.25.31-1.76.32-3.56-.08-5.12-.11-.38-.23-.76-.39-1.09-.16-.3-.4-.7-.62-1.03-.46-.69-1.04-1.3-1.68-1.85-1.28-1.11-2.85-1.94-4.52-2.55-.82-.3-1.75-.56-2.66-.86l-2.74-.88c-7.28-2.41-14.44-5.25-21.3-8.8-3.4-1.81-6.79-3.7-9.92-6.04-.81-.54-1.57-1.16-2.32-1.78-.74-.63-1.55-1.19-2.23-1.9l-2.12-2.04-1.92-2.26c-.34-.36-.6-.78-.88-1.2l-.82-1.24c-.58-.81-1.04-1.7-1.46-2.61-.84-1.82-1.41-3.75-1.79-5.7-.74-3.92-.61-7.93-.07-11.82l.4.05c-.37,3.88-.29,7.82.55,11.58.43,1.87,1.05,3.7,1.91,5.39.42.85.89,1.67,1.47,2.42l.82,1.15c.27.38.53.78.87,1.11l1.91,2.09,2.11,1.89c.68.66,1.48,1.17,2.22,1.76.75.58,1.5,1.15,2.31,1.64,3.12,2.14,6.47,3.92,9.85,5.6,6.81,3.29,13.94,5.9,21.18,8.08l2.72.79c.9.26,1.82.49,2.8.82,1.92.64,3.82,1.56,5.49,2.92.83.68,1.62,1.46,2.26,2.37.33.46.61.9.91,1.45.27.55.47,1.1.63,1.65.61,2.22.57,4.44.25,6.53-.32,2.1-.92,4.09-1.66,6-.35.96-.81,1.88-1.22,2.82-.48.9-.93,1.83-1.47,2.7-2.13,3.52-4.87,6.55-7.8,9.21-5.9,5.3-12.37,9.56-18.8,13.77-6.45,4.2-12.99,8.2-19.52,12.21-3.28,2-6.54,4-9.93,5.92-1.71.95-3.41,1.9-5.45,2.67-1.02.37-2.24.72-3.64.62-.7-.04-1.33-.21-1.9-.38-.54-.21-1.08-.43-1.61-.66-2.09-1.04-3.79-2.64-5.09-4.39-1.31-1.75-2.3-3.65-3.12-5.57-1.62-3.86-2.52-7.85-3.18-11.84-1.22-7.99-1.33-16.02-.71-23.98.3-3.98.8-7.94,1.53-11.88.35-1.97.79-3.93,1.28-5.88.51-1.92.99-3.94,2.05-6,1.05-2.05,2.67-3.77,4.49-5.01,1.82-1.26,3.84-2.05,5.84-2.57,4.03-1.01,8.06-1,11.97-.65,3.92.38,7.75,1.15,11.5,2.15,3.76,1.01,7.43,2.25,11.03,3.73,3.6,1.52,7.12,3.11,10.52,5.45.43.31.85.62,1.29,1.03.22.2.43.41.66.68.22.27.48.58.7,1.19.05.18.1.34.13.56.02.25.01.51-.04.76-.07.26-.19.53-.34.77-.17.27-.25.3-.4.45-.13.11-.3.24-.41.3l-.3.15-.3.13-.24.07c-.66.2-1.17.25-1.7.32-2.05.2-3.95.19-5.87.19-3.83-.02-7.61-.11-11.42-.18-3.8-.11-7.65-.18-11.55-.8-3.9-.6-7.67-1.93-11.19-3.63-1.75-.82-3.46-1.85-5.02-2.37-.78-.26-1.45-.3-2.11-.07-.68.22-1.31.66-1.83,1.27-1.05,1.23-1.68,3.02-2.15,4.82-.45,1.82-.77,3.73-.97,5.65-.5,3.83-.59,7.71-.49,11.59.19,7.76,1.47,15.49,3.35,23.04.93,3.78,2.06,7.5,3.21,11.24l3.42,11.22c2.27,7.48,4.64,14.93,6.96,22.4,2.33,7.46,4.76,14.89,7.03,22.38,1.13,3.75,2.28,7.5,3.07,11.43.38,1.96.67,4,.53,6.12-.04,1.06-.29,2.13-.61,3.16-.38,1-.79,2-1.39,2.85l-.85,1.31-1,1.18-.5.59-.56.52-1.13,1.04c-.81.61-1.61,1.24-2.46,1.77-.87.5-1.71,1.06-2.63,1.45-3.6,1.74-7.5,2.73-11.46,3.03-3.96.28-8.01-.21-11.82-1.65-.47-.19-.96-.35-1.42-.57l-1.37-.71c-.92-.44-1.83-1.06-2.63-1.69-1.64-1.28-3.08-2.76-4.34-4.38-2.52-3.2-4.45-7.08-5.35-11.17-.9-4.1-.91-8.2-.75-12.19.4-7.98,1.47-15.75,2.45-23.53.98-7.77,2.04-15.54,2.84-23.29.4-3.88.75-7.74.92-11.61.05-.97.08-1.96.17-3l.26-2.89c.07-.94.06-1.88.1-2.83-.03-.94-.03-1.89-.1-2.83-.26-3.76-1.01-7.49-2.11-11.15-1.1-3.66-2.51-7.27-3.9-10.92-2.88-7.31-5.05-15.02-6.31-22.81-1.31-7.8-1.78-15.72-1.66-23.59.11-7.88.78-15.73,1.96-23.48l.4.05Z"/>
  </g>
</svg>