<?xml version="1.0" encoding="UTF-8"?>
<svg id="Layer_1" xmlns="http://www.w3.org/2000/svg" xmlns:xlink="http://www.w3.org/1999/xlink" version="1.1" viewBox="0 0 400 400">
  <!-- Generator: Adobe Illustrator 29.3.0, SVG Export Plug-In . SVG Version: 2.1.0 Build 146)  -->
  <defs>
    <style>
      .st0 {
        fill: none;
      }

      .st1 {
        fill: #000001;
      }

      .st2 {
        clip-path: url(#clippath);
      }
    </style>
    <clipPath id="clippath">
      <rect class="st0" x="76.97" y="38.9" width="246.07" height="322.21"/>
    </clipPath>
  </defs>
  <g class="st2">
    <path class="st1" d="M190.59,118.06c.44-.25.89-.1,1.18.06,1.79,1.19,2.95,3.05,4.35,4.63,4.43,5.47,9.41,10.81,15.7,14.06,8.28,4.41,18.85,3.9,26.72-1.03,6.06-3.69,9.15-10.65,10.34-17.45l.3-1.75.08-.46.06-.26s.02-.09.07-.21l.04-.08s-.03,0,.14-.18c.14-.15.42-.23.59-.2.15,0,.37.13.49.3.14.23.09.19.11.24.04.14.02.29.02.42l-.03.26-.07.47-.65,3.52c-1.81,9.28-1.81,18.86.83,27.95l-1.5-.23c7.77-12.1,12.02-26.33,12.32-40.66-.07-5.26.84-10.7-1.6-15.43-2.59-4.54-7.01-7.78-10.96-11.24l-8.38-6.88c-2.81-2.27-5.62-4.55-8.48-6.69-2.69-1.88-5.27-4.29-8.64-4.18-3.5-.14-6.11,2.08-9.3,3.52-8.59,3.94-18.22,5.37-27.59,4.26-3.47-.62-10.4-1.65-9.33-6.87.91-2.74,3.37-3.84,4.91-5.82,1.2-1.63,1.05-1.91.1-2.67-.3-.25-.74-.49-1.35-1.16-.69-.61-1.16-2.2-.92-3.15.45-2.2,2.04-3.4,3.47-4.54,2.4-1.74,5.09-2.96,7.8-4,14.14-5.31,30.33-4.94,44.15,1.25,10.35,3.75,19.55,10.25,29.09,15.51,0,0,9.43,5.47,9.43,5.47,12.71,7.28,16.89,13.24,18.48,27.99,1.74,12.81,2.3,25.8,1.38,38.7-.56,7.66-2.1,15.59-4.63,23.32-4.38,14.4-4.41,30.15-1.66,44.91,3.86,25.59.92,54.29-13.99,76.08-4.55,6.42-9.93,11.9-13.56,18.65-3.44,6.36-4.9,13.59-4.26,20.83l-3.73-3c11.67-1.46,23.47-2.77,35.27-2.57,4.61.23,9.5.88,14.6,1.93,8.56,1.59,17.58,6.99,19.91,16.11,3.48,11.14-.97,25-13.43,27.6-10,2.29-20.41,1.33-30.26,1.3-15.72-.39-31.34-.3-46.96.83-23.31,1.15-48.31,7.67-71.42-.37-11.64-4.53-21.91-12.12-28.81-22.66-.93-1.87-2.03-3.31-1.8-5.82.68-3.91,4.75-3.46,7.31-2.27,4.52,1.89,8.93,4.17,13.47,5.47,3.57,1.07,7.22,1.66,10.8,1.47,3.9-.12,7.14-1.56,10.99-2.55,8-2.33,16.28-1.08,24.21.78,11.4.72,22.97-2.16,34.17-4.67,7.61-1.83,15.18-3.89,22.72-6.06l1.2,4.45c-37.01,9.51-76.39,16.81-114.09,23.54-14.26,3.6-31.84,7.32-47.44,3.96-13.9-3.09-17.29-13.4-14.88-26.47,3.56-15.32,15.43-28.56,23.85-41.42,5.96-8.64,11.88-17.32,17.15-26.32,3.63-6.63,7.95-13.39,7.71-21.06-.8-7.76-2.19-15.92-1.21-23.8.32-7.23,4.64-15.58-1.09-21.55-1.55-1.75-3.72-2.98-6.03-4.25-4.92-2.29-9.57-7.13-9.97-12.9-1.88-17.51,19.14-42.34,30.35-54.98,5.49-5.53,9.57-12.21,11.1-19.9.56-2.51.82-5.09,1.22-7.74.73-5.35,3.14-10.42,6.21-14.81,4.17-5.75,11.52-14.47,19.39-13.24,5.77,1.45,7.37,8.39,8.09,13.5.63,5.33.14,10.93-2.19,15.81-3.52,7.15-8.64,13.29-13.01,19.88-11.92,17.2-24.75,34.33-30,54.96l-.24-.46c9.64,3.16,20.04,4.51,30.07,2.58,10.07-2.06,20.19-6.97,29.86-.68,6.5,3.53,13.07-2.08,16.79-7.2l.03.44c-9.39-9.23-16.97-20.27-22.37-32.27-1.47-3.55-3.12-7.17-3.39-11.06.02-.55-.04-1.24.62-1.79M190.94,118.62c-.23.17-.33.73-.31,1.23.28,3.77,1.9,7.33,3.34,10.8,5.36,11.93,12.91,22.91,22.23,32.07l.21.21c-2.12,2.81-4.55,5.51-7.7,7.26-2.99,1.76-6.98,2.1-10.08.36-2.88-1.66-6.14-3-9.5-3.05-6.83-.26-13.29,2.56-19.94,3.79-10.25,1.97-20.9.54-30.76-2.63,5.09-20.86,17.93-38.37,29.85-55.78,5.36-8.68,13.5-16.7,14.8-27.14.56-6.17-.22-17.85-7.06-19.82-6.98-.94-13.84,7.48-17.57,12.7-2.91,4.28-5.15,8.98-5.79,14.08-.36,2.55-.6,5.23-1.17,7.87-1.14,5.27-3.11,10.44-6.3,14.82-11.69,13.97-24.28,27.76-31.63,44.64-4.12,9.63-5.16,20.54,5.89,25.41,6.58,2.9,11.76,9.3,10.57,16.92-1.7,8.96-2.73,18-1.31,27.06.34,2.57.86,5.18.99,7.98.39,8.36-4.26,15.99-8.06,22.92-5.32,9.19-11.24,17.92-17.18,26.63-8.36,12.98-19.41,25.01-23.09,40.14-3.8,20.67,9.86,23.54,27.22,22.98,10.34-.53,20.72-2.55,30.75-5.27,16.62-3.19,40.75-7.47,57.07-10.84,18.94-3.99,37.81-8.37,56.58-13.12l1.2,4.45c-15.27,4.39-30.51,8.7-46.37,10.76-4,.47-8.06.77-12.32.39-3.85-.51-7.6-1.86-11.51-1.92-8.21-.9-14.98,3.31-22.91,3.87-10.42.75-19.37-4.5-28.04-7.7.27-.07.54-.16.82-.41.35-.4.45-.68.46-.86.02-.22,0,.04.11.32,1.66,4,4.98,7.41,8.21,10.55,5.51,5.16,12.02,9.28,19.03,11.86,22.34,7.44,45.94.91,69.18-.33,15.8-1.23,31.71-1.41,47.48-1.11,7.86.08,15.77.39,23.24-.32,7.13-.61,13.34-3.11,14.75-10.64,2.22-11.86-4.09-19.65-15.7-21.75-3.94-.82-9.17-1.45-12.32-1.67-2.59-.14-5.27-.03-7.86.03-10.3.4-20.62,1.63-30.86,3.01-2.88-21.89,6.57-31.88,18.55-47.44,12.81-18.79,15.63-43.08,13.69-65.36-1.85-11.78-3.75-23.83-2.22-35.75.37-7.8,2.64-16,5.02-23.46,1.25-4.94,2.12-9.67,2.52-13.72,1.29-13.29.93-26.74-.73-39.98-.47-2.63-.87-7.61-1.87-10.06-3.16-9.69-14.84-14.02-22.79-19.21-12.22-7.24-24.28-15.28-38.09-18.9-11.31-2.93-29.68-1.63-38.84,6.22-.17.2-.18.33-.18.23.08-.13-.14-.7-.17-.65,3.62,2.42,4.19,6.33,1.2,9.69-1.21,1.36-2.78,2.6-3.87,3.78-.18.22-.32.46-.28.39-.03,0,.03-.12,0-.24-.03-.1-.07-.2-.07-.2-.03.04.56.52,1.22.79,1.35.6,3.02,1,4.69,1.25,8.52,1.17,17.59-.02,25.46-3.48,3.31-1.52,6.93-3.99,10.89-3.67,4.04-.1,7.56,2.73,10.55,5.03,2.9,2.25,5.68,4.59,8.47,6.92l8.3,7.06c4.08,3.71,8.7,7.21,11.41,12.25,2.64,5.18,1.66,11.25,1.61,16.71-.55,15.34-5.68,30.37-14.27,43.04-1.51-5.23-2.47-10.65-2.53-16.1-.15-6.16,1.01-12.27,2.17-18.26l.02-.18v-.05s0-.03,0,.02c.04.15-.03-.02.1.25.26.32.69.39.99.1.18-.21.06-.07.12-.16.02-.06,0-.02,0,0-.09.3-.36,1.99-.44,2.36-1.3,7.1-4.64,14.35-11.05,18.18-8.3,5.1-19.23,5.48-27.76.86-6.43-3.39-11.38-8.81-15.84-14.41-1.12-1.36-2.18-2.81-3.45-4.01-.39-.39-.95-.72-1.16-.58"/>
    <path class="st1" d="M130.3,307.47c-.54-.35-.63-.97-.64-1.4.09-3.05,1.27-5.94,2.14-8.83,3.27-9.75,6.64-19.43,10.12-29.11,3.25-8.06,5.41-17.32,12.09-23.51,2.7-2.87,6.63-5.05,8.97-7.97,1.57-2.95-1.88-4.56-3.76-6.79-3.85-3.82-7.12-8.3-9.65-13.13-2.3-4.62-3.88-9.04-6.91-13.24-1.99-3.06-4.33-5.78-6.57-9-.18-.32-.29-.56-.4-1,.07.28-.52-1.1.65-2.84.36-1.45,4.33-1.25,4.01-.87.24.07.69.45.84.59,1.93,2.29,3.73,4.73,6.15,6.49,4.97,4.37,12.18,3.42,17.72,3.92,1.03.04,2.45.32,3.48.49,20.13,4.16,37.23,14.11,48.49,31.57,3.03,4.66,11.23,18.69,3.23,21.93-3.72.73-6.62-1.13-9.83-1.9-7.05-2.22-15.65-2.57-20.61,3.87-4.08,4.46-8.59,8.78-13.3,12.55-6.56,4.92-9.33,13.15-15.86,18.1-6.18,5.32-13.85,8.31-20.16,13.46-2.87,2.09-5.42,4.6-8.45,6.48-.45.23-1.09.52-1.76.16M130.65,306.91c.25.16.7.05,1.12-.17,2.98-1.83,5.56-4.31,8.41-6.34,6.24-5.11,13.86-8.34,19.78-13.85,3.04-2.66,5.49-5.69,7.4-9.27,2-3.58,4.73-6.85,7.73-9.62,3.03-2.78,5.91-5.41,8.61-8.39,2.99-3.06,5.04-6.39,8.75-8.94,7.64-4.35,17.2-1.6,24.71.66,1.04.16,1.86.4,2.31-.08.41-.79.35-1.79.15-2.9-.93-4.63-3.43-8.81-6.1-12.81-6.61-9.52-15.75-17.83-26.34-22.39-7.17-2.97-14.58-5.59-22.31-6.39-3.23-.24-6.5.03-10.34-.31-7.12-.44-14.06-6.01-17.76-10.97.22.21.45.36.72.49-.34.36,3.59.57,3.94-.87,1.16-1.71.56-3.06.65-2.76-.03-.19-.16-.51-.19-.56-.03-.08-.08-.17-.11-.23,1.91,2.43,4.42,5.52,6.44,8.45,4.18,5.43,6.12,12.35,9.86,18.02,2.7,4.53,6.08,7.43,9.62,11.52,2.46,2.87,2.76,7.79.46,10.89-1.74,2.51-4.43,4.01-6.61,5.6-2.53,1.8-5.23,3.94-7.23,6.16-3.79,4.99-6.6,11.71-9.42,17.51-4.27,9.29-8.57,18.62-12.14,28.21-.93,2.77-2.16,5.55-2.37,8.47,0,.39.08.73.29.87"/>
    <path class="st1" d="M189.68,81.04c17.29-14.77,47-6.35,51.75,16.65,3.55,17.85-13.13,36.35-31.31,29.22-12.97-4.75-17.94-21.38-7.41-31.27,5.72-5.84,16.11-5.42,21.38.84,5.87,6.07,2.91,17.78-5.56,19.54-9.15,2.06-15.93-9.98-7.04-15.11,5.35-2.63,11.5,4.2,6.42,8.39-.17.13-.36-.12-.21-.26,1.77-1.52,1.79-4.39.23-5.87-3.39-3.56-8.87-.22-8.67,4.23.4,7.05,10.09,8.4,13.44,2.54,5.12-8.05-3.99-17.01-12.32-14.72-8.46,1.95-12.74,12.93-8.79,20.56,1.88,3.91,5.52,7,9.51,8.7,16.39,6.77,31.59-10.39,28.58-26.46-1.96-11.52-12.07-20.42-23.34-22.85-9.11-1.95-19.06.28-26.46,6.15-.15.14-.38-.13-.21-.26"/>
  </g>
</svg>