<?xml version="1.0" encoding="UTF-8"?>
<svg id="Layer_1" xmlns="http://www.w3.org/2000/svg" xmlns:xlink="http://www.w3.org/1999/xlink" version="1.1" viewBox="0 0 400 400">
  <!-- Generator: Adobe Illustrator 29.3.0, SVG Export Plug-In . SVG Version: 2.1.0 Build 146)  -->
  <defs>
    <style>
      .st0 {
        fill: none;
      }

      .st1 {
        fill: #000001;
      }

      .st2 {
        clip-path: url(#clippath);
      }
    </style>
    <clipPath id="clippath">
      <rect class="st0" x="78.77" y="59.95" width="242.45" height="280.1"/>
    </clipPath>
  </defs>
  <g class="st2">
    <path class="st1" d="M187.58,240.5c-1.09,5.25-4.75,4.86-31.59,22.98-8.62,5.82-12.26,8.57-14.36,7.18-4.65-3.09,8.37-19.89,2.15-38.06-3.14-9.17-9.09-12.57-7.18-17.23,2.26-5.49,12.95-6.7,20.1-5.74,16.65,2.21,33.41,18.68,30.87,30.87M310.36,279.99c-13.39-12.63-46.36-7.49-78.08,20.37.41-3.48,1.29-8.67,3.41-14.62,3.64-10.22,7.97-14.35,12.53-21.57,17.63-27.88,12.49-60.21,11.84-63.63-.33-1.71-1.81-9.29-1.75-18.23.03-3.31.31-6.21.68-9.9,1.28-12.99,3.72-11.99,6.03-27.57,0,0,2.74-18.47-1.25-42.57-.27-1.61-.64-3.67-1.76-6.11-2.81-6.14-7.67-8.9-16.8-14.22-20.64-12-21.3-12.68-26.28-14.65-6.94-2.75-10.58-4.18-16.01-4.86-16.57-2.06-32.08,5.15-31.81,8.74.1,1.3,2.23,1.47,2.58,3.45.64,3.53-5.65,5.91-5.17,8.19.62,2.93,12.37,4.97,24.13,1.72,8.7-2.4,9.6-5.55,15.08-5.17,2.86.19,4.61,1.18,17.23,11.63,12.07,9.99,14.71,12.6,15.94,17.23.59,2.24.54,4.65.43,9.48-.07,3.1-.24,9.25-2.15,16.8-2.19,8.63-5.76,15.58-9.05,20.68-1.04-3.76-2.18-9.48-1.72-16.37.41-6.28,1.98-12,1.72-12.06-.31-.08-.62,9.1-6.46,15.08-4.84,4.96-12.59,6.8-18.96,6.03-16.02-1.92-24-20.39-26.28-18.96-1.98,1.25,3.33,15.62,12.92,28.43,3.45,4.62,6.74,8.08,9.05,10.34-2.56,3.39-6.46,7.37-11.2,7.32-2.6-.02-4.13-1.24-6.03-2.16-7.59-3.67-15.31.15-23.26,1.72-6.03,1.19-14.89,1.63-26.71-2.16,1.28-4.65,3.28-10.63,6.46-17.23,3.52-7.3,7.59-13.48,24.56-37.91,4.75-6.84,7.6-10.91,8.19-17.23.59-6.38-1.08-15.48-6.03-17.23-5.97-2.11-15.1,7.05-19.39,15.51-3.74,7.38-2,10.69-4.74,18.96-3.32,10.01-8.1,11.9-16.8,23.26-7.36,9.62-22.5,29.39-16.8,41.36,1.86,3.92,5.18,5.36,8.3,7.12,5.35,3.02,6.82,6.22,6.77,7.52-.17,4.74-16.12,3.68-27.32,10.22,0,0-20.34,11.87-15.33,111.7.06,1.17.21,3.36,1.6,5.81.05.09.09.16.13.22,8.82,14.52,47.58,3.97,51.09,2.98,1.58-.26,3.19-.55,4.78-.82-7.82-6.11-12.71-13.36-11.49-15.09,1.82-2.59,15.62,9.65,30.16,5.6,2.92-.81,7.21-2.66,13.79-2.59,4.75.05,8.23,1.08,9.05,1.29,2.76.74,7.24.9,14.42-.05,13.23-2.87,26.11-5.88,38.57-9-17.84,5.2-30.1,7.88-38.57,9-5.47,1.19-10.98,2.36-16.57,3.49-13.41,2.72-26.52,5.15-39.34,7.33,1.14.89,2.34,1.75,3.59,2.57,18.83,12.34,40.13,8.41,60.31,6.03,73.67-8.7,95.6,7.83,109.24-10.74,9.59-13.06,8.78-34.89-1.44-44.52"/>
    <path class="st1" d="M178.28,128.65c.38-.21.77-.08,1.03.05,1.56,1.03,2.58,2.66,3.79,4.03,3.87,4.76,8.2,9.39,13.69,12.22,7.22,3.84,16.43,3.4,23.3-.89,5.29-3.21,7.99-9.26,9.02-15.17l.26-1.52.07-.4.05-.23s.02-.08.06-.18l.03-.07s-.03,0,.12-.15c.12-.13.36-.19.5-.17.13,0,.31.11.41.26.12.19.08.17.09.21.03.13.03.25.02.36l-.02.23-.06.4-.56,3.06c-1.58,8.07-1.58,16.39.72,24.3l-1.26-.19c7.98-12.16,11.3-26.66,10.85-41.1,0-2.42-.14-4.67-1.03-6.75-3.11-6.23-9.85-10.23-15.01-14.85-4.69-3.67-9.16-7.8-14.28-10.7-3.05-1.46-6.28-.32-9.07,1.36-6.64,3.62-14.28,5.14-21.79,5.05-3.92-.26-8.5-.25-11.65-3.19-.33-.36-.71-1-.79-1.72-.1-.75.12-1.41.34-1.86.48-.94,1-1.41,1.47-1.9,1.32-1.47,3.21-2.41,3.29-4.21-.37-.87-.86-.7-1.91-1.88-.65-.64-.94-2.09-.57-3.03,1.55-3.61,5.68-5.1,8.79-6.52,9.5-3.63,19.87-4.6,29.84-2.36,7.21,1.96,14.32,4.69,20.73,8.46,3.98,2.29,14.79,8.54,18.91,10.92,4.36,2.59,8.79,4.88,12.52,8.59,3.86,3.68,5.87,9.46,6.4,14.47,2.22,14.67,2.97,29.58.77,44.34-.72,4.78-2.15,9.92-3.6,14.44-2.4,8.73-2.96,18.63-2.23,27.78.32,3.41.84,7.18,1.51,10.56.99,6.21,1.24,12.47,1.07,18.71-.51,14.92-4.03,30.06-11.52,43.12-2.35,4.47-5.52,8.48-8.1,12.33-5.25,7.65-8.16,16.65-9.29,25.82l-4.86-2.56c17.73-15.1,39.86-28.61,64.06-27.35,10.51.68,19.97,6.04,23.94,16.3,6.28,15.26,2.46,38.25-13.11,46.4-6.73,3.22-14.54,2.97-21.58,2.81-9.31-.35-18.42-1-27.58-1.19-18.31-.48-36.61.51-54.8,2.67-18.25,2.23-38.36,5.11-55.52-3.97-6.41-3.3-12.12-7.89-16.74-13.45-1.64-2.15-3.11-3.88-3.99-6.67-.55-1.54-.08-3.97,1.98-4.52,2.13-.53,4.3.73,5.99,1.42,5.95,2.78,12.35,5.47,18.85,5.27,4.55-.06,8.6-2.25,13.18-2.91,5.92-1.14,11.97-.02,17.68,1.29,7.79.68,15.61-.97,23.28-2.49,8.93-1.9,17.8-4.28,26.62-6.81l1.02,3.76c-24.54,6.09-49.54,11.57-74.48,15.91l-24.98,4.56c-13.13,3.32-44.82,10.58-53.24-4.73-1.75-3.09-1.5-7.97-1.66-11.39-.31-6.64-.49-15.42-.48-21.92-.03-20.06.8-40.45,5.11-60.15,1.35-5.28,2.88-10.92,5.13-15.86,1.64-3.31,3.39-6.79,6.29-9.22,0,0,.2-.17.43-.27.21-.1.45-.17.66-.2l-.67.18c5.23-2.99,11.02-4.37,16.64-5.54,3.32-.83,6.92-1.06,9.67-2.83.39-.33.46-.55.46-.84-.08-1-1-2.19-1.72-2.99-3.89-4.23-10.83-5.34-13.2-11.13-6.06-14.51,11.89-35.48,20.42-46.4,5.54-6.4,12.13-12.25,14.05-20.83,1.54-5.47,1.24-11.63,4.11-16.76,7.49-14.93,25.72-27.17,26.92-1.29.3,5.91-2.17,11.58-5.52,16.3-12.59,18.97-28.19,36.75-34.08,59.19l-.2-.37c5.62,1.84,11.5,2.93,17.41,3,5.97.17,11.71-1.35,17.44-2.9,5-1.32,10.64-2,15.42.5l1.97,1.04c5.67,3.07,11.4-1.8,14.63-6.26l.03.38c-8.18-8.02-14.79-17.61-19.5-28.05-1.29-3.08-2.72-6.23-2.96-9.61.02-.48-.03-1.08.54-1.56M178.58,129.14c-.2.14-.29.63-.27,1.07.25,3.28,1.65,6.37,2.91,9.38,4.71,10.44,11.35,20.05,19.56,28.05-3.35,4.71-9.49,9.89-15.5,6.63-2.51-1.44-5.35-2.61-8.28-2.65-5.95-.23-11.58,2.23-17.39,3.29-8.84,1.7-18.01.49-26.51-2.21l-.28-.09.08-.28c2.96-11.13,8.02-21.64,14.46-31.16,6.28-9.6,12.9-18.99,19.33-28.46,1.56-2.38,3.04-4.82,3.99-7.45,1.84-5.25,1.59-11.26-.16-16.5-3.82-11.22-13.88-2.91-18.48,3.08-3.48,4.42-6.3,9.48-6.93,15.07-.6,5.71-1.8,11.64-4.75,16.72-2.94,5.08-7.32,8.94-10.94,13.42-7.86,10.22-25.3,30.97-19.79,44.27,2.77,5.99,11.03,6.47,14.37,12.36.68,1.07,1.33,2.85.61,4.2-.66,1.28-2.02,1.99-3.18,2.46-2.91,1.09-5.72,1.55-8.52,2.19-5.56,1.2-11.08,2.6-15.83,5.37l-.67.18c.12.03.26.03.38,0,.13-.04.24-.14.15-.07-2.49,2.21-3.96,5.28-5.41,8.25-3.48,8.11-5.46,17.3-6.77,26.02-2.48,16.12-2.93,32.52-2.85,48.84-.04,6.52.3,15.26.57,21.81l.21,5.45c.22,9.49,11.04,11.91,18.87,12.01,10.8.23,21.63-1.86,32.03-4.63,14.47-2.77,35.54-6.49,49.75-9.42,16.52-3.47,32.96-7.27,49.33-11.4l1.02,3.76c-15.63,4.32-31.43,9.26-47.8,9.83-2.31.08-5.18-.32-7.31-.94-4.2-1.01-8.63-1.23-12.87-.51-4.53.73-8.95,3-13.73,3.02-7.47.25-14.25-2.58-20.74-5.56-1.15-.49-2.24-1.01-3.2-1.17,0,0,.1,0,.2-.04.42-.08.94-.69.92-1.07,0,0,0,.11.06.27,2.55,5.71,7.92,10.25,12.92,13.93,9.11,6.46,20.16,9.04,31.37,9.01,18.15-.24,36.58-4.28,54.88-4.88,18.41-1.16,37.1-.25,55.43.56,8.4.16,17.9.5,23.92-5.92,5.76-6.13,8.2-15.2,8.07-23.56-.71-21.83-15.03-28.13-34.81-24.34-20.11,4.04-37.57,16.6-52.5,30.28,1.09-12.63,3.67-25.48,11.05-36.04,5.75-7.95,10.55-15.51,13.71-24.68,4.57-13.28,5.99-27.77,4.53-41.75-1.04-7.29-2.47-14.58-2.34-21.98.19-7.6.67-14.9,2.84-22.42,3.24-9.17,4.65-18.19,4.88-27.81.28-9.52-.25-19.1-1.68-28.53-.33-2.45-.68-4.52-1.49-6.48-2.58-6.53-8.75-9.44-14.76-13.12l-12.53-7.4c-12.05-7.35-24.96-14.3-39.45-13.11-4.64.31-9.29,1.25-13.61,2.86-2.46.99-5.21,2.11-6.64,4.02-.02-.02.02-.06,0-.09,0-.12-.12-.41-.13-.38-.02.04.59.45,1.2,1.01,3.69,3.7-.1,7.6-2.98,9.97-.39.36-.74.76-.8.92-.05.08,0,.03-.02-.12-.02-.13-.1-.19-.03-.11.09.13.47.41.89.6,4.67,1.92,10.18,1.75,15.19,1.21,6.11-.55,11.36-3.04,16.81-5.66,3.96-1.51,8.31-.17,11.43,2.45,3.98,2.95,7.65,6.1,11.38,9.21,5.33,4.92,12.21,9.12,15.4,15.96.97,2.37,1.11,5.05,1.06,7.54.27,15.22-3.83,30.6-12.54,43.17-1.31-4.52-2.14-9.22-2.19-13.94-.13-5.36.87-10.66,1.88-15.87l.02-.16v-.05s0-.03,0,.02c.03.12-.03-.02.09.21.22.27.58.33.84.09.15-.18.05-.06.1-.13.02-.05,0-.02,0,0-.08.26-.31,1.74-.38,2.05-1.13,6.17-4.04,12.47-9.62,15.8-7.23,4.43-16.75,4.77-24.19.75-5.6-2.95-9.92-7.65-13.81-12.52-.98-1.19-1.9-2.44-3.01-3.49-.34-.33-.83-.62-1.01-.5"/>
    <path class="st1" d="M176.72,102.61c12.62-15.26,39.4-12.55,46.94,6.42,5.74,14.74-5.79,33.1-22.47,29.75-11.85-2.11-18.63-15.58-11.08-25.65,4.03-5.86,13.02-7.08,18.48-2.52,5.96,4.3,5.19,14.78-1.82,17.56-7.55,3.15-15.19-6.13-8.33-11.87,4.2-3.06,10.5,1.85,6.78,6.21-.12.13-.33-.05-.22-.19,1.29-1.57.88-4.03-.69-5.06-3.44-2.53-7.65,1.15-6.8,4.93,1.41,5.98,9.93,5.66,11.92.14,3.18-7.67-6-13.96-12.8-10.73-6.96,2.95-8.98,12.99-4.45,18.93,2.21,3.06,5.8,5.16,9.48,6.01,15.1,3.32,25.55-13.67,20.54-26.97-3.43-9.56-13.44-15.66-23.49-16.02-8.11-.29-16.32,3.13-21.79,9.27-.11.15-.34-.06-.22-.19"/>
    <path class="st1" d="M161.28,329.24c21.38,0,38.72-8.3,38.72-18.53s-17.34-18.54-38.72-18.54-38.72,8.3-38.72,18.54,17.34,18.53,38.72,18.53"/>
  </g>
</svg>