<svg width="133" height="147" viewBox="0 0 133 147" fill="none" xmlns="http://www.w3.org/2000/svg">
<path d="M9.52469 130.18C21.1826 137.977 33.9387 142.246 47.8204 143.162C93.4088 146.165 125.323 108.167 122.27 70.3429C119.353 34.1773 82.3125 8.56807 49.2829 20.3673C26.5586 28.4878 13.2235 53.4318 19.8424 75.4373C26.022 95.9722 48.4369 107.674 67.0256 100.069C80.9797 94.3591 88.5744 78.5834 83.6877 65.4537C79.7767 54.9398 68.3185 48.8727 58.6148 52.2414C57.0873 52.7716 55.4376 53.5093 53.8702 54.4822C57.5416 53.5043 60.9234 53.0467 64.0956 53.4143C76.2402 54.8273 83.1685 67.8095 78.3292 79.5413C73.4623 91.3455 60.0199 96.7825 47.7804 91.8982C31.6475 85.4584 25.4479 65.8138 34.5851 50.0781C44.0043 33.8547 64.6222 28.4102 81.7484 37.6236C104.47 49.848 110.176 79.6863 93.908 101.202C76.0305 124.845 41.6657 127.118 18.7417 106.173C-4.17979 85.2308 -6.41855 49.773 13.9173 24.6539C31.0311 3.51625 53.386 -4.17404 79.5845 2.14325C107.186 8.80066 125.255 26.4045 131.263 54.4947C141.633 103.017 104.238 147.836 54.7612 146.988C38.4836 146.708 19.3931 139.713 9.52469 130.18Z" fill="#007566"/>
</svg>
